<svg width="204" height="207" viewBox="0 0 204 207" fill="none" xmlns="http://www.w3.org/2000/svg">
<path d="M135.915 197.087H139.795V150.619H135.915V197.087Z" fill="#E0E0E0"/>
<path d="M110.415 152.717H165.886C165.886 151.12 165.252 149.589 164.123 148.46C162.994 147.331 161.463 146.697 159.866 146.697H116.435C114.838 146.698 113.308 147.332 112.179 148.461C111.05 149.59 110.416 151.12 110.415 152.717Z" fill="#EBEBEB"/>
<path d="M166.11 152.945H110.19V152.717C110.193 151.061 110.852 149.475 112.022 148.304C113.192 147.134 114.779 146.475 116.434 146.473H159.866C161.521 146.475 163.108 147.134 164.279 148.304C165.449 149.475 166.108 151.061 166.11 152.717V152.945ZM110.643 152.493H165.657C165.598 150.996 164.962 149.58 163.883 148.541C162.804 147.503 161.364 146.922 159.866 146.921H116.434C114.936 146.922 113.497 147.503 112.418 148.541C111.338 149.58 110.702 150.996 110.643 152.493Z" fill="#E0E0E0"/>
<path d="M134.089 152.836C134.089 152.917 135.615 152.979 137.493 152.979C139.371 152.979 140.896 152.917 140.896 152.836C139.767 152.695 138.629 152.647 137.493 152.693C136.356 152.647 135.218 152.695 134.089 152.836Z" fill="#E0E0E0"/>
<path d="M120.891 201.286H121.439C121.402 199.096 121.801 196.919 122.614 194.884C123.427 192.849 124.636 190.996 126.173 189.434C127.709 187.871 129.541 186.63 131.562 185.783C133.582 184.936 135.752 184.5 137.943 184.5C140.134 184.5 142.303 184.936 144.324 185.783C146.345 186.63 148.177 187.871 149.713 189.434C151.25 190.996 152.459 192.849 153.272 194.884C154.085 196.919 154.484 199.096 154.447 201.286H154.995C155.033 199.023 154.62 196.775 153.78 194.673C152.94 192.571 151.69 190.657 150.103 189.043C148.515 187.429 146.623 186.148 144.535 185.273C142.448 184.398 140.207 183.947 137.943 183.947C135.679 183.947 133.438 184.398 131.351 185.273C129.263 186.148 127.371 187.429 125.783 189.043C124.196 190.657 122.946 192.571 122.106 194.673C121.266 196.775 120.853 199.023 120.891 201.286Z" fill="#EBEBEB"/>
<path d="M152.164 202.14C152.163 202.646 152.312 203.141 152.593 203.563C152.873 203.984 153.273 204.313 153.74 204.508C154.208 204.702 154.723 204.753 155.22 204.655C155.716 204.557 156.173 204.314 156.531 203.956C156.89 203.598 157.134 203.142 157.233 202.645C157.332 202.149 157.282 201.634 157.088 201.166C156.895 200.698 156.567 200.298 156.146 200.016C155.725 199.735 155.23 199.585 154.723 199.585C154.387 199.584 154.055 199.65 153.744 199.778C153.433 199.906 153.151 200.094 152.914 200.331C152.676 200.569 152.487 200.85 152.358 201.161C152.23 201.471 152.164 201.804 152.164 202.14Z" fill="#E0E0E0"/>
<path d="M118.479 201.787C118.479 202.293 118.628 202.789 118.909 203.21C119.189 203.632 119.589 203.961 120.056 204.155C120.524 204.35 121.039 204.401 121.535 204.303C122.032 204.205 122.489 203.961 122.847 203.603C123.206 203.246 123.45 202.789 123.549 202.293C123.648 201.796 123.598 201.281 123.404 200.813C123.211 200.345 122.883 199.945 122.462 199.664C122.041 199.382 121.546 199.232 121.039 199.232C120.361 199.232 119.711 199.501 119.231 199.98C118.751 200.459 118.481 201.109 118.479 201.787Z" fill="#E0E0E0"/>
<path d="M121.058 197.082C121.058 197.163 128.475 197.225 137.626 197.225C146.778 197.225 154.199 197.163 154.199 197.082C154.199 197.001 146.783 196.939 137.626 196.939C128.47 196.939 121.058 196.997 121.058 197.082Z" fill="#EBEBEB"/>
<path d="M167.516 104.614V138.818C167.52 139.884 167.312 140.94 166.906 141.926C166.501 142.912 165.904 143.808 165.152 144.563C164.399 145.318 163.504 145.917 162.52 146.325C161.535 146.734 160.48 146.944 159.413 146.944H133.031L136.616 104.614C136.615 104.138 136.708 103.667 136.89 103.228C137.071 102.788 137.338 102.389 137.674 102.053C138.01 101.716 138.409 101.449 138.848 101.267C139.287 101.085 139.758 100.991 140.233 100.991H163.894C164.855 100.991 165.776 101.373 166.455 102.052C167.135 102.732 167.516 103.653 167.516 104.614Z" fill="#EBEBEB"/>
<path d="M158.198 146.696C158.214 146.66 158.235 146.627 158.26 146.596L158.45 146.315C158.627 146.077 158.875 145.71 159.175 145.233C160.022 143.874 160.682 142.407 161.139 140.872C161.457 139.817 161.676 138.735 161.792 137.64C161.901 136.372 161.936 135.099 161.896 133.827C161.896 131.134 161.896 128.184 161.896 125.081C161.896 118.884 161.925 113.284 161.935 109.194C161.935 107.183 161.968 105.543 161.982 104.38C161.982 103.832 161.982 103.393 162.006 103.069C162.003 102.918 162.013 102.766 162.035 102.616C162.056 102.766 162.066 102.918 162.063 103.069C162.063 103.393 162.063 103.832 162.087 104.38C162.087 105.543 162.116 107.183 162.13 109.194C162.13 113.284 162.159 118.889 162.173 125.081C162.173 128.184 162.173 131.134 162.173 133.827C162.202 135.1 162.158 136.373 162.039 137.64C161.915 138.748 161.683 139.842 161.348 140.905C160.87 142.449 160.175 143.918 159.285 145.266C158.97 145.743 158.708 146.096 158.517 146.325C158.425 146.46 158.318 146.585 158.198 146.696Z" fill="#E0E0E0"/>
<path d="M143.846 146.716C144.124 146.677 144.405 146.661 144.685 146.668L146.968 146.639C148.875 146.639 151.563 146.639 154.504 146.639C155.977 146.639 157.364 146.639 158.651 146.687C159.79 146.667 160.927 146.792 162.035 147.059C162.784 147.258 163.479 147.621 164.07 148.122C164.231 148.256 164.379 148.404 164.513 148.565C164.609 148.675 164.652 148.732 164.647 148.741C164.642 148.751 164.432 148.527 164.003 148.208C163.403 147.756 162.717 147.431 161.987 147.254C160.891 147.02 159.771 146.919 158.651 146.954L154.504 146.925C151.563 146.925 148.899 146.868 146.973 146.83L144.69 146.773C144.408 146.777 144.125 146.758 143.846 146.716Z" fill="#E0E0E0"/>
<path d="M197.431 127.211H49.9048V132.402H197.431V127.211Z" fill="#E0E0E0"/>
<path d="M57.1926 131.763L42.6025 204.718H45.0716L62.3451 132.402L57.1926 131.763Z" fill="#E0E0E0"/>
<path d="M180.014 131.611L194.599 204.718H192.135L174.856 132.402L180.014 131.611Z" fill="#E0E0E0"/>
<path d="M78.3552 111.201V120.257H76.8442V121.21H78.3552V127.264H106.592V121.749H104.499V120.553H106.592V118.751H107.545V117.931H106.444V111.201H78.3552Z" fill="#F5F5F5"/>
<path d="M99.0942 111.201V127.159H106.592V121.649H104.499V120.553L106.592 120.586V118.789H107.54L107.521 117.86L106.42 117.831V111.177L99.0942 111.201Z" fill="#E0E0E0"/>
<path d="M99.6277 121.077C99.6277 121.129 94.5181 121.177 88.2169 121.177C81.9157 121.177 76.8013 121.129 76.8013 121.077C76.8013 121.024 81.9109 120.977 88.2169 120.977C94.5229 120.977 99.6277 121.02 99.6277 121.077Z" fill="#E0E0E0"/>
<path d="M99.6277 120.157C99.6277 120.209 94.5181 120.257 88.2169 120.257C81.9157 120.257 76.8013 120.209 76.8013 120.157C76.8013 120.105 81.9109 120.057 88.2169 120.057C94.5229 120.057 99.6277 120.1 99.6277 120.157Z" fill="#E0E0E0"/>
<path d="M101.096 117.683C101.096 117.736 95.9863 117.783 89.6564 117.783C83.3266 117.783 78.2456 117.736 78.2456 117.683C78.2456 117.631 83.3552 117.583 89.6564 117.583C95.9577 117.583 101.096 117.626 101.096 117.683Z" fill="#E0E0E0"/>
<path d="M101.234 124.423C101.234 124.48 96.1247 124.523 89.8234 124.523C83.5222 124.523 78.4126 124.48 78.4126 124.423C78.4126 124.366 83.5174 124.323 89.8234 124.323C96.1294 124.323 101.234 124.366 101.234 124.423Z" fill="#E0E0E0"/>
<path d="M47.1876 0.128662H0.0761719V42.2782H47.1876V0.128662Z" fill="#FAFAFA"/>
<path d="M47.1877 42.2783C47.1877 42.2783 47.1877 42.0066 47.1877 41.4966C47.1877 40.9866 47.1877 40.2192 47.1877 39.2373C47.1877 37.2592 47.1877 34.366 47.1591 30.6577C47.1591 23.2936 47.1257 12.7693 47.1019 0.10486L47.2115 0.209722H0.100095L0.224023 0.0857959C0.224023 15.4194 0.224023 29.8474 0.224023 42.2354L0.114393 42.121L34.1896 42.1782L43.7988 42.2068H46.344H46.997H47.2258H46.3679H43.8464L34.2611 42.2354L0.114393 42.2926H0V42.1829C0 29.7902 0 15.367 0 0.0333649V0H0.128694H47.2401H47.345V0.142993C47.345 12.836 47.3069 23.3794 47.2926 30.7626C47.2926 34.4375 47.2925 37.3212 47.2639 39.2945C47.2639 40.2478 47.2639 41.0199 47.2639 41.5299C47.2639 42.0399 47.1877 42.2783 47.1877 42.2783Z" fill="#E0E0E0"/>
<path d="M18.1412 7.61673C18.1412 7.68346 15.6578 7.74066 12.6026 7.74066C9.54728 7.74066 7.06396 7.68346 7.06396 7.61673C7.06396 7.55 9.54251 7.48804 12.6026 7.48804C15.6626 7.48804 18.1412 7.54523 18.1412 7.61673Z" fill="#E0E0E0"/>
<path d="M38.1026 10.7816C38.1026 10.8484 31.2866 10.9056 22.8882 10.9056C14.4897 10.9056 7.66895 10.8484 7.66895 10.7816C7.66895 10.7149 14.4802 10.653 22.8882 10.653C31.2962 10.653 38.1026 10.7102 38.1026 10.7816Z" fill="#E0E0E0"/>
<path d="M9.12786 16.1439H7.14502V18.1268H9.12786V16.1439Z" fill="#E0E0E0"/>
<path d="M14.0131 16.1439H12.0303V18.1268H14.0131V16.1439Z" fill="#E0E0E0"/>
<path d="M18.9897 16.0533H17.0068V18.0362H18.9897V16.0533Z" fill="#E0E0E0"/>
<path d="M23.7846 16.1439H21.8018V18.1268H23.7846V16.1439Z" fill="#E0E0E0"/>
<path d="M28.6703 16.1439H26.6875V18.1268H28.6703V16.1439Z" fill="#E0E0E0"/>
<path d="M33.5556 16.1439H31.5728V18.1268H33.5556V16.1439Z" fill="#E0E0E0"/>
<path d="M38.4413 16.1439H36.4585V18.1268H38.4413V16.1439Z" fill="#EBEBEB"/>
<path d="M9.12786 20.3622H7.14502V22.345H9.12786V20.3622Z" fill="#EBEBEB"/>
<path d="M14.0131 20.3622H12.0303V22.345H14.0131V20.3622Z" fill="#E0E0E0"/>
<path d="M18.8988 20.3622H16.916V22.345H18.8988V20.3622Z" fill="#EBEBEB"/>
<path d="M23.7846 20.3622H21.8018V22.345H23.7846V20.3622Z" fill="#E0E0E0"/>
<path d="M28.6703 20.3622H26.6875V22.345H28.6703V20.3622Z" fill="#E0E0E0"/>
<path d="M33.6464 20.2716H31.6636V22.2544H33.6464V20.2716Z" fill="#E0E0E0"/>
<path d="M38.4413 20.3622H36.4585V22.345H38.4413V20.3622Z" fill="#E0E0E0"/>
<path d="M9.12786 24.5806H7.14502V26.5634H9.12786V24.5806Z" fill="#E0E0E0"/>
<path d="M14.1039 24.49H12.1211V26.4728H14.1039V24.49Z" fill="#E0E0E0"/>
<path d="M18.8988 24.5806H16.916V26.5634H18.8988V24.5806Z" fill="#E0E0E0"/>
<path d="M23.7846 24.5806H21.8018V26.5634H23.7846V24.5806Z" fill="#EBEBEB"/>
<path d="M28.6703 24.5806H26.6875V26.5634H28.6703V24.5806Z" fill="#E0E0E0"/>
<path d="M33.5556 24.5806H31.5728V26.5634H33.5556V24.5806Z" fill="#E0E0E0"/>
<path d="M38.4413 24.5806H36.4585V26.5634H38.4413V24.5806Z" fill="#E0E0E0"/>
<path d="M9.12786 28.7988H7.14502V30.7817H9.12786V28.7988Z" fill="#E0E0E0"/>
<path d="M14.0131 28.7988H12.0303V30.7817H14.0131V28.7988Z" fill="#E0E0E0"/>
<path d="M18.8988 28.7988H16.916V30.7817H18.8988V28.7988Z" fill="#E0E0E0"/>
<path d="M23.8749 28.7129H21.8921V30.6957H23.8749V28.7129Z" fill="#E0E0E0"/>
<path d="M28.6703 28.7988H26.6875V30.7817H28.6703V28.7988Z" fill="#E0E0E0"/>
<path d="M33.5556 28.7988H31.5728V30.7817H33.5556V28.7988Z" fill="#EBEBEB"/>
<path d="M38.4413 28.7988H36.4585V30.7817H38.4413V28.7988Z" fill="#E0E0E0"/>
<path d="M9.12786 33.0219H7.14502V35.0047H9.12786V33.0219Z" fill="#E0E0E0"/>
<path d="M14.0131 33.0219H12.0303V35.0047H14.0131V33.0219Z" fill="#EBEBEB"/>
<path d="M18.8988 33.0219H16.916V35.0047H18.8988V33.0219Z" fill="#E0E0E0"/>
<path d="M23.7846 33.0219H21.8018V35.0047H23.7846V33.0219Z" fill="#E0E0E0"/>
<path d="M28.6703 33.0219H26.6875V35.0047H28.6703V33.0219Z" fill="#E0E0E0"/>
<path d="M33.6464 32.9313H31.6636V34.9141H33.6464V32.9313Z" fill="#E0E0E0"/>
<path d="M38.4413 33.0219H36.4585V35.0047H38.4413V33.0219Z" fill="#E0E0E0"/>
<path d="M196.448 5.62915H173.26V11.7636H196.448V5.62915Z" fill="#EBEBEB"/>
<path d="M186.644 18.222C186.64 18.1856 186.64 18.1488 186.644 18.1124V17.7788C186.644 17.488 186.644 17.0876 186.644 16.5729C186.644 15.5147 186.644 13.9894 186.606 12.0686L186.677 12.1401L163.489 12.1877C163.541 12.1353 163.369 12.3069 163.603 12.0686V18.222L163.489 18.1076L180.014 18.1601L184.89 18.1934H186.21H186.553H186.677H186.568H186.239H184.942L180.042 18.2888L163.436 18.3412H163.36V12.0924C163.593 11.8589 163.427 12.0304 163.479 11.978L186.668 12.0209H186.715V12.0924C186.715 14.0323 186.687 15.5671 186.677 16.6396C186.677 17.1496 186.677 17.5452 186.677 17.8312C186.677 17.9551 186.677 18.0504 186.677 18.1315C186.669 18.1625 186.657 18.1928 186.644 18.222Z" fill="#E0E0E0"/>
<path d="M93.6125 156.187H70.4238V162.321H93.6125V156.187Z" fill="#EBEBEB"/>
<path d="M83.8082 168.784C83.8048 168.746 83.8048 168.708 83.8082 168.67V168.355C83.8082 168.069 83.8082 167.664 83.8082 167.149C83.8082 166.091 83.7844 164.566 83.7701 162.65L83.8415 162.721L60.6529 162.764L60.7672 162.65V168.775L60.6529 168.66L77.1781 168.713L82.0541 168.746H83.3744H83.7176H83.8415H83.7319H83.403H82.1066L77.2591 168.78L60.6529 168.832H60.5337V162.678L60.6529 162.559L83.8415 162.607H83.913V162.678C83.913 164.614 83.8844 166.153 83.8749 167.221C83.8749 167.731 83.8749 168.127 83.8749 168.413C83.8749 168.536 83.8749 168.637 83.8749 168.713C83.8542 168.738 83.8319 168.762 83.8082 168.784Z" fill="#E0E0E0"/>
<path d="M196.22 91.4392C196.215 91.4028 196.215 91.366 196.22 91.3296V91.015C196.22 90.7242 196.22 90.3239 196.22 89.8091C196.22 88.7462 196.196 87.2257 196.181 85.3048L196.253 85.3763L173.064 85.424C173.117 85.3715 172.945 85.5431 173.179 85.3048V91.4344L173.059 91.32L189.589 91.3725L194.465 91.4058H195.786H196.129H196.253C196.216 91.4103 196.18 91.4103 196.143 91.4058H195.814H194.518L189.67 91.4392L173.059 91.4916H172.893V85.3096C173.126 85.076 172.959 85.2476 173.012 85.1952L196.2 85.2381H196.272V85.3096C196.272 87.2495 196.239 88.7843 196.229 89.8567C196.229 90.362 196.229 90.7624 196.229 91.0484V91.3486C196.228 91.379 196.225 91.4093 196.22 91.4392Z" fill="#E0E0E0"/>
<path d="M199.361 85.3048C199.361 85.3048 199.361 85.2619 199.361 85.1904C199.361 85.1189 199.361 84.995 199.361 84.8663C199.361 84.5612 199.361 84.1513 199.337 83.6365C199.337 82.5593 199.313 81.0388 199.294 79.1704L199.375 79.2562L185.443 79.2895L185.562 79.1704V82.3258C185.562 83.3553 185.562 84.3467 185.562 85.3L185.447 85.1904L195.414 85.2428L198.317 85.2714H199.103H199.38C199.296 85.2782 199.211 85.2782 199.127 85.2714H198.369L195.509 85.3048L185.467 85.3572H185.357V85.2428C185.357 84.2895 185.357 83.2981 185.357 82.2686C185.357 81.7586 185.357 81.2342 185.357 80.7099V79.1132L185.476 78.994L199.408 79.0274H199.494V79.1132C199.494 81.0198 199.461 82.5402 199.451 83.627C199.451 84.137 199.451 84.5422 199.427 84.8377C199.422 84.9953 199.399 85.1518 199.361 85.3048Z" fill="#E0E0E0"/>
<path d="M23.5508 85.4097C23.5466 85.3733 23.5466 85.3365 23.5508 85.3001V84.9855C23.5508 84.6947 23.5508 84.2944 23.5508 83.7748C23.5508 82.7167 23.5508 81.1962 23.5079 79.2753L23.5794 79.3468L0.395457 79.3945C0.443122 79.342 0.276297 79.5089 0.509852 79.2753V82.383C0.509852 83.4094 0.509852 84.4151 0.509852 85.4002L0.395457 85.2858L16.9207 85.3382L21.8015 85.3716H23.117H23.465H23.5889C23.5525 85.3758 23.5157 85.3758 23.4793 85.3716H23.1504L21.7967 85.4621H16.9636L0.347794 85.5241H0.233398V82.3925C0.233398 81.8825 0.233398 81.363 0.233398 80.8435V79.2658C0.47172 79.0274 0.30013 79.199 0.357327 79.1466L23.5413 79.1943H23.6175V79.2658C23.6175 81.2057 23.5842 82.7405 23.5746 83.8082C23.5746 84.3182 23.5746 84.7138 23.5746 84.9998V85.3048C23.5699 85.3404 23.5619 85.3755 23.5508 85.4097Z" fill="#E0E0E0"/>
<path d="M26.6922 79.2658C26.6922 79.2658 26.6922 79.2229 26.6922 79.1466C26.6922 79.0703 26.6922 78.9559 26.6922 78.8225C26.6922 78.5222 26.6922 78.1123 26.6922 77.5927C26.6922 76.5203 26.6636 74.9998 26.6445 73.1314L26.7303 73.2172L12.7408 73.2601C12.636 73.3649 12.8838 73.1123 12.86 73.1409V74.7281C12.86 75.2572 12.86 75.7767 12.86 76.2915V79.2658L12.7456 79.1514L22.7503 79.2181L25.6102 79.2658H26.3919H26.6731C26.5891 79.2726 26.5046 79.2726 26.4205 79.2658H25.6626L22.8028 79.2944L12.7408 79.3897H12.6455V79.2658C12.6455 78.3125 12.6455 77.3163 12.6455 76.2915V73.1409L12.7647 73.0217L26.6969 73.0551H26.7827V73.1409C26.7827 75.0475 26.7494 76.568 26.7351 77.6547C26.7351 78.1647 26.7351 78.5699 26.7351 78.8654C26.7293 78.9996 26.715 79.1333 26.6922 79.2658Z" fill="#E0E0E0"/>
<path d="M203.107 204.718C203.107 204.785 159.485 204.842 105.691 204.842C51.8971 204.842 8.26514 204.785 8.26514 204.718C8.26514 204.652 51.878 204.594 105.691 204.594C159.504 204.594 203.107 204.652 203.107 204.718Z" fill="#263238"/>
<path d="M157.178 37.979H79.0518V97.1543H157.178V37.979Z" fill="#F5F5F5"/>
<path d="M157.164 97.1543C157.164 97.1543 157.164 96.7777 157.164 96.0675C157.164 95.3573 157.164 94.2992 157.164 92.9217C157.164 90.1619 157.164 86.12 157.135 80.9579C157.135 70.6434 157.107 55.8627 157.083 37.979L157.188 38.0791H79.0658L79.1897 37.9552C79.1897 59.2421 79.1897 79.3945 79.1897 97.1304L79.0801 97.016L135.477 97.0732L151.487 97.1018H155.734H156.83H157.207H155.777H151.549L135.567 97.1304L79.0944 97.1876H78.98V97.078C78.98 79.3421 78.98 59.1896 78.98 37.9027V37.7788H79.1134H157.235H157.335V37.8837C157.312 55.7912 157.297 70.5957 157.283 80.9246C157.283 86.0771 157.283 90.1142 157.254 92.8406V95.9722C157.164 96.7968 157.164 97.1543 157.164 97.1543Z" fill="#263238"/>
<path d="M107.374 65.6958H102.097V79.9665H107.374V65.6958Z" fill="#B42BD1"/>
<path d="M129.762 65.6958H124.485V79.9665H129.762V65.6958Z" fill="#B42BD1"/>
<path d="M137.226 57.3164H131.949V79.9665H137.226V57.3164Z" fill="#B42BD1"/>
<path d="M100.548 75.4764H95.272V80.2762H100.548V75.4764Z" fill="#B42BD1"/>
<path d="M114.838 72.14H109.562V79.9665H114.838V72.14Z" fill="#B42BD1"/>
<path d="M122.302 70.343H117.026V79.9664H122.302V70.343Z" fill="#B42BD1"/>
<path d="M99.1276 61.4154C99.7541 61.4154 100.262 60.9075 100.262 60.281C100.262 59.6545 99.7541 59.1466 99.1276 59.1466C98.5011 59.1466 97.9932 59.6545 97.9932 60.281C97.9932 60.9075 98.5011 61.4154 99.1276 61.4154Z" fill="#B42BD1"/>
<path d="M116.616 40.8914C116.682 40.8914 116.74 46.1011 116.74 52.5262C116.74 58.9514 116.682 64.1611 116.616 64.1611C116.549 64.1611 116.492 58.9514 116.492 52.5262C116.492 46.1011 116.544 40.8914 116.616 40.8914Z" fill="#263238"/>
<path d="M151.668 49.3945C151.396 49.4303 151.122 49.4463 150.848 49.4422L148.603 49.4803C146.697 49.5041 144.089 49.5184 141.201 49.5184H137.126C136.827 49.501 136.527 49.5106 136.23 49.547C135.961 49.5949 135.707 49.7024 135.486 49.8616C135.08 50.1505 134.801 50.5837 134.704 51.0723C134.673 51.29 134.66 51.5101 134.666 51.73C134.666 51.9445 134.666 52.1447 134.666 52.3354C134.666 52.6976 134.666 53.0217 134.666 53.2887C134.673 53.5644 134.657 53.8402 134.618 54.1133C134.583 53.8399 134.567 53.5643 134.571 53.2887C134.571 53.0122 134.571 52.6881 134.571 52.3354C134.571 52.1447 134.571 51.9445 134.571 51.73C134.55 51.5017 134.55 51.272 134.571 51.0437C134.662 50.5024 134.961 50.0182 135.405 49.6948C135.649 49.5135 135.931 49.3897 136.23 49.3325C136.545 49.2887 136.864 49.2743 137.183 49.2896H141.258C144.147 49.2896 146.763 49.2896 148.66 49.323L150.905 49.3659C151.16 49.3555 151.415 49.3651 151.668 49.3945Z" fill="#263238"/>
<path d="M141.239 56.2296C141.195 56.2225 141.152 56.2114 141.11 56.1962L140.743 56.0675C140.581 56.0103 140.386 55.9293 140.143 55.853L139.313 55.6147C137.099 55.0538 134.787 54.9889 132.544 55.4248C130.302 55.8606 128.183 56.7865 126.339 58.1362C125.082 59.1358 123.924 60.253 122.879 61.4727C121.735 62.6881 120.496 64.0037 118.832 64.7615C118.011 65.1356 117.117 65.3213 116.215 65.3049C115.346 65.272 114.488 65.0914 113.68 64.771C112.189 64.1244 110.775 63.3156 109.461 62.3592C108.263 61.5436 106.985 60.8505 105.648 60.2906C104.473 59.8206 103.208 59.6186 101.945 59.6996C100.11 59.8024 98.32 60.3068 96.7015 61.1772C96.2632 61.4141 95.8412 61.68 95.4384 61.9731L95.1238 62.2115C95.0907 62.2402 95.0538 62.2643 95.0142 62.283C95.5055 61.8149 96.0569 61.4142 96.6538 61.0914C98.2771 60.1776 100.086 59.6416 101.945 59.5232C103.233 59.428 104.527 59.6251 105.729 60.0999C107.092 60.6529 108.394 61.3462 109.614 62.1686C110.918 63.1108 112.319 63.9098 113.794 64.5518C114.579 64.8615 115.41 65.0372 116.253 65.0713C117.117 65.0816 117.973 64.9027 118.761 64.547C120.367 63.8178 121.587 62.5308 122.726 61.3154C123.785 60.0859 124.958 58.9592 126.23 57.9503C128.469 56.3238 131.101 55.3249 133.856 55.0571C135.705 54.878 137.571 55.0396 139.361 55.5337L140.19 55.7958C140.429 55.8769 140.624 55.9674 140.786 56.0294L141.144 56.1819C141.201 56.2058 141.244 56.2248 141.239 56.2296Z" fill="#B42BD1"/>
<path d="M116.616 66.0723C117.242 66.0723 117.75 65.5644 117.75 64.9379C117.75 64.3114 117.242 63.8035 116.616 63.8035C115.989 63.8035 115.481 64.3114 115.481 64.9379C115.481 65.5644 115.989 66.0723 116.616 66.0723Z" fill="#B42BD1"/>
<path d="M134.724 56.1963C135.35 56.1963 135.858 55.6884 135.858 55.0619C135.858 54.4354 135.35 53.9275 134.724 53.9275C134.097 53.9275 133.589 54.4354 133.589 55.0619C133.589 55.6884 134.097 56.1963 134.724 56.1963Z" fill="#B42BD1"/>
<path d="M100.548 82.1495C99.666 82.2748 98.7739 82.3163 97.8838 82.2734C96.9953 82.3162 96.1048 82.2747 95.2241 82.1495C96.105 82.027 96.9953 81.9855 97.8838 82.0255C98.7739 81.9854 99.6657 82.0269 100.548 82.1495Z" fill="#263238"/>
<path d="M107.474 82.1495C106.592 82.2746 105.7 82.3161 104.809 82.2734C103.919 82.3163 103.027 82.2748 102.145 82.1495C103.028 82.0269 103.919 81.9854 104.809 82.0255C105.7 81.9857 106.591 82.0272 107.474 82.1495Z" fill="#263238"/>
<path d="M115.191 82.1495C114.308 82.2748 113.416 82.3163 112.526 82.2734C111.636 82.3161 110.744 82.2746 109.862 82.1495C110.744 82.0272 111.636 81.9857 112.526 82.0255C113.416 81.9854 114.308 82.0269 115.191 82.1495Z" fill="#263238"/>
<path d="M122.55 82.1496C120.778 82.3148 118.994 82.3148 117.221 82.1496C118.994 81.9843 120.778 81.9843 122.55 82.1496Z" fill="#263238"/>
<path d="M129.723 82.1496C127.951 82.3148 126.167 82.3148 124.395 82.1496C126.167 81.9843 127.951 81.9843 129.723 82.1496Z" fill="#263238"/>
<path d="M136.902 82.1496C135.129 82.3148 133.345 82.3148 131.573 82.1496C133.345 81.9843 135.129 81.9843 136.902 82.1496Z" fill="#263238"/>
<path d="M95.734 86.649H95V86.2104H97.0067V86.649H96.2679V88.5174H95.734V86.649Z" fill="#263238"/>
<path d="M98.7654 88.5174L98.3222 87.8739H97.8455V88.5174H97.2974V86.2104H98.2936C98.9084 86.2104 99.2945 86.5298 99.2945 87.0493C99.3011 87.2054 99.2587 87.3597 99.1732 87.4905C99.0878 87.6213 98.9635 87.722 98.8179 87.7786L99.3326 88.5174H98.7654ZM98.2888 86.649H97.855V87.4497H98.2888C98.6129 87.4497 98.7654 87.2972 98.7654 87.0493C98.7654 86.8015 98.5891 86.649 98.2649 86.649H98.2888Z" fill="#263238"/>
<path d="M101.506 88.0884V88.5174H99.7188V86.2104H101.463V86.6394H100.248V87.1399H101.32V87.5546H100.248V88.0884H101.506Z" fill="#263238"/>
<path d="M104.047 86.2104V88.5174H103.608L102.46 87.1161V88.5174H101.931V86.2104H102.374L103.518 87.6118V86.2104H104.047Z" fill="#263238"/>
<path d="M104.595 86.2105H105.643C105.804 86.1959 105.965 86.2148 106.118 86.2662C106.27 86.3175 106.41 86.4001 106.529 86.5086C106.648 86.6172 106.743 86.7493 106.808 86.8965C106.873 87.0438 106.907 87.203 106.907 87.3639C106.907 87.5249 106.873 87.6841 106.808 87.8313C106.743 87.9786 106.648 88.1107 106.529 88.2192C106.41 88.3278 106.27 88.4103 106.118 88.4617C105.965 88.513 105.804 88.532 105.643 88.5174H104.595V86.2105ZM105.615 88.0789C105.804 88.0789 105.986 88.0036 106.12 87.8695C106.254 87.7354 106.33 87.5536 106.33 87.3639C106.33 87.1743 106.254 86.9925 106.12 86.8584C105.986 86.7243 105.804 86.649 105.615 86.649H105.138V88.0789H105.615Z" fill="#263238"/>
<path d="M98.2745 60.0285C98.1889 60.0501 98.1007 60.0597 98.0124 60.0571H97.2593L94.49 60.1H90.3813H87.9552C87.5206 60.1183 87.0853 60.0992 86.654 60.0428C86.2038 59.9591 85.7715 59.7978 85.3766 59.5661C84.592 59.1142 83.9939 58.3978 83.6892 57.5452C83.5412 57.1436 83.4638 56.7195 83.4604 56.2916V55.1048C83.4604 53.5652 83.4604 52.1734 83.489 50.9961C83.5176 49.8188 83.5176 48.9132 83.5272 48.2268C83.5272 47.9217 83.5272 47.6739 83.551 47.4737C83.5488 47.3857 83.5568 47.2977 83.5748 47.2115C83.588 47.2984 83.588 47.3868 83.5748 47.4737C83.5748 47.6739 83.5748 47.9217 83.5987 48.2268C83.5987 48.9132 83.5987 49.8522 83.6416 50.9961C83.6845 52.14 83.6416 53.5652 83.6416 55.1048C83.6654 55.8769 83.5653 56.6967 83.8704 57.4594C84.1548 58.2626 84.7157 58.9384 85.4528 59.366C85.8237 59.5773 86.2285 59.7224 86.6492 59.7949C87.0662 59.85 87.4872 59.8691 87.9075 59.8521H90.3336L94.4423 59.8807L97.2116 59.9189L97.9647 59.9427C98.0705 59.961 98.1743 59.9898 98.2745 60.0285Z" fill="#263238"/>
<path d="M151.373 39.7473V74.8712H155.619H161.473H188.746V39.7473H151.373Z" fill="#FAFAFA"/>
<path d="M151.372 39.7473H152.049H154.042L161.635 39.7187L188.746 39.6663H188.856V39.7759C188.856 50.0476 188.856 62.0828 188.856 74.895V74.976H188.732H151.358H151.249V74.8711C151.272 64.3087 151.291 55.5146 151.306 49.3612C151.306 46.3011 151.306 43.8941 151.334 42.2449C151.334 41.4346 151.334 40.815 151.334 40.3812C151.334 39.9475 151.334 39.7473 151.334 39.7473C151.334 39.7473 151.334 39.9761 151.334 40.4051C151.334 40.834 151.334 41.468 151.334 42.3116C151.334 43.9656 151.334 46.3822 151.363 49.4613C151.363 55.6004 151.392 64.3707 151.415 74.9045L151.311 74.7996H188.684L188.56 74.9236C188.56 62.1114 188.56 50.0761 188.56 39.8045L188.67 39.9141L161.63 39.8569H154.004H151.987H151.463L151.372 39.7473Z" fill="#263238"/>
<path d="M169.89 43.7272C167.609 43.7272 165.379 44.4037 163.482 45.6711C161.585 46.9386 160.107 48.7401 159.234 50.8478C158.36 52.9555 158.132 55.2747 158.577 57.5123C159.022 59.7498 160.121 61.8051 161.734 63.4183C163.347 65.0314 165.402 66.13 167.64 66.5751C169.877 67.0201 172.197 66.7917 174.304 65.9187C176.412 65.0456 178.214 63.5672 179.481 61.6703C180.749 59.7734 181.425 57.5433 181.425 55.2619C181.425 52.2027 180.21 49.2688 178.047 47.1056C175.883 44.9424 172.949 43.7272 169.89 43.7272ZM170.067 62.1685C168.666 62.1685 167.296 61.7531 166.132 60.9748C164.967 60.1965 164.059 59.0903 163.523 57.7961C162.987 56.5019 162.846 55.0777 163.12 53.7038C163.393 52.3298 164.068 51.0678 165.058 50.0772C166.049 49.0866 167.311 48.4121 168.685 48.1388C170.059 47.8655 171.483 48.0057 172.777 48.5418C174.071 49.0779 175.178 49.9857 175.956 51.1505C176.734 52.3153 177.15 53.6847 177.15 55.0856C177.15 56.9641 176.403 58.7657 175.075 60.094C173.747 61.4223 171.945 62.1685 170.067 62.1685Z" fill="#B42BD1"/>
<path d="M162.984 55.0856C162.983 53.7181 163.378 52.3797 164.122 51.2319C164.865 50.0841 165.925 49.1761 167.173 48.6176L165.4 44.6328C163.31 45.5149 161.527 46.9938 160.273 48.8844C159.019 50.775 158.35 52.9934 158.351 55.262C158.351 55.424 158.351 55.5861 158.351 55.7386H162.988C162.985 55.5352 162.984 55.3176 162.984 55.0856Z" fill="#E0E0E0"/>
<path d="M179.432 69.7044C179.432 69.7615 175.143 69.8092 169.9 69.8092C164.656 69.8092 160.367 69.7615 160.367 69.7044C160.367 69.6472 164.656 69.5947 169.9 69.5947C175.143 69.5947 179.432 69.6424 179.432 69.7044Z" fill="#263238"/>
<path d="M175.186 71.4536C175.186 71.5156 172.803 71.5632 169.89 71.5632C166.978 71.5632 164.6 71.5156 164.6 71.4536C164.6 71.3917 166.983 71.344 169.89 71.344C172.798 71.344 175.186 71.3917 175.186 71.4536Z" fill="#263238"/>
<path d="M169.08 53.5939V54.0705L168.127 56.2583H167.307L168.203 54.1944H167.502V54.6044H166.864V53.5986L169.08 53.5939Z" fill="#263238"/>
<path d="M171.325 55.3956C171.325 55.8722 170.968 56.306 170.167 56.306C169.806 56.3129 169.451 56.2223 169.137 56.0438L169.404 55.4766C169.625 55.6185 169.881 55.6946 170.143 55.6959C170.396 55.6959 170.567 55.5958 170.567 55.4147C170.567 55.2335 170.458 55.1477 170.052 55.1477H169.333L169.461 53.5939H171.158V54.1754H170.086L170.052 54.5615H170.229C171.015 54.5615 171.325 54.9285 171.325 55.3956Z" fill="#263238"/>
<path d="M171.463 54.2945C171.474 54.1627 171.524 54.037 171.605 53.9327C171.686 53.8284 171.796 53.75 171.921 53.707C172.046 53.6641 172.181 53.6585 172.309 53.6909C172.438 53.7233 172.554 53.7923 172.643 53.8896C172.733 53.9868 172.793 54.108 172.815 54.2384C172.837 54.3688 172.82 54.5028 172.767 54.6241C172.714 54.7453 172.627 54.8486 172.517 54.9213C172.406 54.9939 172.277 55.0329 172.145 55.0333C172.05 55.0352 171.956 55.0168 171.868 54.9796C171.781 54.9423 171.702 54.8869 171.638 54.8171C171.574 54.7473 171.525 54.6646 171.495 54.5746C171.465 54.4845 171.454 54.389 171.463 54.2945ZM173.718 53.5939H174.261L172.417 56.2535H171.892L173.718 53.5939ZM172.369 54.2945C172.369 54.0276 172.274 53.9228 172.145 53.9228C172.016 53.9228 171.921 54.0276 171.921 54.2945C171.921 54.5615 172.021 54.6711 172.145 54.6711C172.269 54.6711 172.359 54.5662 172.359 54.2945H172.369ZM173.322 55.5481C173.312 55.4541 173.322 55.3589 173.352 55.2691C173.381 55.1792 173.43 55.0968 173.494 55.0272C173.558 54.9577 173.636 54.9027 173.723 54.8659C173.81 54.8292 173.904 54.8115 173.999 54.8141C174.147 54.8016 174.296 54.8342 174.425 54.9076C174.555 54.9811 174.659 55.0919 174.725 55.2256C174.79 55.3594 174.814 55.5097 174.792 55.657C174.771 55.8043 174.705 55.9417 174.604 56.0511C174.503 56.1605 174.372 56.2369 174.227 56.2703C174.081 56.3036 173.93 56.2924 173.791 56.238C173.653 56.1837 173.534 56.0887 173.45 55.9656C173.366 55.8425 173.322 55.697 173.322 55.5481ZM174.223 55.5481C174.223 55.2812 174.128 55.1716 173.999 55.1716C173.87 55.1716 173.775 55.2812 173.775 55.5481C173.775 55.815 173.875 55.9247 173.999 55.9247C174.123 55.9247 174.233 55.8198 174.233 55.5481H174.223Z" fill="#263238"/>
<path d="M104.313 1.02478V40.7673H109.123H115.743H146.606V1.02478H104.313Z" fill="#FAFAFA"/>
<path d="M104.314 1.02475H104.504H105.081H107.34L115.92 0.996157L146.592 0.943726H146.702V1.05335C146.702 12.6739 146.702 26.3154 146.702 40.7911V40.915H146.578H104.285H104.18V40.8054C104.18 28.8512 104.218 18.9036 104.233 11.9399C104.233 8.47469 104.256 5.74352 104.261 3.88938C104.261 2.96946 104.261 2.26403 104.261 1.77785C104.261 1.29168 104.261 1.06289 104.261 1.06289C104.261 1.06289 104.261 1.31551 104.261 1.80168C104.261 2.28786 104.261 3.00282 104.261 3.93228C104.261 5.80072 104.261 8.53189 104.29 12.0066C104.29 18.9561 104.323 28.8798 104.342 40.8054L104.237 40.7005H146.53L146.406 40.8245C146.406 26.325 146.406 12.7025 146.406 1.08672L146.516 1.19158L116.001 1.09625L107.383 1.06765H105.105H104.314V1.02475Z" fill="#263238"/>
<path d="M125.272 5.52905C122.69 5.52905 120.167 6.29457 118.021 7.72879C115.874 9.16301 114.202 11.2015 113.214 13.5864C112.227 15.9714 111.968 18.5956 112.472 21.1273C112.976 23.659 114.22 25.9844 116.045 27.8093C117.871 29.6343 120.197 30.8768 122.729 31.3799C125.26 31.8829 127.885 31.6238 130.269 30.6353C132.654 29.6468 134.692 27.9733 136.125 25.8265C137.559 23.6798 138.323 21.1561 138.322 18.5748C138.322 16.8612 137.985 15.1644 137.329 13.5813C136.673 11.9982 135.711 10.5598 134.499 9.34837C133.288 8.1369 131.849 7.17606 130.266 6.52073C128.682 5.8654 126.985 5.52843 125.272 5.52905ZM125.467 26.3965C123.881 26.3965 122.331 25.9263 121.013 25.0454C119.695 24.1644 118.667 22.9123 118.06 21.4474C117.453 19.9824 117.295 18.3705 117.604 16.8153C117.913 15.2601 118.677 13.8316 119.798 12.7104C120.919 11.5892 122.348 10.8256 123.903 10.5163C125.458 10.2069 127.07 10.3657 128.535 10.9725C130 11.5793 131.252 12.6069 132.133 13.9253C133.014 15.2437 133.484 16.7937 133.484 18.3794C133.484 20.5056 132.64 22.5448 131.136 24.0483C129.633 25.5518 127.593 26.3965 125.467 26.3965Z" fill="#E0E0E0"/>
<path d="M125.472 5.53381V10.3622C126.732 10.3643 127.974 10.6633 129.096 11.235C130.219 11.8067 131.191 12.635 131.934 13.6526C132.677 14.6703 133.169 15.8487 133.372 17.0923C133.574 18.3359 133.48 19.6096 133.098 20.8102L137.827 22.0924C138.367 20.1698 138.459 18.1485 138.094 16.1849C137.73 14.2212 136.919 12.3676 135.724 10.7673C134.529 9.16694 132.982 7.86269 131.203 6.95525C129.423 6.04781 127.459 5.56148 125.462 5.53381H125.472Z" fill="#E0E0E0"/>
<path d="M117.455 18.3794C117.455 16.8285 117.905 15.3111 118.751 14.0115C119.598 12.7118 120.803 11.6858 122.221 11.0581L120.21 6.54907C117.846 7.5484 115.829 9.22193 114.411 11.3607C112.993 13.4994 112.236 16.0086 112.235 18.5748C112.235 18.7607 112.235 18.9418 112.235 19.1229H117.478C117.464 18.8798 117.455 18.632 117.455 18.3794Z" fill="#455A64"/>
<path d="M125.467 26.3966C124.906 26.3933 124.347 26.3326 123.799 26.2154C123.594 27.3784 123.213 29.633 122.917 31.4061C126.121 32.0014 129.432 31.3756 132.198 29.6518C134.963 27.928 136.983 25.2312 137.86 22.0925L133.131 20.8103C132.614 22.4352 131.591 23.8529 130.213 24.8574C128.835 25.8619 127.172 26.4011 125.467 26.3966Z" fill="#EBEBEB"/>
<path d="M136.072 34.938C136.072 35.0047 131.234 35.0619 125.272 35.0619C119.309 35.0619 114.476 35.0047 114.476 34.938C114.476 34.8713 119.309 34.8141 125.272 34.8141C131.234 34.8141 136.072 34.8475 136.072 34.938Z" fill="#263238"/>
<path d="M131.263 36.9018C131.263 36.9685 128.58 37.0257 125.272 37.0257C121.964 37.0257 119.285 36.9685 119.285 36.9018C119.285 36.835 121.964 36.7778 125.272 36.7778C128.58 36.7778 131.263 36.8446 131.263 36.9018Z" fill="#263238"/>
<path d="M124.381 18.7845C124.381 19.2612 124.023 19.6711 123.222 19.6711C122.86 19.6768 122.503 19.5863 122.188 19.4089L122.464 18.8417C122.683 18.9842 122.938 19.0604 123.198 19.061C123.456 19.061 123.623 18.9657 123.623 18.7845C123.623 18.6034 123.504 18.5271 123.213 18.5271H122.898V18.0505L123.375 17.5405H122.326V16.959H124.233V17.4356L123.685 18.0267C123.874 18.0433 124.051 18.1303 124.18 18.2706C124.308 18.4108 124.38 18.5941 124.381 18.7845Z" fill="#263238"/>
<path d="M126.659 18.7607C126.659 19.2373 126.302 19.6711 125.501 19.6711C125.14 19.6785 124.784 19.5879 124.471 19.4089L124.738 18.8417C124.958 18.9841 125.215 19.0602 125.477 19.061C125.73 19.061 125.901 18.9609 125.901 18.7798C125.901 18.5986 125.791 18.5128 125.386 18.5128H124.662L124.795 16.959H126.487V17.5405H125.42L125.386 17.9266H125.563C126.363 17.9266 126.659 18.2936 126.659 18.7607Z" fill="#263238"/>
<path d="M126.802 17.6597C126.813 17.5278 126.862 17.4021 126.943 17.2978C127.025 17.1935 127.135 17.1151 127.26 17.0722C127.385 17.0292 127.52 17.0236 127.648 17.056C127.776 17.0884 127.892 17.1575 127.982 17.2547C128.072 17.3519 128.131 17.4731 128.153 17.6035C128.175 17.7339 128.159 17.868 128.106 17.9892C128.053 18.1105 127.966 18.2137 127.855 18.2864C127.745 18.359 127.616 18.398 127.483 18.3984C127.388 18.4003 127.294 18.3819 127.207 18.3447C127.119 18.3074 127.041 18.252 126.976 18.1822C126.912 18.1124 126.863 18.0297 126.833 17.9397C126.803 17.8496 126.792 17.7542 126.802 17.6597ZM129.042 16.959H129.59L127.774 19.6187H127.231L129.042 16.959ZM127.698 17.6597C127.698 17.3927 127.602 17.2831 127.474 17.2831C127.345 17.2831 127.25 17.3927 127.25 17.6597C127.25 17.9266 127.35 18.0362 127.474 18.0362C127.598 18.0362 127.707 17.9313 127.707 17.6597H127.698ZM128.651 18.9132C128.641 18.8192 128.651 18.724 128.68 18.6342C128.71 18.5444 128.758 18.4619 128.823 18.3924C128.887 18.3228 128.965 18.2678 129.052 18.231C129.139 18.1943 129.233 18.1766 129.328 18.1792C129.476 18.1667 129.625 18.1993 129.754 18.2728C129.884 18.3462 129.988 18.457 130.054 18.5908C130.119 18.7245 130.142 18.8748 130.121 19.0221C130.099 19.1694 130.034 19.3068 129.933 19.4162C129.832 19.5256 129.7 19.602 129.555 19.6354C129.41 19.6688 129.259 19.6575 129.12 19.6031C128.981 19.5488 128.863 19.4538 128.779 19.3307C128.695 19.2076 128.651 19.0621 128.651 18.9132ZM129.552 18.9132C129.552 18.6463 129.452 18.5367 129.328 18.5367C129.204 18.5367 129.104 18.6463 129.104 18.9132C129.104 19.1801 129.204 19.2898 129.328 19.2898C129.452 19.2898 129.581 19.2087 129.581 18.9132H129.552Z" fill="#263238"/>
<path d="M57.3403 12.0353V47.1591H61.592H67.4404H94.7187V12.0353H57.3403Z" fill="#FAFAFA"/>
<path d="M57.3405 12.0591H57.512H58.022H60.0192H67.6121L94.7236 11.9257H94.8332V12.0591C94.8332 22.326 94.8332 34.366 94.8332 47.1782V47.3021H94.7236H57.35H57.2451V47.1973C57.2689 36.6301 57.288 27.8408 57.3023 21.6825C57.3023 18.6225 57.3023 16.2154 57.3261 14.571C57.3261 13.756 57.3261 13.1411 57.3261 12.7026C57.3261 12.2641 57.3261 12.0734 57.3261 12.0734C57.3261 12.0734 57.3261 12.2974 57.3261 12.7264C57.3261 13.1554 57.3261 13.7941 57.3261 14.633C57.3261 16.2869 57.3262 18.6988 57.3548 21.7826C57.3548 27.9266 57.3881 36.692 57.4119 47.2306L57.3023 47.121H94.6759L94.552 47.2449C94.552 34.4328 94.552 22.3927 94.552 12.1258L94.6569 12.2307L67.6169 12.1783L59.9906 12.1497L58.022 12.0591H57.3214H57.3405Z" fill="#263238"/>
<path d="M75.8628 16.0153C73.581 16.0143 71.3502 16.6901 69.4526 17.9572C67.555 19.2243 66.0758 21.0258 65.2022 23.1337C64.3286 25.2416 64.0997 27.5612 64.5447 29.7992C64.9896 32.0371 66.0882 34.0929 67.7017 35.7063C69.3152 37.3198 71.3709 38.4185 73.6089 38.8634C75.8468 39.3083 78.1665 39.0795 80.2744 38.2059C82.3823 37.3322 84.1837 35.853 85.4508 33.9554C86.7179 32.0578 87.3937 29.827 87.3928 27.5453C87.3928 24.4873 86.178 21.5546 84.0157 19.3923C81.8534 17.23 78.9207 16.0153 75.8628 16.0153ZM76.0391 34.4614C74.6383 34.4614 73.2689 34.0459 72.1041 33.2677C70.9393 32.4894 70.0315 31.3832 69.4954 30.089C68.9593 28.7947 68.819 27.3706 69.0923 25.9966C69.3656 24.6227 70.0402 23.3606 71.0308 22.3701C72.0213 21.3795 73.2834 20.7049 74.6573 20.4316C76.0313 20.1583 77.4554 20.2986 78.7497 20.8347C80.0439 21.3708 81.1501 22.2786 81.9284 23.4434C82.7067 24.6082 83.1221 25.9776 83.1221 27.3784C83.1221 28.3086 82.9389 29.2296 82.5829 30.089C82.227 30.9483 81.7052 31.7291 81.0475 32.3868C80.3898 33.0445 79.609 33.5662 78.7497 33.9222C77.8903 34.2782 76.9693 34.4614 76.0391 34.4614Z" fill="#E0E0E0"/>
<path d="M76.0391 16.02V20.3098C77.1526 20.3069 78.2511 20.5668 79.2453 21.0683C80.2395 21.5698 81.1014 22.2988 81.7609 23.196C82.4204 24.0933 82.8588 25.1335 83.0407 26.2321C83.2225 27.3307 83.1426 28.4567 82.8074 29.5186L86.9876 30.653C87.4616 28.9539 87.5396 27.1687 87.2156 25.4347C86.8916 23.7007 86.1742 22.0641 85.1186 20.6508C84.063 19.2375 82.6973 18.0852 81.1266 17.2824C79.5558 16.4796 77.8219 16.0477 76.0581 16.02H76.0391Z" fill="#B42BD1"/>
<path d="M68.9514 27.3737C68.952 26.0046 69.3487 24.6649 70.0939 23.5163C70.839 22.3677 71.9007 21.4594 73.1507 20.9009L71.368 16.9209C69.2792 17.8029 67.4968 19.2812 66.2438 21.171C64.9908 23.0607 64.3227 25.2779 64.3232 27.5453C64.3232 27.7073 64.3232 27.8694 64.3232 28.0219H68.9848C68.9848 27.8122 68.9514 27.5929 68.9514 27.3737Z" fill="#EBEBEB"/>
<path d="M76.0391 34.4613C75.5343 34.4608 75.031 34.4065 74.5377 34.2993C74.3613 35.3288 74.0229 37.3212 73.7607 38.8894C74.4541 39.0176 75.1576 39.083 75.8627 39.0848C78.3806 39.0821 80.8286 38.2563 82.8336 36.7331C84.8387 35.21 86.2907 33.0732 86.9685 30.6482L82.8074 29.5186C82.3513 30.955 81.4492 32.2087 80.2321 33.0975C79.015 33.9864 77.5462 34.4641 76.0391 34.4613Z" fill="#B42BD1"/>
<g opacity="0.3">
<path d="M76.0391 34.4613C75.5343 34.4608 75.031 34.4065 74.5377 34.2993C74.3613 35.3288 74.0229 37.3212 73.7607 38.8894C74.4541 39.0176 75.1576 39.083 75.8627 39.0848C78.3806 39.0821 80.8286 38.2563 82.8336 36.7331C84.8387 35.21 86.2907 33.0732 86.9685 30.6482L82.8074 29.5186C82.3513 30.955 81.4492 32.2087 80.2321 33.0975C79.015 33.9864 77.5462 34.4641 76.0391 34.4613Z" fill="black"/>
</g>
<path d="M85.4051 41.9876C85.4051 42.0495 81.1153 42.0972 75.8722 42.0972C70.6291 42.0972 66.3394 42.0495 66.3394 41.9876C66.3394 41.9256 70.6291 41.8779 75.8722 41.8779C81.1153 41.8779 85.4051 41.9256 85.4051 41.9876Z" fill="#263238"/>
<path d="M81.1537 43.7416C81.1537 43.7988 78.7705 43.8512 75.863 43.8512C72.9555 43.8512 70.5723 43.7988 70.5723 43.7416C70.5723 43.6844 72.9555 43.632 75.863 43.632C78.7705 43.632 81.1537 43.6796 81.1537 43.7416Z" fill="#263238"/>
<path d="M74.4806 27.6883C74.4747 27.8174 74.4427 27.944 74.3864 28.0603C74.33 28.1767 74.2507 28.2804 74.153 28.3651C74.0554 28.4498 73.9415 28.5138 73.8184 28.5531C73.6953 28.5924 73.5654 28.6063 73.4368 28.5939C73.2653 28.6052 73.0934 28.5784 72.9335 28.5153C72.7736 28.4522 72.6297 28.3545 72.5121 28.2292C72.3945 28.1038 72.3062 27.954 72.2534 27.7904C72.2006 27.6268 72.1848 27.4536 72.207 27.2831C72.192 27.0915 72.2186 26.8989 72.2852 26.7186C72.3517 26.5383 72.4565 26.3745 72.5924 26.2386C72.7283 26.1027 72.8921 25.9979 73.0724 25.9313C73.2527 25.8648 73.4453 25.8382 73.6369 25.8532C73.9109 25.8421 74.1822 25.9099 74.4186 26.0486L74.147 26.5872C74.0057 26.4941 73.8395 26.446 73.6703 26.449C73.585 26.4432 73.4993 26.4548 73.4186 26.4832C73.3379 26.5116 73.2638 26.5561 73.2009 26.6141C73.138 26.6721 73.0876 26.7424 73.0527 26.8205C73.0179 26.8987 72.9993 26.9831 72.9982 27.0686C73.1674 26.9316 73.3814 26.862 73.5988 26.8732C73.8235 26.8655 74.0422 26.9467 74.2074 27.0994C74.3725 27.252 74.4707 27.4636 74.4806 27.6883ZM73.7513 27.7216C73.7523 27.6751 73.7433 27.6289 73.725 27.5861C73.7067 27.5433 73.6796 27.5048 73.6453 27.4733C73.6111 27.4417 73.5705 27.4178 73.5264 27.4031C73.4822 27.3884 73.4354 27.3833 73.3891 27.388C73.3416 27.3823 73.2935 27.3868 73.2478 27.4011C73.2022 27.4154 73.1601 27.4392 73.1243 27.471C73.0886 27.5027 73.0599 27.5417 73.0403 27.5853C73.0207 27.6289 73.0106 27.6762 73.0106 27.724C73.0106 27.7719 73.0207 27.8191 73.0403 27.8628C73.0599 27.9064 73.0886 27.9454 73.1243 27.9771C73.1601 28.0089 73.2022 28.0327 73.2478 28.047C73.2935 28.0613 73.3416 28.0657 73.3891 28.0601C73.4358 28.0649 73.483 28.0596 73.5275 28.0446C73.5721 28.0296 73.6128 28.0053 73.6472 27.9732C73.6815 27.9412 73.7085 27.9021 73.7265 27.8587C73.7445 27.8153 73.7529 27.7686 73.7513 27.7216Z" fill="#263238"/>
<path d="M74.6665 27.2115C74.6665 26.3345 75.1431 25.8292 75.8438 25.8292C76.5445 25.8292 77.0116 26.3345 77.0116 27.2115C77.0116 28.0885 76.5349 28.5938 75.8438 28.5938C75.1527 28.5938 74.6665 28.0885 74.6665 27.2115ZM76.2537 27.2115C76.2537 26.6538 76.0821 26.4441 75.8438 26.4441C75.6055 26.4441 75.4244 26.6538 75.4244 27.2115C75.4244 27.7692 75.6007 27.9789 75.8438 27.9789C76.0869 27.9789 76.2537 27.7882 76.2537 27.2115Z" fill="#263238"/>
<path d="M77.2212 26.5873C77.2296 26.4544 77.2767 26.3269 77.3567 26.2205C77.4367 26.1141 77.5461 26.0335 77.6715 25.9886C77.7968 25.9436 77.9325 25.9364 78.0619 25.9677C78.1913 25.9991 78.3087 26.0676 78.3995 26.1649C78.4904 26.2622 78.5508 26.3839 78.5733 26.5151C78.5958 26.6463 78.5793 26.7813 78.526 26.9032C78.4726 27.0252 78.3848 27.1289 78.2732 27.2015C78.1616 27.2741 78.0312 27.3124 77.898 27.3118C77.8046 27.3134 77.7118 27.2955 77.6258 27.259C77.5397 27.2226 77.4622 27.1684 77.3984 27.1001C77.3346 27.0318 77.2859 26.9509 77.2553 26.8625C77.2248 26.7742 77.2132 26.6804 77.2212 26.5873ZM79.471 25.8818H80.0191L78.2031 28.5415H77.6597L79.471 25.8818ZM78.1268 26.5873C78.1268 26.3156 78.0315 26.2107 77.898 26.2107C77.7646 26.2107 77.6788 26.3156 77.6788 26.5873C77.6788 26.859 77.7789 26.9638 77.898 26.9638C78.0172 26.9638 78.1268 26.8351 78.1268 26.5873ZM79.0801 27.8408C79.0903 27.7087 79.1388 27.5825 79.2196 27.4775C79.3004 27.3725 79.4101 27.2934 79.5352 27.2497C79.6603 27.2061 79.7954 27.1998 79.9239 27.2318C80.0525 27.2637 80.169 27.3324 80.2592 27.4295C80.3493 27.5266 80.4092 27.6478 80.4316 27.7784C80.4539 27.909 80.4377 28.0433 80.3849 28.1648C80.3321 28.2863 80.2451 28.3898 80.1344 28.4627C80.0237 28.5355 79.8942 28.5745 79.7617 28.5749C79.6682 28.5753 79.5756 28.5561 79.4899 28.5185C79.4043 28.4809 79.3275 28.4257 79.2646 28.3565C79.2017 28.2872 79.154 28.2056 79.1247 28.1167C79.0954 28.0279 79.0851 27.9339 79.0944 27.8408H79.0801ZM79.9857 27.8408C79.9857 27.5692 79.8857 27.4643 79.7617 27.4643C79.6378 27.4643 79.5377 27.5692 79.5377 27.8408C79.5377 28.1125 79.6378 28.2126 79.7617 28.2126C79.8857 28.2126 80 28.1078 80 27.8408H79.9857Z" fill="#263238"/>
<path d="M188.765 178.026H156.992V182.392H188.765V178.026Z" fill="#263238"/>
<path d="M188.817 182.445H156.939V177.969H188.817V182.445ZM157.049 182.335H188.708V178.079H157.049V182.335Z" fill="#263238"/>
<path d="M159.938 180.938L164.513 203.498H181.434L185.853 182.392L159.938 180.938Z" fill="#263238"/>
<path d="M159.938 201.363L162.378 204.718H182.945L185.853 201.363H159.938Z" fill="#455A64"/>
<path d="M171.687 181.596C171.625 181.596 171.544 171.144 171.506 158.241C171.468 145.338 171.506 134.885 171.553 134.885C171.601 134.885 171.696 145.333 171.735 158.241C171.773 171.148 171.749 181.596 171.687 181.596Z" fill="#263238"/>
<path d="M178.765 155.438C178.745 155.522 178.716 155.603 178.679 155.681C178.603 155.862 178.508 156.082 178.393 156.358L178.189 156.835L177.974 157.431L177.731 158.112C177.645 158.351 177.578 158.617 177.497 158.884C177.119 160.162 176.821 161.463 176.606 162.779C176.364 164.39 176.205 166.013 176.129 167.64C176.013 170.604 176.098 173.572 176.382 176.525C176.482 177.659 176.587 178.579 176.663 179.213C176.692 179.509 176.72 179.752 176.74 179.942C176.752 180.028 176.752 180.115 176.74 180.2C176.709 180.119 176.69 180.034 176.682 179.947C176.649 179.757 176.611 179.518 176.558 179.223C176.458 178.594 176.33 177.678 176.206 176.544C175.875 173.585 175.77 170.606 175.891 167.631C175.97 165.992 176.141 164.36 176.401 162.74C176.627 161.42 176.946 160.117 177.354 158.841C177.44 158.57 177.512 158.303 177.602 158.065C177.693 157.826 177.783 157.588 177.864 157.383C177.945 157.178 178.026 156.978 178.098 156.797C178.169 156.616 178.255 156.458 178.322 156.32L178.646 155.657C178.677 155.58 178.717 155.507 178.765 155.438Z" fill="#263238"/>
<path d="M177.95 146.987C177.926 147.104 177.893 147.219 177.85 147.33L177.521 148.284C177.445 148.493 177.364 148.732 177.278 148.984L177.021 149.828C176.835 150.433 176.62 151.12 176.43 151.892C176.325 152.278 176.22 152.683 176.11 153.103C176.001 153.522 175.915 153.965 175.81 154.423C175.591 155.333 175.429 156.33 175.224 157.354C174.876 159.428 174.566 161.725 174.351 164.146C174.137 166.568 174.065 168.884 174.032 170.986C173.999 173.088 174.056 174.99 174.142 176.582C174.17 177.378 174.218 178.098 174.261 178.732C174.304 179.366 174.337 179.904 174.375 180.352C174.413 180.8 174.437 181.12 174.456 181.372C174.468 181.493 174.468 181.614 174.456 181.735C174.456 181.735 174.432 181.611 174.399 181.377C174.366 181.144 174.332 180.786 174.28 180.357C174.227 179.928 174.175 179.37 174.127 178.741C174.08 178.112 174.008 177.388 173.97 176.592C173.865 175 173.822 173.098 173.818 170.986C173.813 168.875 173.918 166.554 174.118 164.127C174.318 161.701 174.647 159.399 175.009 157.316C175.219 156.282 175.386 155.29 175.619 154.38C175.724 153.927 175.829 153.484 175.929 153.06C176.029 152.636 176.158 152.235 176.263 151.849C176.468 151.077 176.692 150.391 176.892 149.79C176.987 149.49 177.078 149.208 177.164 148.951C177.249 148.694 177.345 148.474 177.426 148.255C177.585 147.855 177.709 147.537 177.798 147.302C177.84 147.193 177.891 147.088 177.95 146.987Z" fill="#263238"/>
<path d="M169.675 183.446C169.671 183.404 169.671 183.363 169.675 183.322C169.675 183.229 169.666 183.11 169.647 182.964C169.647 182.63 169.594 182.168 169.551 181.577C169.475 180.362 169.37 178.627 169.237 176.487C168.96 172.197 168.56 166.253 167.836 159.723C167.469 156.458 167.04 153.355 166.591 150.548C166.358 149.142 166.143 147.807 165.9 146.563C165.657 145.319 165.424 144.18 165.214 143.112C165.004 142.044 164.771 141.11 164.585 140.276C164.399 139.442 164.223 138.727 164.07 138.141C163.918 137.554 163.822 137.121 163.741 136.796C163.708 136.653 163.684 136.534 163.66 136.444C163.656 136.403 163.656 136.361 163.66 136.32C163.68 136.357 163.695 136.397 163.703 136.439L163.808 136.782C163.894 137.106 164.018 137.554 164.175 138.122C164.332 138.689 164.528 139.413 164.723 140.247C164.918 141.081 165.166 142.02 165.386 143.079C165.605 144.137 165.862 145.285 166.101 146.53C166.339 147.774 166.577 149.108 166.82 150.509C167.297 153.326 167.712 156.429 168.083 159.699C168.803 166.234 169.18 172.178 169.413 176.477C169.532 178.631 169.613 180.371 169.661 181.572C169.661 182.163 169.699 182.626 169.713 182.959V183.322C169.706 183.364 169.694 183.406 169.675 183.446Z" fill="#263238"/>
<path d="M171.425 139.933C171.286 138.45 169.79 137.335 168.303 137.321C167.559 137.354 166.832 137.556 166.177 137.911C165.522 138.266 164.957 138.765 164.523 139.37C163.666 140.592 163.048 141.965 162.702 143.417C161.701 146.901 161.153 150.567 161.582 154.175C162.011 157.783 163.489 161.325 166.058 163.87C166.477 164.285 167.011 164.699 167.597 164.575C167.908 164.483 168.189 164.31 168.412 164.075C170.945 161.757 172.953 158.924 174.302 155.767C175.65 152.609 176.307 149.199 176.229 145.767C176.191 144.399 176.01 142.969 175.252 141.83C174.494 140.691 172.721 139.475 171.439 139.923" fill="#B42BD1"/>
<path d="M160.324 128.074L158.227 131.887C158.179 131.978 158.112 132.078 158.012 132.087C157.912 132.097 157.821 131.992 157.759 131.897L152.226 123.398L153.498 122.678L160.324 128.074Z" fill="#B42BD1"/>
<g opacity="0.2">
<path d="M160.324 128.074L158.227 131.887C158.179 131.978 158.112 132.078 158.012 132.087C157.912 132.097 157.821 131.992 157.759 131.897L152.226 123.398L153.498 122.678L160.324 128.074Z" fill="black"/>
</g>
<path d="M171.553 134.909L152.664 123.76C152.473 123.646 152.264 123.513 152.187 123.284C152.111 123.055 152.321 122.736 152.521 122.526C153.82 121.179 155.394 120.127 157.136 119.442C158.878 118.758 160.748 118.457 162.616 118.56C164.484 118.694 166.292 119.281 167.882 120.27C169.472 121.26 170.798 122.621 171.744 124.237C173.565 127.493 173.627 131.801 171.534 134.895" fill="#B42BD1"/>
<path d="M155.386 120.205C155.467 120.183 155.55 120.172 155.634 120.171C155.796 120.171 156.039 120.133 156.349 120.138C157.227 120.126 158.105 120.196 158.97 120.348C161.851 120.834 164.532 122.134 166.698 124.094C168.865 126.054 170.425 128.593 171.196 131.411C171.434 132.257 171.594 133.123 171.673 133.999C171.693 134.181 171.703 134.364 171.701 134.547C171.685 134.694 171.636 134.836 171.558 134.962C171.613 134.647 171.623 134.326 171.587 134.008C171.475 133.146 171.297 132.293 171.053 131.458C170.103 128.275 168.169 125.475 165.529 123.458C162.889 121.442 159.679 120.313 156.358 120.233C155.734 120.214 155.391 120.224 155.386 120.205Z" fill="#263238"/>
<path d="M168.999 127.216C168.698 127.396 168.378 127.541 168.045 127.65C167.445 127.883 166.615 128.188 165.662 128.489C164.709 128.789 163.86 129.023 163.231 129.18C162.897 129.284 162.551 129.349 162.202 129.375C162.517 129.224 162.848 129.105 163.188 129.023L165.595 128.274L167.979 127.497C168.307 127.367 168.649 127.273 168.999 127.216Z" fill="#263238"/>
<path d="M166.024 119.223C166.19 119.912 166.265 120.621 166.248 121.33C166.303 122.037 166.263 122.749 166.129 123.446C166.036 122.748 165.999 122.043 166.019 121.339C165.962 120.635 165.964 119.927 166.024 119.223Z" fill="#263238"/>
<path d="M152.502 123.551C152.943 123.352 153.401 123.192 153.87 123.074C154.733 122.807 155.924 122.474 157.259 122.149C158.593 121.825 159.809 121.582 160.691 121.43C161.161 121.324 161.639 121.258 162.121 121.234C161.653 121.387 161.175 121.505 160.691 121.587C159.814 121.782 158.608 122.064 157.278 122.373C155.948 122.683 154.752 123.003 153.884 123.227C153.431 123.365 152.969 123.473 152.502 123.551Z" fill="#263238"/>
<path d="M163.589 136.72C161.963 135.486 160.252 135.243 158.207 135.324C156.168 135.461 154.172 135.976 152.321 136.844C149.132 138.241 146.125 140.295 144.218 143.207C142.311 146.12 141.654 149.971 143.079 153.141C143.186 153.474 143.416 153.753 143.722 153.922C144.076 154.026 144.456 153.997 144.79 153.841C148.412 152.659 152.059 151.458 155.39 149.618C158.722 147.778 161.754 145.195 163.541 141.83C164.001 141.035 164.293 140.154 164.399 139.242C164.449 138.787 164.401 138.326 164.258 137.891C164.115 137.456 163.88 137.057 163.57 136.72" fill="#B42BD1"/>
<path d="M163.617 136.339C163.535 136.382 163.449 136.417 163.36 136.444L162.597 136.706L162.049 136.887C161.849 136.959 161.639 137.049 161.406 137.14C160.929 137.326 160.414 137.507 159.857 137.779L158.97 138.184C158.66 138.327 158.351 138.503 158.017 138.66C157.359 138.98 156.697 139.394 155.991 139.809C152.954 141.693 150.252 144.071 147.998 146.844C147.493 147.493 147.002 148.098 146.596 148.708C146.392 149.008 146.177 149.294 145.996 149.58L145.481 150.41C145.143 150.929 144.89 151.434 144.647 151.863C144.528 152.083 144.413 152.283 144.318 152.469L144.066 152.993C143.918 153.289 143.803 153.527 143.708 153.713C143.674 153.8 143.627 153.882 143.57 153.956C143.597 153.866 143.63 153.779 143.67 153.694L143.985 152.955L144.223 152.421C144.313 152.23 144.423 152.025 144.537 151.806C144.766 151.368 145.014 150.853 145.343 150.329L145.848 149.485C146.029 149.194 146.239 148.908 146.439 148.598C146.84 147.984 147.331 147.369 147.836 146.692C148.967 145.298 150.209 143.997 151.549 142.802C152.908 141.628 154.356 140.562 155.882 139.614C156.596 139.199 157.269 138.789 157.931 138.474C158.26 138.308 158.57 138.136 158.884 137.998L159.785 137.607C160.352 137.34 160.891 137.164 161.353 136.992C161.587 136.906 161.801 136.825 162.006 136.759L162.564 136.592L163.336 136.372C163.428 136.35 163.523 136.339 163.617 136.339Z" fill="#263238"/>
<path d="M150.924 143.208C149.632 143.708 148.313 144.134 146.973 144.485C145.655 144.905 144.316 145.25 142.959 145.519C144.253 145.025 145.572 144.6 146.911 144.247C148.23 143.831 149.569 143.484 150.924 143.208Z" fill="#263238"/>
<path d="M150.762 151.93C150.697 151.524 150.668 151.112 150.677 150.7C150.677 149.938 150.653 148.884 150.677 147.726C150.7 146.568 150.772 145.51 150.834 144.752C150.843 144.339 150.896 143.929 150.991 143.527C151.023 143.938 151.023 144.35 150.991 144.761C150.963 145.595 150.934 146.611 150.896 147.731C150.858 148.851 150.843 149.866 150.824 150.7C150.839 151.111 150.819 151.523 150.762 151.93Z" fill="#263238"/>
<path d="M158.236 148.126C158.174 148.126 157.974 145.991 157.793 143.36C157.612 140.729 157.512 138.57 157.574 138.565C157.636 138.56 157.836 140.7 158.017 143.331C158.198 145.962 158.298 148.122 158.236 148.126Z" fill="#263238"/>
<path d="M148.937 138.37C149.357 138.318 149.782 138.305 150.204 138.331C150.981 138.331 152.063 138.36 153.25 138.398C154.437 138.436 155.519 138.489 156.301 138.532C156.723 138.534 157.144 138.575 157.559 138.656C157.14 138.705 156.717 138.717 156.296 138.694C155.514 138.694 154.437 138.665 153.245 138.627C152.054 138.589 150.977 138.536 150.195 138.489C149.773 138.49 149.351 138.45 148.937 138.37Z" fill="#263238"/>
<path d="M166.868 164.37C166.847 164.288 166.837 164.203 166.839 164.118C166.839 163.927 166.839 163.684 166.806 163.388C166.777 162.759 166.773 161.844 166.806 160.714C166.839 159.585 166.901 158.241 167.04 156.754C167.178 155.266 167.397 153.632 167.702 151.935C168.007 150.238 168.393 148.636 168.779 147.168C169.165 145.7 169.58 144.437 169.957 143.355C170.333 142.273 170.662 141.449 170.91 140.853C171.029 140.576 171.124 140.376 171.196 140.181C171.228 140.101 171.266 140.025 171.31 139.952C171.3 140.036 171.276 140.118 171.239 140.195C171.177 140.376 171.096 140.605 170.991 140.881C170.767 141.472 170.462 142.335 170.109 143.408C169.756 144.48 169.366 145.767 168.979 147.221C168.593 148.674 168.236 150.262 167.926 151.954C167.616 153.646 167.402 155.29 167.244 156.754C167.087 158.217 167.006 159.575 166.963 160.7C166.92 161.825 166.901 162.74 166.906 163.369C166.906 163.665 166.906 163.903 166.906 164.094C166.903 164.187 166.89 164.28 166.868 164.37Z" fill="#263238"/>
<path d="M167.864 152.001C167.642 152.302 167.39 152.578 167.111 152.826C166.634 153.303 165.929 153.97 165.138 154.666C164.347 155.362 163.603 155.962 163.055 156.382C162.774 156.627 162.467 156.841 162.14 157.021C162.387 156.741 162.66 156.486 162.955 156.258L164.985 154.494L167.001 152.712C167.264 152.446 167.553 152.208 167.864 152.001Z" fill="#263238"/>
<path d="M173.846 156.816C173.55 156.467 173.282 156.096 173.045 155.705L171.177 152.983C170.453 151.959 169.8 151.029 169.27 150.286C168.99 149.924 168.735 149.543 168.508 149.146C168.836 149.467 169.134 149.816 169.399 150.19C169.923 150.853 170.624 151.792 171.363 152.855C172.102 153.918 172.736 154.895 173.179 155.619C173.438 155.997 173.661 156.397 173.846 156.816Z" fill="#263238"/>
<path d="M170.71 141.673C170.743 141.725 168.756 143.06 166.272 144.657C163.789 146.253 161.749 147.516 161.716 147.454C161.682 147.392 163.67 146.063 166.153 144.466C168.637 142.869 170.677 141.62 170.71 141.673Z" fill="#263238"/>
<path d="M176.31 147.716C175.261 146.844 174.258 145.917 173.308 144.938C172.3 144.013 171.345 143.033 170.448 142.001C171.498 142.871 172.501 143.797 173.451 144.776C174.459 145.701 175.414 146.683 176.31 147.716Z" fill="#263238"/>
<path d="M177.716 147.593L179.423 147.454C180.633 147.353 181.808 146.994 182.869 146.401C183.384 146.096 183.919 145.825 184.47 145.591C186.577 144.747 188.932 144.899 191.201 144.785C194.914 144.595 198.552 143.665 201.901 142.049C202.101 141.962 202.268 141.813 202.378 141.625C202.731 140.986 202.078 140.419 201.52 140.071C198.66 138.303 195.724 136.511 192.464 135.634C189.203 134.757 185.509 134.904 182.731 136.816C179.47 139.061 178.279 143.67 177.726 147.593" fill="#B42BD1"/>
<path d="M202.406 141.415L202.12 141.282L201.31 140.858C200.609 140.486 199.599 139.942 198.326 139.332C196.842 138.604 195.297 138.007 193.708 137.55C191.762 136.995 189.725 136.833 187.716 137.073C185.705 137.296 183.805 138.113 182.259 139.418C181.043 140.539 180.07 141.897 179.399 143.408C178.933 144.422 178.519 145.459 178.16 146.515C178.036 146.873 177.936 147.159 177.855 147.378C177.827 147.481 177.787 147.58 177.735 147.674C177.752 147.568 177.778 147.465 177.812 147.364C177.878 147.14 177.969 146.854 178.079 146.492C178.405 145.419 178.797 144.366 179.251 143.341C179.91 141.797 180.884 140.407 182.111 139.261C183.681 137.919 185.616 137.077 187.669 136.844C189.706 136.6 191.772 136.772 193.741 137.35C195.34 137.818 196.893 138.434 198.379 139.189C199.647 139.819 200.648 140.386 201.334 140.781L202.12 141.258C202.222 141.299 202.318 141.352 202.406 141.415Z" fill="#263238"/>
<path d="M198.312 143.613C198.279 143.665 196.048 142.226 193.331 140.39C190.614 138.555 188.446 137.054 188.479 136.982C188.512 136.911 190.743 138.374 193.46 140.205C196.177 142.035 198.35 143.56 198.312 143.613Z" fill="#263238"/>
<path d="M195.934 136.868C195.411 137.045 194.865 137.143 194.313 137.159C193.763 137.244 193.204 137.244 192.654 137.159C193.196 137.063 193.744 137.007 194.294 136.992C194.836 136.906 195.385 136.865 195.934 136.868Z" fill="#263238"/>
<path d="M186.172 135.595C185.992 136.012 185.746 136.397 185.443 136.735C185.189 137.132 184.876 137.487 184.513 137.788C184.698 137.373 184.946 136.989 185.247 136.649C185.502 136.254 185.813 135.899 186.172 135.595Z" fill="#263238"/>
<path d="M188.169 144.928C187.794 144.77 187.435 144.575 187.097 144.347C186.453 143.956 185.586 143.393 184.652 142.707C183.718 142.021 182.902 141.391 182.316 140.924C181.983 140.689 181.672 140.424 181.387 140.133C181.75 140.319 182.093 140.541 182.411 140.796L184.795 142.526C185.724 143.198 186.573 143.789 187.178 144.213C187.529 144.422 187.861 144.661 188.169 144.928Z" fill="#263238"/>
<path d="M180.229 154.838C178.603 154.409 176.663 155.991 176.33 157.64C175.996 159.289 176.611 160.977 177.335 162.492C178.885 165.895 181.184 168.903 184.061 171.291C186.963 173.675 190.587 175.007 194.342 175.071C193.656 171.878 194.528 168.541 194.142 165.295C193.804 162.441 192.509 159.786 190.468 157.763C188.426 155.739 185.759 154.468 182.902 154.156C181.863 154.042 180.662 153.88 180.248 154.838" fill="#B42BD1"/>
<path d="M194.342 175.071C194.263 175.04 194.186 175.004 194.113 174.962C193.899 174.843 193.695 174.707 193.503 174.556C192.822 173.961 192.274 173.228 191.896 172.407C191.639 171.901 191.348 171.358 191.067 170.753L190.19 168.818C189.876 168.106 189.518 167.415 189.118 166.749C188.675 166.042 188.18 165.369 187.635 164.738C186.525 163.432 185.328 162.297 184.299 161.22C183.362 160.276 182.508 159.252 181.749 158.16C181.241 157.418 180.823 156.618 180.505 155.777C180.4 155.476 180.323 155.243 180.285 155.076C180.259 154.995 180.242 154.912 180.233 154.828C180.257 154.828 180.347 155.162 180.586 155.743C180.931 156.563 181.365 157.341 181.882 158.065C182.652 159.135 183.51 160.139 184.446 161.067C185.486 162.135 186.687 163.265 187.812 164.585C188.364 165.226 188.864 165.91 189.308 166.63C189.712 167.305 190.072 168.005 190.385 168.727L191.239 170.667C191.515 171.272 191.796 171.82 192.044 172.33C192.401 173.142 192.918 173.873 193.565 174.48C194.037 174.9 194.342 175.071 194.342 175.071Z" fill="#263238"/>
<path d="M185.934 172.421C185.944 172.051 185.993 171.684 186.081 171.325C186.21 170.657 186.42 169.737 186.701 168.736C186.982 167.735 187.287 166.83 187.526 166.201C187.637 165.849 187.786 165.51 187.969 165.19C187.908 165.553 187.81 165.909 187.678 166.253C187.478 166.906 187.201 167.802 186.92 168.798C186.639 169.795 186.405 170.705 186.239 171.363C186.171 171.724 186.069 172.079 185.934 172.421Z" fill="#263238"/>
<path d="M194.037 164.585C193.647 164.529 193.263 164.439 192.888 164.318C192.187 164.137 191.22 163.884 190.143 163.641C189.065 163.398 188.088 163.212 187.373 163.079C186.985 163.023 186.601 162.938 186.225 162.826C186.619 162.814 187.014 162.845 187.402 162.922C188.122 163.012 189.113 163.179 190.195 163.422C191.277 163.665 192.245 163.942 192.936 164.166C193.317 164.265 193.686 164.406 194.037 164.585Z" fill="#263238"/>
<path d="M179.899 166.859C179.918 166.433 179.977 166.01 180.076 165.595C180.219 164.819 180.448 163.751 180.748 162.583C181.048 161.415 181.377 160.376 181.634 159.628C181.754 159.216 181.914 158.817 182.111 158.436C182.044 158.858 181.941 159.272 181.801 159.676C181.587 160.433 181.286 161.477 180.981 162.64C180.676 163.803 180.428 164.861 180.247 165.629C180.165 166.048 180.049 166.459 179.899 166.859Z" fill="#263238"/>
<path d="M190.305 157.75C188.788 157.704 187.275 157.581 185.772 157.383C184.258 157.261 182.752 157.064 181.258 156.792C181.258 156.73 183.298 156.897 185.795 157.159C188.293 157.421 190.309 157.688 190.305 157.75Z" fill="#263238"/>
<path d="M188.817 182.373C188.817 182.435 181.668 182.483 172.878 182.483C164.089 182.483 156.939 182.435 156.939 182.373C156.939 182.311 164.089 182.259 172.878 182.259C181.668 182.259 188.817 182.311 188.817 182.373Z" fill="#455A64"/>
<path d="M183.855 191.553C183.855 191.62 179.046 191.668 173.117 191.668C167.187 191.668 162.378 191.62 162.378 191.553C162.378 191.487 167.187 191.444 173.117 191.444C179.046 191.444 183.855 191.492 183.855 191.553Z" fill="#455A64"/>
<path d="M183.665 192.869C183.665 192.931 178.941 192.983 173.112 192.983C167.283 192.983 162.564 192.931 162.564 192.869C162.564 192.807 167.288 192.755 173.112 192.755C178.937 192.755 183.665 192.807 183.665 192.869Z" fill="#455A64"/>
<path d="M184.042 190.471C184.042 190.533 179.065 190.586 172.931 190.586C166.797 190.586 161.825 190.533 161.825 190.471C161.825 190.409 166.797 190.362 172.931 190.362C179.065 190.362 184.042 190.409 184.042 190.471Z" fill="#455A64"/>
<path d="M33.3174 179.361L20.4004 189.957L33.4986 206.096C34.9618 204.752 31.2822 193.889 31.2822 193.889L39.8379 187.44L33.3174 179.361Z" fill="#455A64"/>
<g opacity="0.6">
<path d="M27.9315 188.326C27.7579 188.209 27.5474 188.16 27.34 188.188C27.1326 188.217 26.9427 188.32 26.8066 188.479C26.6843 188.649 26.6315 188.859 26.659 189.066C26.6864 189.273 26.7921 189.462 26.9544 189.594C27.1384 189.717 27.3616 189.768 27.5807 189.736C27.7999 189.705 27.9995 189.593 28.1412 189.423C28.2501 189.233 28.2817 189.009 28.2293 188.797C28.1769 188.584 28.0446 188.401 27.86 188.283" fill="white"/>
</g>
<g opacity="0.6">
<path d="M20.4482 189.909L21.7495 188.832L33.7514 204.833C33.7514 204.833 34.0183 205.786 33.4415 206.134L20.4482 189.909Z" fill="white"/>
</g>
<path d="M31.5777 194.08C31.4966 194.142 31.1392 193.775 30.572 193.603C30.0047 193.431 29.5043 193.484 29.4757 193.384C29.4471 193.284 30 193.036 30.6816 193.269C31.3632 193.503 31.6635 194.037 31.5777 194.08Z" fill="#263238"/>
<path d="M32.2499 196.339C32.188 196.42 31.7733 196.186 31.2251 196.191C30.677 196.196 30.2719 196.401 30.2004 196.32C30.1289 196.239 30.5435 195.843 31.2299 195.843C31.9163 195.843 32.3262 196.277 32.2499 196.339Z" fill="#263238"/>
<path d="M31.0057 198.946C30.9294 198.889 31.2345 198.47 31.8303 198.312C32.4261 198.155 32.8979 198.393 32.8598 198.479C32.8217 198.565 32.3832 198.522 31.9065 198.651C31.4299 198.779 31.0772 199.018 31.0057 198.946Z" fill="#263238"/>
<path d="M33.3652 192.392C33.2651 192.416 33.0792 191.968 32.6883 191.549C32.2975 191.129 31.8733 190.891 31.9066 190.795C31.94 190.7 32.4929 190.796 32.9505 191.31C33.4081 191.825 33.4557 192.383 33.3652 192.392Z" fill="#263238"/>
<path d="M34.9665 190.452C34.9331 190.481 34.6329 190.209 34.3135 189.642C34.0242 189.107 33.8352 188.524 33.7558 187.921C33.7363 187.788 33.7363 187.654 33.7558 187.521C33.769 187.424 33.8142 187.334 33.8841 187.266C33.9541 187.198 34.0448 187.155 34.1419 187.144C34.2315 187.138 34.3213 187.153 34.4041 187.187C34.487 187.222 34.5604 187.276 34.6186 187.344C34.7009 187.448 34.7698 187.562 34.8235 187.683C34.9194 187.89 34.9976 188.106 35.0571 188.326C35.1566 188.697 35.1952 189.082 35.1715 189.466C35.1872 189.822 35.0941 190.174 34.9045 190.476C34.8474 190.476 34.9474 190.08 34.9045 189.466C34.891 189.11 34.8317 188.757 34.7282 188.417C34.6656 188.217 34.5876 188.023 34.4946 187.835C34.3993 187.626 34.2801 187.483 34.1705 187.497C34.0609 187.511 34.1133 187.497 34.0943 187.588C34.0826 187.686 34.0826 187.785 34.0943 187.883C34.1184 188.093 34.1534 188.301 34.1991 188.507C34.2787 188.859 34.3904 189.202 34.5328 189.532C34.6987 189.828 34.8436 190.136 34.9665 190.452Z" fill="#263238"/>
<path d="M34.7711 190.443C34.733 190.443 34.8902 190.038 35.3764 189.594C35.6654 189.339 35.9958 189.134 36.3535 188.989C36.5662 188.904 36.7864 188.838 37.0113 188.794C37.1532 188.751 37.3035 188.746 37.4479 188.779C37.5923 188.811 37.726 188.88 37.8359 188.98C37.8935 189.052 37.9287 189.14 37.9371 189.232C37.9456 189.324 37.927 189.417 37.8836 189.499C37.8238 189.618 37.7467 189.727 37.6548 189.823C37.498 189.999 37.3146 190.148 37.1114 190.266C36.7724 190.467 36.3895 190.582 35.9961 190.6C35.8182 190.627 35.6368 190.618 35.4625 190.574C35.2882 190.529 35.1245 190.451 34.9808 190.343C35.311 190.361 35.642 190.361 35.9722 190.343C36.3119 190.29 36.6367 190.167 36.9255 189.98C37.1021 189.872 37.2626 189.738 37.4022 189.585C37.5499 189.423 37.6357 189.246 37.569 189.194C37.4987 189.15 37.4199 189.121 37.3378 189.11C37.2556 189.098 37.172 189.104 37.0923 189.127C36.8877 189.161 36.6866 189.214 36.4918 189.285C36.1528 189.397 35.8318 189.558 35.5385 189.761C35.0428 190.152 34.8188 190.476 34.7711 190.443Z" fill="#263238"/>
<path d="M27.4644 188.012L27.6216 204.718L48.4081 204.628C48.2794 202.645 37.5072 198.703 37.5072 198.703L37.8456 187.993L27.4644 188.012Z" fill="#455A64"/>
<g opacity="0.6">
<path d="M31.0723 197.831C30.8765 197.892 30.7096 198.023 30.6026 198.198C30.4957 198.374 30.456 198.582 30.4908 198.784C30.5449 198.985 30.6737 199.158 30.8509 199.267C31.0282 199.376 31.2404 199.413 31.4441 199.37C31.6564 199.305 31.8366 199.163 31.9495 198.971C32.0623 198.78 32.0997 198.553 32.0542 198.336C31.9759 198.132 31.8215 197.965 31.6234 197.872C31.4253 197.779 31.1988 197.766 30.9913 197.836" fill="white"/>
</g>
<g opacity="0.6">
<path d="M27.6167 204.651V202.964L47.6357 203.641C47.6357 203.641 48.5604 204.046 48.4508 204.699L27.6167 204.651Z" fill="white"/>
</g>
<path d="M37.8405 198.598C37.8405 198.698 37.3305 198.746 36.8348 199.075C36.3391 199.404 36.0722 199.833 35.9768 199.79C35.8815 199.747 36.034 199.165 36.6441 198.779C37.2543 198.393 37.8644 198.503 37.8405 198.598Z" fill="#263238"/>
<path d="M40.0283 199.489C40.0283 199.585 39.6088 199.761 39.2704 200.19C38.932 200.619 38.8271 201.077 38.727 201.072C38.6269 201.067 38.5602 200.495 38.994 199.966C39.4277 199.437 40.0235 199.38 40.0283 199.489Z" fill="#263238"/>
<path d="M41.2774 202.092C41.1821 202.116 41.0391 201.615 41.2774 201.053C41.5157 200.49 42.0114 200.271 42.0543 200.357C42.0972 200.443 41.8065 200.738 41.5777 201.201C41.3489 201.663 41.3775 202.082 41.2774 202.092Z" fill="#263238"/>
<path d="M37.65 196.148C37.6071 196.239 37.14 196.101 36.568 196.148C35.9961 196.196 35.548 196.372 35.4956 196.286C35.4431 196.201 35.8674 195.834 36.5442 195.81C37.221 195.786 37.6977 196.067 37.65 196.148Z" fill="#263238"/>
<path d="M37.145 193.684C36.8034 193.778 36.4428 193.778 36.1012 193.684C35.7252 193.617 35.3587 193.505 35.0097 193.35C34.804 193.259 34.6049 193.154 34.4139 193.036C34.2954 192.974 34.1888 192.892 34.0993 192.793C34.0316 192.722 33.9896 192.63 33.9801 192.532C33.9706 192.435 33.9941 192.337 34.0469 192.254C34.0977 192.183 34.1641 192.126 34.2411 192.085C34.318 192.045 34.4032 192.022 34.4901 192.02C34.6223 192.018 34.7541 192.036 34.881 192.073C35.1042 192.123 35.3215 192.196 35.5292 192.292C35.8786 192.447 36.2005 192.658 36.4825 192.917C36.9592 193.365 37.1355 193.741 37.1021 193.76C37.0688 193.779 36.8162 193.479 36.3252 193.112C36.0318 192.897 35.7113 192.723 35.3719 192.592C35.178 192.513 34.9769 192.452 34.7714 192.411C34.5521 192.354 34.3662 192.354 34.2947 192.449C34.2232 192.545 34.2947 192.502 34.3186 192.569C34.3885 192.637 34.467 192.696 34.5521 192.745C34.7275 192.861 34.9106 192.964 35.1002 193.055C35.4235 193.215 35.762 193.343 36.1107 193.436C36.4612 193.493 36.8069 193.576 37.145 193.684Z" fill="#263238"/>
<path d="M37.0112 193.827C36.8133 193.532 36.7163 193.181 36.7347 192.826C36.7132 192.44 36.7584 192.053 36.8682 191.682C36.9379 191.466 37.0256 191.255 37.1303 191.053C37.1862 190.915 37.2765 190.795 37.3925 190.702C37.5085 190.609 37.6464 190.548 37.7928 190.524C37.8859 190.524 37.977 190.551 38.0549 190.601C38.1328 190.652 38.1941 190.725 38.2314 190.81C38.2823 190.932 38.3191 191.06 38.341 191.191C38.3767 191.423 38.3767 191.66 38.341 191.892C38.286 192.282 38.1354 192.652 37.9025 192.969C37.4973 193.512 37.0731 193.636 37.0683 193.598C37.0636 193.56 37.3877 193.35 37.6928 192.831C37.8724 192.533 37.9846 192.2 38.0216 191.854C38.0415 191.662 38.035 191.468 38.0026 191.277C37.9692 191.053 37.8834 190.877 37.8024 190.9C37.7214 190.924 37.5259 191.067 37.4401 191.244C37.3387 191.424 37.2526 191.612 37.1827 191.806C37.0692 192.143 37.0035 192.495 36.9873 192.85C36.9587 193.436 37.0493 193.813 37.0112 193.827Z" fill="#263238"/>
<path d="M29.2469 91.2295C29.2469 91.2295 26.3299 94.3467 24.8999 97.3401C23.47 100.333 22.5549 107.459 22.5549 107.459C22.5549 107.459 18.532 116.42 19.1421 121.005C19.7522 125.591 23.8513 156.959 23.8513 156.959C23.8513 156.959 23.6511 187.416 26.5634 192.85L27.2117 195.786L38.9323 193.703L38.8561 191.944L41.6111 132.173L48.6654 91.4916L29.2469 91.2295Z" fill="#263238"/>
<path d="M55.1047 100.119C55.1047 100.119 62.1113 138.689 62.7309 145.4C63.3506 152.111 39.4993 187.397 39.4993 187.397L28.5938 176.024L44.2467 146.949L39.1562 117.626L46.2343 91.7205L53.67 91.9778L55.1047 100.119Z" fill="#263238"/>
<path d="M24.7329 183.365C24.7453 183.649 24.774 183.932 24.8187 184.213C24.8902 184.775 25.0284 185.595 25.2191 186.658C25.6099 188.779 26.2439 191.858 27.0923 195.714V195.795H27.1733L38.8987 193.741H38.9893V193.651C39.3182 185.61 39.7043 176.015 40.1237 165.686C40.5575 154.594 40.9578 144.308 41.2867 135.872C42.1638 129.094 42.893 123.479 43.3983 119.566C43.6461 117.616 43.8368 116.086 43.9702 115.028L44.1132 113.841C44.1418 113.57 44.1514 113.432 44.1514 113.432C44.1514 113.432 44.118 113.565 44.0799 113.837C44.0417 114.108 43.9798 114.509 43.9035 115.024C43.7605 116.077 43.546 117.602 43.2743 119.547C42.7453 123.465 41.9874 129.08 41.0675 135.843C40.7243 144.28 40.3096 154.566 39.8568 165.657C39.4564 175.967 39.0799 185.581 38.7653 193.627L38.8606 193.517L27.1447 195.624L27.2448 195.691C26.3726 191.877 25.7148 188.779 25.2953 186.663C25.0904 185.605 24.9379 184.79 24.8521 184.232C24.7996 183.956 24.7758 183.755 24.7567 183.603C24.7538 183.523 24.7458 183.443 24.7329 183.365Z" fill="#455A64"/>
<path d="M45.729 26.1676C46.0769 24.1228 44.5183 22.0637 42.5402 21.4441C40.5621 20.8245 38.3458 21.4441 36.6441 22.6166C35.381 23.4984 34.3324 24.6853 32.993 25.4527C31.7728 26.1486 30.362 26.4679 29.1799 27.1924C28.2408 27.769 27.4598 28.5702 26.9073 29.5237C26.3548 30.4772 26.0482 31.5532 26.015 32.6547C25.9864 34.18 26.4916 35.8054 25.791 37.1686C25.0474 38.6557 23.1742 39.2658 22.3258 40.6957C21.5584 41.9874 21.811 43.6271 22.178 45.0856C22.545 46.5441 23.0026 48.0837 22.5784 49.5279C22.1875 50.8387 21.1485 51.8444 20.5384 53.0837C19.9931 54.3344 19.9253 55.7417 20.3478 57.039C20.7703 58.3364 21.6538 59.4339 22.831 60.1237L35.4192 55.0141L45.729 26.1676Z" fill="#263238"/>
<path d="M45.8769 25.3622C47.8169 25.1763 49.5757 26.7158 50.3288 28.5128C51.0819 30.3097 51.058 32.3259 51.0866 34.2706C51.1152 36.2153 51.2296 38.2506 52.1972 39.9379C52.7072 40.8245 53.4317 41.568 54.018 42.4069C54.6622 43.2162 54.9862 44.2341 54.9284 45.2668C54.6948 47.1114 52.6691 48.2458 52.1591 50.0332C51.7444 51.4631 52.4117 53.0551 52.0781 54.5232C51.7642 55.6542 51.0223 56.6184 50.0094 57.2115C49.0045 57.792 47.9208 58.2239 46.7921 58.4936L40.4766 53.608L42.0114 24.9666L45.8769 25.3622Z" fill="#263238"/>
<path d="M32.0067 35.0953L32.7598 55.4336C32.7903 56.2526 32.9869 57.0568 33.3376 57.7974C33.6884 58.538 34.186 59.1997 34.8002 59.7421C35.4145 60.2846 36.1326 60.6966 36.9109 60.9531C37.6892 61.2097 38.5115 61.3053 39.3279 61.2344C40.8497 61.1018 42.2594 60.3795 43.2559 59.2218C44.2524 58.064 44.7569 56.5626 44.6616 55.038C44.6044 53.5128 44.6377 51.7015 44.6616 51.5442C44.6616 51.5442 49.7521 50.4003 49.9332 45.2668C50.0238 42.7835 49.9666 38.5938 49.6997 33.9799C49.5703 31.5689 48.5339 29.296 46.7985 27.6172C45.0632 25.9384 42.7572 24.9779 40.3432 24.9285H39.8665C34.4995 25.1048 31.6683 29.7521 32.0067 35.0953Z" fill="#FFBE9D"/>
<path d="M44.6759 51.5298C42.2963 51.5223 39.973 50.8054 38.0029 49.4707C38.0029 49.4707 39.4996 53.2028 44.633 52.8596L44.6759 51.5298Z" fill="#EB996E"/>
<path d="M48.4462 38.4984C48.4425 38.6895 48.365 38.8716 48.23 39.0067C48.0949 39.1418 47.9127 39.2193 47.7217 39.2229C47.6281 39.2281 47.5345 39.2144 47.4463 39.1827C47.3581 39.151 47.2771 39.1019 47.2082 39.0383C47.1393 38.9748 47.0839 38.898 47.0452 38.8127C47.0065 38.7273 46.9853 38.635 46.9829 38.5413C46.9854 38.3504 47.0627 38.1681 47.1982 38.0335C47.3336 37.8989 47.5165 37.8228 47.7074 37.8216C47.8006 37.8165 47.8939 37.83 47.9818 37.8614C48.0697 37.8929 48.1504 37.9415 48.2192 38.0046C48.288 38.0676 48.3436 38.1438 48.3825 38.2286C48.4215 38.3134 48.4432 38.4052 48.4462 38.4984Z" fill="#263238"/>
<path d="M48.5508 36.7682C48.4555 36.8635 47.9121 36.4393 47.1209 36.4203C46.3296 36.4012 45.7434 36.7873 45.6623 36.6872C45.5813 36.5871 45.7195 36.4727 45.9721 36.2963C46.3192 36.0668 46.7288 35.9503 47.1447 35.9627C47.5552 35.9712 47.9523 36.1097 48.2791 36.3583C48.5174 36.5537 48.5985 36.7253 48.5508 36.7682Z" fill="#263238"/>
<path d="M40.9628 38.4985C40.9591 38.6895 40.8816 38.8716 40.7466 39.0067C40.6115 39.1418 40.4293 39.2193 40.2383 39.223C40.1447 39.2281 40.0511 39.2144 39.9629 39.1827C39.8747 39.151 39.7937 39.1019 39.7248 39.0383C39.6559 38.9748 39.6005 38.8981 39.5618 38.8127C39.5231 38.7273 39.5019 38.6351 39.4995 38.5414C39.502 38.3504 39.5793 38.1681 39.7148 38.0335C39.8502 37.899 40.0331 37.8229 40.224 37.8217C40.3174 37.8159 40.4109 37.8289 40.4991 37.8601C40.5873 37.8913 40.6683 37.9399 40.7372 38.0031C40.8062 38.0663 40.8617 38.1427 40.9005 38.2278C40.9392 38.3129 40.9604 38.405 40.9628 38.4985Z" fill="#263238"/>
<path d="M41.0053 36.8778C40.91 36.9731 40.3666 36.5489 39.5754 36.5346C38.7842 36.5203 38.1979 36.8969 38.1169 36.7968C38.0358 36.6967 38.1693 36.5871 38.4267 36.4059C38.7743 36.1781 39.1838 36.0632 39.5992 36.077C40.0097 36.0856 40.4069 36.2241 40.7336 36.4727C40.972 36.6633 41.0482 36.8444 41.0053 36.8778Z" fill="#263238"/>
<path d="M43.4792 42.3212C43.899 42.2048 44.3309 42.1376 44.7662 42.121C44.9711 42.121 45.1618 42.0686 45.1999 41.9351C45.2209 41.727 45.1776 41.5174 45.076 41.3345C44.8996 40.8579 44.7138 40.3241 44.5183 39.7854C43.7414 37.5786 43.1837 35.7721 43.2743 35.7387C43.3649 35.7054 44.0655 37.469 44.8424 39.6758C45.0283 40.2192 45.2047 40.7387 45.3763 41.2297C45.4974 41.4767 45.5278 41.7585 45.4621 42.0257C45.4305 42.0955 45.3838 42.1575 45.3252 42.2069C45.2667 42.2564 45.1978 42.2922 45.1237 42.3117C45.0119 42.3417 44.8961 42.3545 44.7805 42.3498C44.3475 42.3998 43.9096 42.3902 43.4792 42.3212Z" fill="#263238"/>
<path d="M40.7624 33.7844C40.6718 33.9941 39.8901 33.8511 38.9607 33.9179C38.0312 33.9846 37.2686 34.1943 37.1542 33.9989C37.1065 33.9036 37.2448 33.7081 37.5594 33.5222C37.9831 33.2476 38.4862 33.1218 38.9893 33.1648C39.4372 33.1199 39.8893 33.1871 40.3048 33.3602C40.6385 33.5079 40.8005 33.6843 40.7624 33.7844Z" fill="#263238"/>
<path d="M48.8606 33.751C48.6986 33.9321 48.0647 33.751 47.2973 33.7176C46.5299 33.6842 45.8673 33.8225 45.7386 33.6366C45.6719 33.546 45.7768 33.3649 46.0628 33.1981C46.4553 32.997 46.8929 32.9002 47.3335 32.9169C47.7742 32.9336 48.2032 33.0632 48.5794 33.2934C48.8463 33.4793 48.9321 33.6652 48.8606 33.751Z" fill="#263238"/>
<path d="M43.7224 44.8473C43.6917 44.6815 43.6372 44.5209 43.5604 44.3707C43.4668 44.2124 43.3356 44.0796 43.1785 43.984C43.0214 43.8884 42.8431 43.8329 42.6595 43.8226C42.2891 43.8062 41.9268 43.9344 41.649 44.18C41.5275 44.286 41.4294 44.4162 41.3613 44.5623C41.2931 44.7085 41.2564 44.8673 41.2534 45.0285C41.257 45.1144 41.2781 45.1988 41.3154 45.2763C41.4089 45.4969 41.5537 45.6919 41.7378 45.8453C41.9218 45.9986 42.1397 46.1059 42.3735 46.1581C42.6089 46.2037 42.8525 46.1802 43.0749 46.0906C43.2973 46.0009 43.4891 45.8489 43.6271 45.6529C43.7065 45.5396 43.7572 45.4088 43.7749 45.2716C43.7787 45.1283 43.7611 44.9853 43.7224 44.8473Z" fill="#EB996E"/>
<path d="M32.8029 41.9493C32.7742 41.9493 32.7359 41.9493 32.7406 42.002C32.7426 42.0099 32.7463 42.0172 32.7515 42.0234C32.7567 42.0296 32.7633 42.0345 32.7707 42.0377C32.7781 42.0409 32.7862 42.0424 32.7942 42.0421C32.8023 42.0417 32.8102 42.0395 32.8173 42.0356C32.8234 42.0302 32.8283 42.0235 32.8317 42.0161C32.835 42.0087 32.8367 42.0006 32.8367 41.9924C32.8367 41.9843 32.835 41.9762 32.8317 41.9688C32.8283 41.9614 32.8234 41.9547 32.8173 41.9493C32.8106 41.946 32.8032 41.9442 32.7957 41.9442C32.7882 41.9442 32.7809 41.946 32.7742 41.9493" fill="#263238"/>
<path d="M32.8792 41.7301C32.8714 41.7276 32.8631 41.7271 32.8551 41.7286C32.8471 41.7302 32.8396 41.7338 32.8334 41.7391C32.8271 41.7444 32.8223 41.7512 32.8195 41.7588C32.8166 41.7665 32.8157 41.7747 32.8169 41.7828C32.8182 41.7905 32.8213 41.7978 32.826 41.8041C32.8307 41.8103 32.8369 41.8153 32.844 41.8186C32.8511 41.8219 32.8589 41.8235 32.8667 41.8231C32.8745 41.8227 32.8821 41.8204 32.8888 41.8164C32.8957 41.8115 32.9014 41.805 32.9053 41.7975C32.9092 41.79 32.9112 41.7817 32.9112 41.7732C32.9112 41.7648 32.9092 41.7565 32.9053 41.749C32.9014 41.7415 32.8957 41.735 32.8888 41.7301C32.8822 41.7264 32.8748 41.7244 32.8672 41.7244C32.8597 41.7244 32.8522 41.7264 32.8457 41.7301" fill="#263238"/>
<path d="M44.4042 45.1999C44.4042 45.2571 44.204 45.3715 43.8274 45.4287C43.3179 45.5096 42.7957 45.4331 42.3308 45.2095C41.8603 44.9803 41.4844 44.5943 41.2679 44.118C41.1058 43.7652 41.101 43.5221 41.1582 43.4983C41.3012 43.4316 41.6349 44.3181 42.55 44.7662C42.9486 44.9465 43.3766 45.053 43.8131 45.0808C44.1659 45.1141 44.3946 45.1237 44.4042 45.1999Z" fill="#263238"/>
<path d="M30.0762 39.5471C28.9036 35.405 29.4994 30.6672 32.1448 27.2687C34.7902 23.8703 39.5852 22.121 43.6557 23.5223C44.2405 23.6978 44.776 24.008 45.2191 24.4279C45.4349 24.6429 45.5919 24.9095 45.6754 25.2024C45.7588 25.4952 45.7658 25.8046 45.6958 26.101C45.4193 27.0209 44.3135 27.3831 43.3555 27.426C42.3974 27.4689 41.3726 27.3498 40.548 27.8359C39.0895 28.6891 39.1181 30.834 38.0886 32.1686C37.5785 32.8264 36.8207 33.2697 36.3583 33.9608C35.1095 35.8292 36.1391 36.9494 35.3431 39.0513C35.1191 39.6329 34.1086 40.1667 33.4889 40.2525C32.8693 40.3383 33.365 40.3288 32.059 40.181L30.0762 39.5471Z" fill="#263238"/>
<path d="M33.8131 40.2524C33.7273 40.2095 30.367 39.0322 30.2955 42.5212C30.224 46.0103 33.7416 45.3811 33.7512 45.2619C33.7607 45.1428 33.8131 40.2524 33.8131 40.2524Z" fill="#FFBE9D"/>
<path d="M32.7118 43.9178C32.7118 43.9178 32.6499 43.9607 32.545 44.0036C32.4703 44.0382 32.389 44.0561 32.3067 44.0561C32.2244 44.0561 32.1431 44.0382 32.0684 44.0036C31.7014 43.8654 31.4058 43.2696 31.4011 42.6404C31.3961 42.3424 31.4597 42.0472 31.587 41.7777C31.6207 41.665 31.6819 41.5624 31.7651 41.4792C31.8483 41.396 31.9509 41.3348 32.0636 41.301C32.1338 41.2843 32.2077 41.2922 32.2728 41.3234C32.3379 41.3547 32.3902 41.4073 32.4211 41.4726C32.464 41.5727 32.4211 41.6394 32.4592 41.649C32.4974 41.6585 32.5355 41.5918 32.5117 41.444C32.4931 41.358 32.4461 41.2807 32.3782 41.2248C32.2829 41.1522 32.1638 41.1182 32.0445 41.1294C31.9003 41.155 31.765 41.217 31.6516 41.3096C31.5381 41.4022 31.4502 41.5223 31.3963 41.6585C31.2439 41.953 31.1654 42.2802 31.1675 42.6118C31.1675 43.3125 31.5202 43.9798 32.0207 44.1371C32.114 44.1647 32.2122 44.1718 32.3085 44.1578C32.4047 44.1438 32.4968 44.1091 32.5784 44.056C32.7023 43.9941 32.7214 43.9273 32.7118 43.9178Z" fill="#EB996E"/>
<path d="M26.1104 33.4365C26.8576 33.7592 27.6568 33.9449 28.4697 33.9846C29.346 34.0014 30.2185 33.8659 31.0484 33.5843C32.0639 33.2248 33.0259 32.7294 33.9082 32.1114C34.8615 31.468 35.7099 30.7768 36.4964 30.1572C37.2829 29.5376 37.9978 28.9847 38.6318 28.5652C39.1286 28.2259 39.6496 27.9232 40.1904 27.6596C40.3842 27.5528 40.5908 27.4711 40.8053 27.4165C40.8053 27.4165 40.6003 27.5357 40.2333 27.7454C39.7161 28.036 39.2149 28.3543 38.7319 28.6987C38.117 29.1324 37.4116 29.6901 36.6394 30.324C35.8672 30.958 35.0093 31.6586 34.0465 32.3116C33.1454 32.9395 32.1601 33.437 31.1199 33.7892C30.264 34.0691 29.3645 34.1919 28.465 34.1515C27.8583 34.1211 27.2608 33.9907 26.6966 33.7654C26.5453 33.7032 26.3987 33.6299 26.2581 33.5461C26.1596 33.4826 26.1104 33.446 26.1104 33.4365Z" fill="#455A64"/>
<path d="M25.839 33.7654C25.839 33.7321 26.3156 34.0228 27.1497 34.3994C28.2073 34.8901 29.317 35.2594 30.4576 35.5004C31.6002 35.7362 32.7661 35.8402 33.9324 35.8102C34.8284 35.8102 35.3623 35.7149 35.3861 35.7578C35.2645 35.8086 35.136 35.8408 35.0048 35.8531C34.6537 35.9201 34.2987 35.9646 33.9419 35.9866C31.5647 36.148 29.1888 35.6534 27.0735 34.5567C26.7535 34.3945 26.4446 34.2114 26.1488 34.0085C25.939 33.8655 25.8294 33.7797 25.839 33.7654Z" fill="#455A64"/>
<path d="M50.9913 31.6634C50.3972 31.5606 49.8414 31.3009 49.3814 30.9112C48.9213 30.5215 48.5737 30.0161 48.3745 29.447C48.7392 29.8947 49.1291 30.3212 49.5423 30.7244C50.0069 31.065 50.4907 31.3785 50.9913 31.6634Z" fill="#455A64"/>
<path d="M50.8723 35.0475C50.9104 35.0999 50.7245 35.3049 50.3956 35.4145C50.0667 35.5241 49.7998 35.4765 49.7998 35.4145C49.7998 35.3526 50.0381 35.2811 50.3146 35.1857C50.591 35.0904 50.8103 34.9903 50.8723 35.0475Z" fill="#455A64"/>
<path d="M70.3428 77.3592C70.3128 76.2888 70.6015 75.2337 71.1721 74.3277C72.0873 73.0884 74.032 72.5212 74.1893 71.6585C74.3466 70.7958 75.8385 69.0656 76.5725 69.4659C77.3065 69.8663 77.6068 70.8005 76.5725 71.8778C75.8932 72.5856 75.2745 73.3494 74.7231 74.1609C74.7231 74.1609 83.9891 72.5546 84.6659 72.6737C85.3427 72.7929 86.0196 72.9073 86.0243 73.4793C86.0291 74.0512 84.2274 74.2085 84.2274 74.2085L81.2102 76.3058C80.5168 77.2517 79.6973 78.0985 78.7746 78.8225C77.7428 79.4549 76.59 79.864 75.3904 80.0236L72.1826 82.0732C72.1826 82.0732 69.0177 79.771 70.3428 77.3592Z" fill="#FFBE9D"/>
<path d="M84.0227 74.2944C84.0227 74.2944 83.9655 74.2229 83.8607 74.1276C83.7097 73.9896 83.52 73.9014 83.3173 73.8749C82.6265 73.8617 81.9487 74.0632 81.3773 74.4517C80.7881 74.837 80.2459 75.2897 79.7615 75.8006C79.5716 76.0286 79.3538 76.232 79.1133 76.4059C79.2589 76.1451 79.4384 75.9047 79.6471 75.6909C80.1053 75.1323 80.6491 74.6496 81.2582 74.261C81.8697 73.8389 82.6113 73.648 83.3506 73.7224C83.5796 73.7657 83.7857 73.889 83.9321 74.0704C84.0227 74.1991 84.0322 74.2896 84.0227 74.2944Z" fill="#EB996E"/>
<path d="M80.7766 74.4039C79.8718 74.7583 78.9157 74.9643 77.9453 75.014C78.8519 74.6657 79.807 74.4599 80.7766 74.4039Z" fill="#EB996E"/>
<path d="M75.9961 74.8472C76.4754 74.8317 76.9462 74.9767 77.3338 75.259C77.7215 75.5413 78.0038 75.9449 78.1362 76.4058C77.8469 76.0608 77.528 75.7418 77.1829 75.4525C76.807 75.2142 76.4097 75.0116 75.9961 74.8472Z" fill="#EB996E"/>
<path d="M52.4688 56.8254C52.4688 56.8254 57.0207 59.1419 58.1265 62.1924C58.708 63.7987 62.1494 80.8721 62.1494 80.8721L69.0798 76.1676L73.7509 83.2219L62.6689 91.8492C60.5029 92.4026 58.2156 92.2353 56.1532 91.3725C55.4001 91.0532 54.7948 90.6814 54.647 90.2858C54.2085 89.0608 52.4688 56.8254 52.4688 56.8254Z" fill="#B42BD1"/>
<g opacity="0.3">
<path d="M59.2134 83.6937C58.4555 84.8377 58.0981 86.3438 58.6319 87.6117C58.671 87.7301 58.7439 87.8345 58.8416 87.912C58.961 87.9696 59.0979 87.979 59.224 87.9381C59.3501 87.8973 59.4556 87.8094 59.5185 87.6927C59.6326 87.4517 59.6881 87.1871 59.6805 86.9206C59.8126 84.693 60.6926 82.5752 62.1781 80.9101V80.8434C61.038 81.6217 60.036 82.5851 59.2134 83.6937Z" fill="black"/>
</g>
<path d="M20.3049 59.0988L33.4555 54.8329C36.0103 61.6251 44.2372 60.4668 44.6566 54.9997L52.4688 56.8634C52.4688 56.8634 55.0856 73.4458 54.4516 76.8824C53.4316 82.421 55.9912 100.414 57.3449 106.887C58.5222 112.492 55.0856 115.824 53.3601 117.349C44.5803 125.109 40.0141 124.065 33.5937 120.033C29.0757 117.311 24.3314 114.985 19.4136 113.079C20.0523 105.572 24.2134 97.7832 26.8873 92.1493L25.6576 79.0559L20.3049 59.0988Z" fill="#B42BD1"/>
<path d="M57.1161 104.943C57.0666 104.817 57.0283 104.688 57.0017 104.556C56.9398 104.304 56.8445 103.932 56.7348 103.446C56.5108 102.493 56.2153 101.063 55.915 99.3181C55.6147 97.5736 55.3192 95.4668 55.0952 93.1218C54.8712 90.7767 54.7472 88.198 54.7091 85.4955C54.671 82.7929 54.6328 80.2047 54.4517 77.8692C54.3207 75.7972 54.0307 73.7384 53.5842 71.7109C53.2831 70.3448 52.8702 69.0057 52.3497 67.7071C52.1781 67.2305 51.997 66.9016 51.9017 66.6585C51.843 66.5385 51.7936 66.4142 51.7539 66.2867C51.8301 66.3978 51.8956 66.5159 51.9493 66.6395C52.059 66.873 52.2544 67.2114 52.426 67.6738C52.9819 68.9653 53.4221 70.3035 53.7415 71.6728C54.2196 73.6988 54.5352 75.7596 54.6853 77.8358C54.8759 80.1809 54.9236 82.7691 54.9617 85.4621C54.9998 88.1551 55.1238 90.7481 55.3287 93.0884C55.5337 95.4287 55.8054 97.5164 56.0914 99.2848C56.3773 101.053 56.6395 102.445 56.8349 103.422C56.9302 103.899 57.0017 104.266 57.0589 104.542C57.0863 104.674 57.1055 104.808 57.1161 104.943Z" fill="#263238"/>
<g opacity="0.3">
<path d="M39.3422 94.6279C36.5777 94.4944 33.7274 94.3753 31.1392 95.3381C27.1926 96.8014 24.5472 100.476 21.082 102.869L21.4109 102.988C23.0066 103.872 24.8217 104.282 26.6423 104.168C28.463 104.055 30.2134 103.424 31.6873 102.35C33.1173 101.268 34.2708 99.7518 35.9485 99.1131C36.6778 98.8319 37.4833 98.7318 38.1602 98.3362C38.7669 97.9605 39.2194 97.3803 39.4362 96.7004C39.6529 96.0205 39.6196 95.2854 39.3422 94.6279Z" fill="black"/>
</g>
<path d="M20.305 59.1418C18.8072 60.0024 17.6346 61.3325 16.9685 62.9264C16.0724 65.0904 13.632 94.2705 14.0515 96.1389C14.4709 98.0073 16.4347 100.805 19.6568 102.259C22.3784 103.484 29.4137 100.514 32.2688 99.4659C32.3593 99.4325 31.6301 98.3362 31.3155 97.607L28.8989 89.9092L25.0286 90.3286L26.4585 75.8577L20.305 59.1418Z" fill="#B42BD1"/>
<path d="M24.6045 68.9512C24.6894 69.2161 24.7547 69.4869 24.7999 69.7615C24.9048 70.2905 25.0287 71.0579 25.1526 72.0112C25.4005 73.9178 25.6293 76.5632 25.8438 79.4802L26.3728 86.9635C26.4491 87.8882 26.5158 88.6508 26.5635 89.2276C26.6051 89.502 26.6242 89.7794 26.6207 90.0569C26.5487 89.788 26.4977 89.5139 26.4682 89.2371C26.3871 88.708 26.2966 87.9359 26.1965 86.9778C26.0058 85.0712 25.8104 82.4211 25.5959 79.4993C25.3814 76.5775 25.1812 73.9369 24.9763 72.0303C24.8762 71.077 24.7808 70.3096 24.7046 69.7805C24.6478 69.5074 24.6143 69.23 24.6045 68.9512Z" fill="#263238"/>
<path d="M29.5138 89.6232C29.101 89.7398 28.6805 89.8274 28.2555 89.8853C27.4595 90.0236 26.3489 90.2094 25.0143 90.4192H24.9809H24.9476C24.2562 90.108 23.5123 89.9301 22.755 89.8949C21.8757 89.854 20.9982 90.0087 20.1859 90.3477C19.5248 90.6291 18.9182 91.0243 18.3937 91.5154C17.9254 91.9888 17.5054 92.5078 17.1401 93.0645C17.1924 92.8961 17.2678 92.7356 17.3642 92.5879C17.6138 92.1565 17.9182 91.7592 18.2698 91.4058C18.7985 90.8812 19.4188 90.458 20.1001 90.157C20.9397 89.7952 21.8515 89.632 22.7645 89.6804C23.5545 89.7164 24.33 89.9058 25.0476 90.238H24.9809C26.3012 90.0474 27.4309 89.8949 28.2364 89.7948C28.6568 89.7029 29.084 89.6455 29.5138 89.6232Z" fill="#263238"/>
<path d="M31.4157 97.6309C31.5335 97.7761 31.6312 97.9364 31.7065 98.1075L32.4357 99.4135L32.4834 99.4945L32.3928 99.5327C31.0773 100.043 29.1374 100.772 26.9734 101.568L25.1002 102.254L25.0335 102.026L25.0954 102.254H25.0478L24.9906 102.021H25.0144L25.0811 102.25C23.7585 102.696 22.3486 102.822 20.9677 102.617C20.5717 102.556 20.18 102.47 19.7952 102.359C19.6528 102.325 19.5151 102.274 19.3853 102.207C19.3853 102.169 19.9811 102.35 20.9868 102.464C22.3424 102.619 23.7157 102.468 25.0049 102.021L25.0716 102.25L25.0144 102.016H25.0573L25.1193 102.245L25.0478 102.011L26.9162 101.32C29.0802 100.524 31.0296 99.8234 32.3642 99.3611L32.3166 99.4755L31.6541 98.1361C31.5573 97.9764 31.4774 97.8071 31.4157 97.6309Z" fill="#263238"/>
<path d="M62.2593 80.791C61.7814 81.3465 61.3358 81.929 60.9247 82.5355C60.3146 83.5746 60.081 84.5517 60 84.5279C60.055 83.7725 60.2993 83.0431 60.7102 82.4068C61.0646 81.7334 61.6014 81.1735 62.2593 80.791Z" fill="#263238"/>
<path d="M46.1631 27.7119C46.1654 27.7454 46.1654 27.779 46.1631 27.8125V27.7119Z" fill="#263238"/>
<path d="M36.6873 96.2628C36.364 95.4905 36.1661 94.6715 36.101 93.8367C35.946 93.0146 35.9251 92.1727 36.0391 91.3439C36.2054 92.154 36.32 92.9739 36.3822 93.7986C36.5729 95.1523 36.7683 96.2438 36.6873 96.2628Z" fill="#455A64"/>
<path d="M32.0875 45.2573L20.3906 57.2592C21.1477 58.5179 21.5662 59.9511 21.6055 61.4194C21.6447 62.8877 21.3034 64.3412 20.6146 65.6386L30.3811 65.9532L30.4383 63.3221C30.6021 63.8707 30.9015 64.3693 31.3089 64.7716C31.7163 65.174 32.2184 65.4673 32.769 65.6243C34.2514 66.0485 35.8339 65.6529 37.321 65.2382C34.8316 58.7956 33.076 52.093 32.0875 45.2573Z" fill="#263238"/>
<path d="M34.7044 70.405C34.7044 70.7577 34.6377 92.14 34.6377 92.14L52.7501 92.7453L53.6558 71.1152L34.7044 70.405Z" fill="#EBEBEB"/>
<path d="M36.5729 68.8081C36.5729 69.2466 34.061 94.8376 34.061 94.8376L53.7273 94.361L57.0352 68.7986L36.5729 68.8081Z" fill="#F5F5F5"/>
<path d="M54.4374 73.9702C54.4374 74.0417 51.0628 74.0942 46.9065 74.0942C42.7501 74.0942 39.3755 74.0417 39.3755 73.9702C39.3755 73.8987 42.7501 73.8463 46.9065 73.8463C51.0628 73.8463 54.4374 73.9035 54.4374 73.9702Z" fill="#263238"/>
<path d="M54.2466 75.6575C54.2466 75.7242 50.8767 75.7814 46.7204 75.7814C42.5641 75.7814 39.1895 75.7242 39.1895 75.6575C39.1895 75.5908 42.5593 75.5336 46.7204 75.5336C50.8815 75.5336 54.2466 75.586 54.2466 75.6575Z" fill="#263238"/>
<path d="M53.913 77.7882C53.913 77.8597 50.5384 77.9122 46.382 77.9122C42.2257 77.9122 38.8511 77.8597 38.8511 77.7882C38.8511 77.7167 42.2257 77.6643 46.382 77.6643C50.5384 77.6643 53.913 77.7215 53.913 77.7882Z" fill="#263238"/>
<path d="M53.5556 79.6995C53.5556 79.7662 50.1809 79.8234 46.0246 79.8234C41.8683 79.8234 38.4937 79.7662 38.4937 79.6995C38.4937 79.6328 41.8683 79.5708 46.0246 79.5708C50.1809 79.5708 53.5556 79.628 53.5556 79.6995Z" fill="#263238"/>
<path d="M53.5556 81.6061C53.5556 81.6728 50.1809 81.73 46.0246 81.73C41.8683 81.73 38.4937 81.6728 38.4937 81.6061C38.4937 81.5394 41.8683 81.4822 46.0246 81.4822C50.1809 81.4822 53.5556 81.5394 53.5556 81.6061Z" fill="#263238"/>
<path d="M53.3745 83.6079C53.3745 83.6794 50.0047 83.7319 45.8436 83.7319C41.6825 83.7319 38.3174 83.6794 38.3174 83.6079C38.3174 83.5364 41.6872 83.484 45.8436 83.484C49.9999 83.484 53.3745 83.5555 53.3745 83.6079Z" fill="#263238"/>
<path d="M53.1934 85.6099C53.1934 85.6814 49.8235 85.7386 45.6672 85.7386C41.5109 85.7386 38.1362 85.6814 38.1362 85.6099C38.1362 85.5384 41.5061 85.486 45.6672 85.486C49.8283 85.486 53.1934 85.5432 53.1934 85.6099Z" fill="#263238"/>
<path d="M53.0122 87.6165C53.0122 87.6832 49.6424 87.7404 45.486 87.7404C41.3297 87.7404 37.9551 87.6832 37.9551 87.6165C37.9551 87.5498 41.3249 87.4926 45.486 87.4926C49.6471 87.4926 53.0122 87.545 53.0122 87.6165Z" fill="#263238"/>
<path d="M52.8359 89.6184C52.8359 89.6852 49.4612 89.7424 45.3049 89.7424C41.1486 89.7424 37.7739 89.6852 37.7739 89.6184C37.7739 89.5517 41.1486 89.4945 45.3049 89.4945C49.4612 89.4945 52.8359 89.5517 52.8359 89.6184Z" fill="#263238"/>
<path d="M52.6548 91.6203C52.6548 91.6918 49.285 91.7442 45.1239 91.7442C40.9628 91.7442 37.5977 91.6918 37.5977 91.6203C37.5977 91.5488 40.9675 91.4963 45.1239 91.4963C49.2802 91.4963 52.6548 91.5535 52.6548 91.6203Z" fill="#263238"/>
<path d="M28.3698 92.1017C28.3698 92.1017 29.9379 88.6413 30.2763 88.4458C30.6148 88.2504 36.2058 87.6117 37.3211 87.5974C38.527 87.5974 40.3859 87.6308 40.6958 88.2218C40.9245 88.6556 40.6958 89.2943 39.7997 89.4277C39.7997 89.4277 41.0485 89.361 40.915 90.1427C40.7816 90.9244 37.9741 92.3591 37.9741 92.3591C37.9741 92.3591 38.4984 92.9501 37.4546 94.0559L36.9779 94.6422C36.9779 94.6422 37.1734 95.6861 36.5871 96.1436C36.0008 96.6012 32.283 97.9024 32.283 97.9024L30.8531 97.4496L29.9427 97.9024C29.9427 97.9024 26.9637 94.9949 28.3698 92.1017Z" fill="#FFBE9D"/>
<path d="M40.2287 89.2753C39.8287 89.4654 39.4102 89.6139 38.9799 89.7185C38.1934 89.9569 37.1019 90.2524 35.8817 90.5193C34.6615 90.7862 33.5461 90.996 32.7358 91.1008C32.3012 91.1874 31.8587 91.2289 31.4155 91.2247C31.8364 91.0868 32.2687 90.9863 32.7072 90.9245C33.508 90.7672 34.6138 90.5479 35.8292 90.2762C37.0447 90.0045 38.1362 89.7424 38.9322 89.5517C39.3555 89.4221 39.7893 89.3296 40.2287 89.2753Z" fill="#EB996E"/>
<path d="M37.8503 92.464C37.0282 92.8949 36.1436 93.1941 35.2287 93.3506C34.3321 93.5858 33.4041 93.6791 32.4785 93.627C32.4785 93.5555 33.6987 93.4316 35.1763 93.1075C36.6539 92.7834 37.8217 92.3973 37.8503 92.464Z" fill="#EB996E"/>
<path d="M36.9255 94.6137C36.4375 95.0573 35.8484 95.3747 35.2096 95.5383C34.5945 95.7782 33.9308 95.8665 33.2744 95.7957C33.2744 95.7242 34.1324 95.6337 35.1333 95.3191C36.1343 95.0045 36.8874 94.5517 36.9255 94.6137Z" fill="#EB996E"/>
<path d="M31.3297 95.9481C31.3297 95.9481 31.039 95.9863 30.6719 95.7289C30.4675 95.5714 30.304 95.3671 30.1953 95.1331C30.0616 94.8445 30.0152 94.523 30.0618 94.2084C30.0772 94.0775 30.054 93.945 29.9951 93.8271C29.9178 93.7172 29.83 93.615 29.733 93.522C29.5551 93.3257 29.442 93.0794 29.4088 92.8166C29.3564 92.3685 29.528 92.1255 29.5471 92.1398C29.5378 92.3564 29.549 92.5734 29.5804 92.788C29.6335 93.0053 29.7438 93.2044 29.8998 93.3647C30.0129 93.4667 30.1151 93.5801 30.2048 93.7031C30.2922 93.8598 30.3288 94.0396 30.3097 94.2179C30.2669 94.4684 30.2882 94.7256 30.3715 94.9656C30.4549 95.2056 30.5976 95.4206 30.7863 95.5907C31.0771 95.8671 31.3297 95.9148 31.3297 95.9481Z" fill="#EB996E"/>
<path d="M32.2832 97.526C32.2832 97.5975 31.8686 97.5832 31.573 97.2161C31.2775 96.8491 31.3538 96.4392 31.4205 96.4583C31.4873 96.4773 31.5301 96.7776 31.7685 97.0589C32.0068 97.3401 32.2832 97.4592 32.2832 97.526Z" fill="#EB996E"/>
</svg>
