<svg width="20" height="21" viewBox="0 0 20 21" fill="none" xmlns="http://www.w3.org/2000/svg">
<rect y="0.110046" width="20" height="20" rx="10" fill="url(#paint0_linear_2085_3111)"/>
<g clip-path="url(#clip0_2085_3111)">
<path d="M13.816 7.00443C13.8183 6.91806 13.8026 6.83216 13.7699 6.75216C13.7373 6.67215 13.6884 6.59979 13.6264 6.53963C13.5654 6.47878 13.4929 6.43067 13.4131 6.39812C13.3333 6.36557 13.2478 6.34923 13.1616 6.35003L6.8144 6.37003C6.72659 6.36696 6.63906 6.38161 6.55703 6.41309C6.47501 6.44457 6.40016 6.49225 6.33695 6.55329C6.27375 6.61432 6.22348 6.68745 6.18915 6.76833C6.15482 6.84921 6.13712 6.93617 6.13712 7.02403C6.13712 7.1119 6.15482 7.19886 6.18915 7.27974C6.22348 7.36062 6.27375 7.43375 6.33695 7.49478C6.40016 7.55582 6.47501 7.6035 6.55703 7.63498C6.63906 7.66646 6.72659 7.68111 6.8144 7.67803L11.5848 7.65883L6.56 12.6844C6.43743 12.8079 6.36864 12.9748 6.36864 13.1488C6.36864 13.3228 6.43743 13.4898 6.56 13.6132C6.6205 13.6739 6.69238 13.7221 6.77152 13.7549C6.85066 13.7878 6.93551 13.8047 7.0212 13.8047C7.10689 13.8047 7.19174 13.7878 7.27088 13.7549C7.35002 13.7221 7.4219 13.6739 7.4824 13.6132L12.5072 8.59003L12.4872 13.354C12.4872 13.5276 12.5561 13.694 12.6789 13.8168C12.8016 13.9395 12.968 14.0084 13.1416 14.0084C13.3152 14.0084 13.4816 13.9395 13.6043 13.8168C13.7271 13.694 13.796 13.5276 13.796 13.354L13.816 7.00443Z" fill="white"/>
</g>
<defs>
<linearGradient id="paint0_linear_2085_3111" x1="2.10734e-07" y1="20.11" x2="20" y2="0.110047" gradientUnits="userSpaceOnUse">
<stop stop-color="#230FBF"/>
<stop offset="1" stop-color="#AC29D0"/>
</linearGradient>
<clipPath id="clip0_2085_3111">
<rect width="8" height="8" fill="white" transform="translate(6 6.11005)"/>
</clipPath>
</defs>
</svg>
