<svg width="47" height="54" viewBox="0 0 47 54" fill="none" xmlns="http://www.w3.org/2000/svg">
<path d="M44.3414 51.6358H7.77382C6.24251 51.6358 4.77391 51.0324 3.69111 49.9583C2.60831 48.8842 2 47.4275 2 45.9086C2 44.3896 2.60831 42.9329 3.69111 41.8588C4.77391 40.7847 6.24251 40.1813 7.77382 40.1813H40.4921C41.513 40.1813 42.4921 39.7791 43.2139 39.063C43.9358 38.347 44.3414 37.3758 44.3414 36.3632V5.81813C44.3414 4.8055 43.9358 3.83435 43.2139 3.11831C42.4921 2.40227 41.513 2 40.4921 2H7.77382C6.26882 1.99947 4.82308 2.58186 3.7446 3.62311C2.66612 4.66435 2.04013 6.08215 2 7.57448V45.7558" stroke="url(#paint0_linear_2148_4018)" stroke-width="3.88764" stroke-linecap="round" stroke-linejoin="round"/>
<path d="M40.4924 40.1816V51.636" stroke="url(#paint1_linear_2148_4018)" stroke-width="3.88764" stroke-linecap="round" stroke-linejoin="round"/>
<path d="M25.1428 31.4673C26.4477 32.0148 27.8944 32.136 29.2733 31.8135C30.6523 31.491 31.892 30.7415 32.8129 29.6735L33.7794 28.7148C34.1999 28.38 34.4736 27.897 34.5433 27.3667C34.6131 26.8365 34.4734 26.3 34.1536 25.8695L31.0357 22.7767C30.6017 22.4595 30.0608 22.321 29.5262 22.3901C28.9916 22.4593 28.5047 22.7308 28.1672 23.1479C27.8298 23.5649 27.3428 23.8364 26.8082 23.9056C26.2736 23.9748 25.7328 23.8362 25.2987 23.519L20.3101 18.5706C19.9903 18.1401 19.8506 17.6036 19.9204 17.0734C19.9901 16.5431 20.2638 16.0601 20.6843 15.7253C21.1047 15.3906 21.3784 14.9076 21.4482 14.3773C21.5179 13.847 21.3782 13.3106 21.0584 12.88L17.9405 9.78733C17.5065 9.47007 16.9656 9.33155 16.431 9.40071C15.8964 9.46988 15.4095 9.74139 15.0721 10.1585L14.1055 11.1172C13.0328 12.0335 12.2801 13.2631 11.9553 14.6298C11.6304 15.9965 11.7501 17.4302 12.2971 18.7253C15.4587 23.9549 19.8706 28.3312 25.1428 31.4673Z" stroke="url(#paint2_linear_2148_4018)" stroke-width="3.88764" stroke-linecap="round" stroke-linejoin="round"/>
<defs>
<linearGradient id="paint0_linear_2148_4018" x1="23.1707" y1="2" x2="23.1707" y2="51.6358" gradientUnits="userSpaceOnUse">
<stop stop-color="#230FBF"/>
<stop offset="1" stop-color="#AC29D0"/>
</linearGradient>
<linearGradient id="paint1_linear_2148_4018" x1="40.9924" y1="40.1816" x2="40.9924" y2="51.636" gradientUnits="userSpaceOnUse">
<stop stop-color="#230FBF"/>
<stop offset="1" stop-color="#AC29D0"/>
</linearGradient>
<linearGradient id="paint2_linear_2148_4018" x1="23.1686" y1="9.3833" x2="23.1686" y2="31.9902" gradientUnits="userSpaceOnUse">
<stop stop-color="#230FBF"/>
<stop offset="1" stop-color="#AC29D0"/>
</linearGradient>
</defs>
</svg>
