<svg width="35" height="35" viewBox="0 0 35 35" fill="none" xmlns="http://www.w3.org/2000/svg">
<rect width="35" height="35" rx="17.5" fill="url(#paint0_linear_2150_4266)"/>
<g clip-path="url(#clip0_2150_4266)">
<path d="M20.25 10.0938V12.1562H19.0234C18.5755 12.1562 18.2734 12.25 18.1172 12.4375C17.9609 12.625 17.8828 12.9062 17.8828 13.2812V14.7578H20.1719L19.8672 17.0703H17.8828V23H15.4922V17.0703H13.5V14.7578H15.4922V13.0547C15.4922 12.0859 15.763 11.3346 16.3047 10.8008C16.8464 10.2669 17.5677 10 18.4688 10C19.2344 10 19.8281 10.0312 20.25 10.0938Z" fill="white"/>
</g>
<defs>
<linearGradient id="paint0_linear_2150_4266" x1="0" y1="17.5" x2="35" y2="17.5" gradientUnits="userSpaceOnUse">
<stop stop-color="#230FBF"/>
<stop offset="1" stop-color="#B42BD1"/>
</linearGradient>
<clipPath id="clip0_2150_4266">
<rect width="8" height="14" fill="white" transform="matrix(1 0 0 -1 13.5 24)"/>
</clipPath>
</defs>
</svg>
