<svg width="35" height="35" viewBox="0 0 35 35" fill="none" xmlns="http://www.w3.org/2000/svg">
<rect width="35" height="35" rx="17.5" fill="url(#paint0_linear_2150_4269)"/>
<path d="M23.3125 13.1875C22.9635 13.6979 22.5417 14.1328 22.0469 14.4922C22.0521 14.5651 22.0547 14.6745 22.0547 14.8203C22.0547 15.4974 21.9557 16.1732 21.7578 16.8477C21.5599 17.5221 21.2591 18.1693 20.8555 18.7891C20.4518 19.4089 19.9714 19.957 19.4141 20.4336C18.8568 20.9102 18.1849 21.2904 17.3984 21.5742C16.612 21.8581 15.7708 22 14.875 22C13.4635 22 12.1719 21.6224 11 20.8672C11.1823 20.888 11.3854 20.8984 11.6094 20.8984C12.7812 20.8984 13.8255 20.5391 14.7422 19.8203C14.1953 19.8099 13.7057 19.6419 13.2734 19.3164C12.8411 18.9909 12.5443 18.5755 12.3828 18.0703C12.5547 18.0964 12.7135 18.1094 12.8594 18.1094C13.0833 18.1094 13.3047 18.0807 13.5234 18.0234C12.9401 17.9036 12.457 17.6133 12.0742 17.1523C11.6914 16.6914 11.5 16.1562 11.5 15.5469V15.5156C11.8542 15.7135 12.2344 15.8203 12.6406 15.8359C12.2969 15.6068 12.0234 15.3073 11.8203 14.9375C11.6172 14.5677 11.5156 14.1667 11.5156 13.7344C11.5156 13.276 11.6302 12.8516 11.8594 12.4609C12.4896 13.237 13.2565 13.8581 14.1602 14.3242C15.0638 14.7904 16.0312 15.0495 17.0625 15.1016C17.0208 14.9036 17 14.7109 17 14.5234C17 13.8255 17.2461 13.2305 17.7383 12.7383C18.2305 12.2461 18.8255 12 19.5234 12C20.2526 12 20.8672 12.2656 21.3672 12.7969C21.9349 12.6875 22.4688 12.4844 22.9688 12.1875C22.776 12.7865 22.4062 13.25 21.8594 13.5781C22.3438 13.526 22.8281 13.3958 23.3125 13.1875Z" fill="white"/>
<defs>
<linearGradient id="paint0_linear_2150_4269" x1="0" y1="17.5" x2="35" y2="17.5" gradientUnits="userSpaceOnUse">
<stop stop-color="#230FBF"/>
<stop offset="1" stop-color="#B42BD1"/>
</linearGradient>
</defs>
</svg>
