<svg width="35" height="35" viewBox="0 0 35 35" fill="none" xmlns="http://www.w3.org/2000/svg">
<rect width="35" height="35" rx="17.5" fill="url(#paint0_linear_2150_4272)"/>
<g clip-path="url(#clip0_2150_4272)">
<path d="M14.2266 14.8828V22.625H11.6484V14.8828H14.2266ZM14.3906 12.4922C14.3958 12.8724 14.2643 13.1901 13.9961 13.4453C13.7279 13.7005 13.375 13.8281 12.9375 13.8281H12.9219C12.4948 13.8281 12.151 13.7005 11.8906 13.4453C11.6302 13.1901 11.5 12.8724 11.5 12.4922C11.5 12.1068 11.6341 11.7878 11.9023 11.5352C12.1706 11.2826 12.5208 11.1562 12.9531 11.1562C13.3854 11.1562 13.7318 11.2826 13.9922 11.5352C14.2526 11.7878 14.3854 12.1068 14.3906 12.4922ZM23.5 18.1875V22.625H20.9297V18.4844C20.9297 17.9375 20.8242 17.5091 20.6133 17.1992C20.4023 16.8893 20.0729 16.7344 19.625 16.7344C19.2969 16.7344 19.0221 16.8242 18.8008 17.0039C18.5794 17.1836 18.4141 17.4062 18.3047 17.6719C18.2474 17.8281 18.2188 18.0391 18.2188 18.3047V22.625H15.6484C15.6589 20.5469 15.6641 18.862 15.6641 17.5703C15.6641 16.2786 15.6615 15.5078 15.6562 15.2578L15.6484 14.8828H18.2188V16.0078H18.2031C18.3073 15.8411 18.4141 15.6953 18.5234 15.5703C18.6328 15.4453 18.7799 15.3099 18.9648 15.1641C19.1497 15.0182 19.3763 14.9049 19.6445 14.8242C19.9128 14.7435 20.2109 14.7031 20.5391 14.7031C21.4297 14.7031 22.1458 14.9987 22.6875 15.5898C23.2292 16.181 23.5 17.0469 23.5 18.1875Z" fill="white"/>
</g>
<defs>
<linearGradient id="paint0_linear_2150_4272" x1="0" y1="17.5" x2="35" y2="17.5" gradientUnits="userSpaceOnUse">
<stop stop-color="#230FBF"/>
<stop offset="1" stop-color="#B42BD1"/>
</linearGradient>
<clipPath id="clip0_2150_4272">
<rect width="12" height="14" fill="white" transform="matrix(1 0 0 -1 11.5 24)"/>
</clipPath>
</defs>
</svg>
