<svg width="179" height="75" viewBox="0 0 179 75" fill="none" xmlns="http://www.w3.org/2000/svg">
<path d="M8.51408 31.3123C11.6975 31.3123 14.4784 33.0717 15.9396 35.6662H25.4675C26.5336 35.6662 27.5401 36.0837 28.2931 36.8367L36.6729 45.2239C37.4259 45.9769 37.8434 46.9759 37.8434 48.0495V53.0744C40.5273 54.5058 42.3613 57.3388 42.3613 60.5894C42.3613 65.2862 38.5442 69.1034 33.8473 69.1034C29.1505 69.1034 25.3333 65.2862 25.3333 60.5894C25.3333 57.3314 27.1673 54.5058 29.8513 53.0669V49.7046L28.636 48.4819C28.1142 47.96 28.1142 47.1176 28.636 46.6032C29.1579 46.0813 30.0004 46.0813 30.5148 46.6032L32.1251 48.2135C32.3786 48.4595 32.5203 48.795 32.5203 49.1529V52.1798C32.9527 52.1127 33.3926 52.0754 33.8473 52.0754C34.3021 52.0754 34.7494 52.1127 35.1818 52.1798V48.0495C35.1818 47.6916 35.0402 47.3561 34.7867 47.1101L26.4069 38.7229C26.1534 38.4694 25.8179 38.3352 25.4675 38.3352H16.8939C16.9833 38.8198 17.0281 39.3193 17.0281 39.8263C17.0281 40.2214 16.9983 40.6165 16.9461 40.9967H24.3641C24.7145 40.9967 25.0575 41.1384 25.3035 41.3844L26.7797 42.8606C27.2941 43.375 27.2941 44.2249 26.7722 44.7393C26.5113 45.0003 26.1758 45.127 25.8328 45.127C25.4899 45.127 25.1544 45.0003 24.8935 44.7393L23.8124 43.6583H16.1185C14.7095 46.4317 11.8317 48.3403 8.51408 48.3403C3.81722 48.3403 8.7738e-05 44.5231 8.7738e-05 39.8263C8.7738e-05 35.1294 3.81722 31.3123 8.51408 31.3123ZM33.8473 54.7369C30.6192 54.7369 27.9949 57.3612 27.9949 60.5894C27.9949 63.8175 30.6192 66.4418 33.8473 66.4418C37.0755 66.4418 39.6998 63.8175 39.6998 60.5894C39.6998 57.3612 37.0755 54.7369 33.8473 54.7369ZM8.51408 45.6787C11.7422 45.6787 14.3665 43.0544 14.3665 39.8263C14.3665 36.5981 11.7422 33.9738 8.51408 33.9738C5.28592 33.9738 2.66164 36.5981 2.66164 39.8263C2.66164 43.0544 5.28592 45.6787 8.51408 45.6787Z" fill="#75DBCC"/>
<path fill-rule="evenodd" clip-rule="evenodd" d="M33.1913 21.8292C33.1913 17.1324 29.3741 13.3152 24.6773 13.3152C19.9804 13.3152 16.1633 17.1324 16.1633 21.8292C16.1633 26.5261 19.9804 30.3432 24.6773 30.3432C26.2333 30.3432 27.8541 30.6568 28.9546 31.7568L40.7957 43.5914C41.5338 44.3369 42.5626 44.7619 43.6213 44.7619H47.3494C48.73 44.7619 49.8763 45.7655 50.0984 47.0831V57.6659H58.4494V43.119H64.3757L72.5113 57.6659H81.886L72.7268 41.6643C74.846 40.6945 76.5342 39.2578 77.7913 37.3541C79.0485 35.4146 79.677 33.0799 79.677 30.3501C79.677 27.5485 79.0664 25.1958 77.8452 23.2921C76.624 21.3885 74.9358 19.9518 72.7807 18.982C70.6615 18.0122 68.2191 17.5273 65.4534 17.5273H50.0984V23.8172C49.998 24.0074 49.7258 24.0719 49.5525 23.8986L44.4969 18.843C44.0938 18.4399 43.8673 17.8931 43.8673 17.323C43.8673 16.5308 44.3171 15.8202 44.9516 15.3459C47.033 13.7902 48.3852 11.3115 48.3852 8.514C48.3852 3.82459 44.5681 0 39.8712 0C35.1744 0 31.3572 3.82459 31.3572 8.514C31.3572 10.3985 31.9709 12.1384 33.0091 13.5489C34.4076 15.4487 35.8826 17.5094 35.8826 19.8685C35.8826 20.9346 36.2927 21.9336 37.0457 22.6941L49.9319 35.5803C50.0074 35.6558 50.0639 35.7468 50.0984 35.8458V36.3069C50.0029 36.5807 49.7425 36.7772 49.4361 36.7772H46.7001C45.7885 36.7772 44.9142 36.4151 44.2696 35.7705L34.6057 26.1065C33.5068 25.0076 33.1913 23.3833 33.1913 21.8292ZM50.0984 40.4489C49.9549 39.8688 49.4309 39.4388 48.8065 39.4388H44.7247C44.3668 39.4388 44.0313 39.2971 43.7778 39.0511L32.5019 27.7752C32.0072 27.2805 31.1894 27.3519 30.6947 27.8466C30.1999 28.3413 30.1285 29.1592 30.6232 29.6539L42.6819 41.7126C42.9279 41.9587 43.2709 42.1003 43.6213 42.1003H48.8065C49.4309 42.1003 49.9549 41.6703 50.0984 41.0902V40.4489ZM50.0984 28.4875V29.1355C49.8638 30.0945 48.622 30.5044 47.8655 29.7474L38.9319 20.8079C38.6784 20.5618 38.5442 20.2263 38.5442 19.8685V18.2564C38.5442 17.5601 39.175 17.028 39.8712 17.028C40.5714 17.028 41.2058 17.5637 41.2058 18.2638V18.7651C41.2058 19.1229 41.3474 19.4584 41.5934 19.7119L49.7475 27.866C49.9203 28.0388 50.0407 28.2542 50.0984 28.4875ZM39.8712 2.66156C43.0994 2.66156 45.7237 5.28584 45.7237 8.514C45.7237 11.7422 43.0994 14.3664 39.8712 14.3664C36.6431 14.3664 34.0188 11.7422 34.0188 8.514C34.0188 5.28584 36.6431 2.66156 39.8712 2.66156ZM30.5297 21.8292C30.5297 25.0574 27.9054 27.6817 24.6773 27.6817C21.4491 27.6817 18.8248 25.0574 18.8248 21.8292C18.8248 18.6011 21.4491 15.9768 24.6773 15.9768C27.9054 15.9768 30.5297 18.6011 30.5297 21.8292ZM65.5073 35.8456H58.4494V24.8007H65.5073C66.6926 24.8007 67.7163 25.0342 68.5783 25.5011C69.4403 25.9681 70.1048 26.6146 70.5718 27.4407C71.0746 28.2668 71.326 29.2366 71.326 30.3501C71.326 31.4276 71.0746 32.3795 70.5718 33.2056C70.1048 34.0317 69.4403 34.6782 68.5783 35.1452C67.7163 35.6121 66.6926 35.8456 65.5073 35.8456ZM96.8096 17.5273V57.6659H105.161V43.119H112.219C114.948 43.119 117.373 42.6341 119.492 41.6643C121.647 40.6586 123.335 39.2039 124.556 37.3003C125.814 35.3966 126.442 33.0799 126.442 30.3501C126.442 27.5485 125.832 25.1958 124.61 23.2921C123.389 21.3885 121.701 19.9518 119.546 18.982C117.427 18.0122 114.984 17.5273 112.219 17.5273H96.8096ZM112.272 35.8456H105.161V24.8007H112.272C113.458 24.8007 114.481 25.0342 115.343 25.5011C116.205 25.9681 116.87 26.6146 117.337 27.4407C117.84 28.2668 118.091 29.2366 118.091 30.3501C118.091 31.4276 117.84 32.3795 117.337 33.2056C116.87 34.0317 116.205 34.6782 115.343 35.1452C114.481 35.6121 113.458 35.8456 112.272 35.8456ZM149.978 17.5273L136.401 57.6659H145.452L148.146 49.4765H162.855L165.549 57.6659H174.654L161.077 17.5273H149.978ZM160.538 42.2031H150.463L155.523 26.7165L160.538 42.2031Z" fill="url(#paint0_linear_2085_3049)"/>
<path d="M50.5557 67.8772V60.8966H53.02C53.4822 60.8966 53.8882 60.984 54.2381 61.1589C54.5879 61.3338 54.8596 61.5837 55.0532 61.9085C55.2531 62.2333 55.3531 62.6144 55.3531 63.0517C55.3531 63.5451 55.2282 63.9637 54.9783 64.3072C54.7284 64.6508 54.3911 64.8975 53.9663 65.0475L55.5873 67.8772H54.5192L52.8138 64.8507L53.4229 65.2068H51.4739V67.8772H50.5557ZM51.4739 64.3635H53.0481C53.3229 64.3635 53.5634 64.3104 53.7696 64.2042C53.9757 64.098 54.135 63.9449 54.2474 63.745C54.3661 63.5451 54.4255 63.314 54.4255 63.0517C54.4255 62.7831 54.3661 62.5519 54.2474 62.3583C54.135 62.1584 53.9757 62.0053 53.7696 61.8992C53.5634 61.793 53.3229 61.7399 53.0481 61.7399H51.4739V64.3635ZM58.6435 67.9896C58.1562 67.9896 57.7159 67.8772 57.3223 67.6523C56.9288 67.4212 56.6164 67.1057 56.3853 66.706C56.1542 66.3062 56.0386 65.8533 56.0386 65.3473C56.0386 64.8413 56.1511 64.3916 56.376 63.998C56.6071 63.6045 56.9194 63.2922 57.3129 63.061C57.7065 62.8299 58.15 62.7143 58.6435 62.7143C59.1307 62.7143 59.5711 62.8299 59.9647 63.061C60.3582 63.2859 60.6674 63.5951 60.8923 63.9887C61.1234 64.3822 61.239 64.8351 61.239 65.3473C61.239 65.8595 61.1203 66.3155 60.8829 66.7153C60.6455 67.1089 60.3301 67.4212 59.9365 67.6523C59.5493 67.8772 59.1182 67.9896 58.6435 67.9896ZM58.6435 67.1463C58.9558 67.1463 59.2369 67.0683 59.4868 66.9121C59.7429 66.7559 59.9428 66.5404 60.0865 66.2656C60.2364 65.9907 60.3113 65.6846 60.3113 65.3473C60.3113 65.0037 60.2364 64.7008 60.0865 64.4384C59.9428 64.1698 59.7429 63.9574 59.4868 63.8013C59.2369 63.6388 58.9558 63.5576 58.6435 63.5576C58.3249 63.5576 58.0376 63.6388 57.7814 63.8013C57.5316 63.9574 57.3317 64.1698 57.1818 64.4384C57.0319 64.7008 56.9569 65.0037 56.9569 65.3473C56.9569 65.6846 57.0319 65.9907 57.1818 66.2656C57.3317 66.5404 57.5316 66.7559 57.7814 66.9121C58.0376 67.0683 58.3249 67.1463 58.6435 67.1463ZM64.9897 67.9896C64.5837 67.9896 64.212 67.8991 63.8747 67.7179C63.5436 67.5368 63.2875 67.2806 63.1064 66.9496L63.2282 66.7997V67.8772H62.3755V60.7841H63.2469V63.9137L63.1157 63.6982C63.3031 63.3983 63.5593 63.161 63.8841 62.9861C64.2089 62.8049 64.5806 62.7143 64.9991 62.7143C65.4739 62.7143 65.8986 62.8299 66.2734 63.061C66.6545 63.2922 66.9543 63.6076 67.1729 64.0074C67.3916 64.4009 67.5009 64.8507 67.5009 65.3567C67.5009 65.8502 67.3916 66.2968 67.1729 66.6966C66.9543 67.0964 66.6545 67.4118 66.2734 67.6429C65.8986 67.8741 65.4707 67.9896 64.9897 67.9896ZM64.9241 67.1463C65.2427 67.1463 65.527 67.0683 65.7768 66.9121C66.0267 66.7559 66.2203 66.5435 66.3578 66.2749C66.5014 66.0001 66.5733 65.694 66.5733 65.3567C66.5733 65.0069 66.5014 64.7008 66.3578 64.4384C66.2203 64.1698 66.0267 63.9574 65.7768 63.8013C65.527 63.6388 65.2427 63.5576 64.9241 63.5576C64.6056 63.5576 64.3182 63.6357 64.0621 63.7919C63.8122 63.9481 63.6124 64.1636 63.4624 64.4384C63.3188 64.707 63.2469 65.0131 63.2469 65.3567C63.2469 65.694 63.3188 66.0001 63.4624 66.2749C63.6124 66.5435 63.8122 66.7559 64.0621 66.9121C64.3182 67.0683 64.6056 67.1463 64.9241 67.1463ZM71.0422 67.9896C70.555 67.9896 70.1146 67.8772 69.7211 67.6523C69.3275 67.4212 69.0152 67.1057 68.7841 66.706C68.5529 66.3062 68.4374 65.8533 68.4374 65.3473C68.4374 64.8413 68.5498 64.3916 68.7747 63.998C69.0058 63.6045 69.3182 63.2922 69.7117 63.061C70.1052 62.8299 70.5487 62.7143 71.0422 62.7143C71.5295 62.7143 71.9699 62.8299 72.3634 63.061C72.7569 63.2859 73.0661 63.5951 73.291 63.9887C73.5221 64.3822 73.6377 64.8351 73.6377 65.3473C73.6377 65.8595 73.519 66.3155 73.2817 66.7153C73.0443 67.1089 72.7288 67.4212 72.3353 67.6523C71.948 67.8772 71.517 67.9896 71.0422 67.9896ZM71.0422 67.1463C71.3546 67.1463 71.6357 67.0683 71.8855 66.9121C72.1416 66.7559 72.3415 66.5404 72.4852 66.2656C72.6351 65.9907 72.7101 65.6846 72.7101 65.3473C72.7101 65.0037 72.6351 64.7008 72.4852 64.4384C72.3415 64.1698 72.1416 63.9574 71.8855 63.8013C71.6357 63.6388 71.3546 63.5576 71.0422 63.5576C70.7236 63.5576 70.4363 63.6388 70.1802 63.8013C69.9303 63.9574 69.7304 64.1698 69.5805 64.4384C69.4306 64.7008 69.3556 65.0037 69.3556 65.3473C69.3556 65.6846 69.4306 65.9907 69.5805 66.2656C69.7304 66.5404 69.9303 66.7559 70.1802 66.9121C70.4363 67.0683 70.7236 67.1463 71.0422 67.1463ZM76.7348 67.9334C76.2413 67.9334 75.8602 67.7929 75.5916 67.5118C75.3293 67.2307 75.1981 66.834 75.1981 66.3218V63.6607H74.2798V62.8268H74.4672C74.6921 62.8268 74.8702 62.7581 75.0013 62.6206C75.1325 62.4832 75.1981 62.3021 75.1981 62.0772V61.6649H76.0695V62.8268H77.2033V63.6607H76.0695V66.2937C76.0695 66.4623 76.0945 66.6091 76.1445 66.7341C76.2007 66.859 76.2913 66.9589 76.4162 67.0339C76.5411 67.1026 76.7067 67.137 76.9128 67.137C76.9565 67.137 77.0096 67.1338 77.0721 67.1276C77.1408 67.1214 77.2033 67.1151 77.2595 67.1089V67.8772C77.1783 67.8959 77.0877 67.9084 76.9878 67.9147C76.8878 67.9272 76.8035 67.9334 76.7348 67.9334ZM78.3978 67.8772V62.8268H79.2692V67.8772H78.3978ZM78.3978 62.021V60.8966H79.2692V62.021H78.3978ZM82.9638 67.9896C82.4704 67.9896 82.03 67.8741 81.6427 67.6429C81.2616 67.4118 80.9618 67.0964 80.7432 66.6966C80.5245 66.2968 80.4152 65.847 80.4152 65.3473C80.4152 64.8413 80.5245 64.3916 80.7432 63.998C80.9618 63.6045 81.2616 63.2922 81.6427 63.061C82.03 62.8299 82.4704 62.7143 82.9638 62.7143C83.2949 62.7143 83.6041 62.7737 83.8915 62.8924C84.1788 63.0111 84.4318 63.1703 84.6504 63.3702C84.8691 63.5701 85.0284 63.8044 85.1283 64.073L84.3506 64.4478C84.2319 64.1854 84.0508 63.973 83.8071 63.8106C83.5635 63.642 83.2824 63.5576 82.9638 63.5576C82.6578 63.5576 82.3798 63.6357 82.1299 63.7919C81.8863 63.9481 81.6926 64.1604 81.549 64.429C81.4053 64.6977 81.3335 65.0069 81.3335 65.3567C81.3335 65.694 81.4053 66.0001 81.549 66.2749C81.6926 66.5435 81.8863 66.7559 82.1299 66.9121C82.3798 67.0683 82.6578 67.1463 82.9638 67.1463C83.2824 67.1463 83.5635 67.0651 83.8071 66.9027C84.0508 66.7341 84.2319 66.5123 84.3506 66.2375L85.1283 66.631C85.0284 66.8934 84.8691 67.1276 84.6504 67.3337C84.4318 67.5336 84.1788 67.6929 83.8915 67.8116C83.6041 67.9303 83.2949 67.9896 82.9638 67.9896ZM87.9898 67.8772V60.8966H90.4541C90.9164 60.8966 91.3224 60.984 91.6722 61.1589C92.022 61.3338 92.2937 61.5837 92.4874 61.9085C92.6873 62.2333 92.7872 62.6144 92.7872 63.0517C92.7872 63.4889 92.6873 63.87 92.4874 64.1948C92.2937 64.5134 92.022 64.7632 91.6722 64.9444C91.3286 65.1193 90.9226 65.2068 90.4541 65.2068H88.9081V67.8772H87.9898ZM88.9081 64.3635H90.4822C90.7633 64.3635 91.0069 64.3104 91.2131 64.2042C91.4192 64.098 91.5785 63.9449 91.6909 63.745C91.8034 63.5451 91.8596 63.314 91.8596 63.0517C91.8596 62.7831 91.8034 62.5519 91.6909 62.3583C91.5785 62.1584 91.4192 62.0053 91.2131 61.8992C91.0069 61.793 90.7633 61.7399 90.4822 61.7399H88.9081V64.3635ZM93.926 67.8772V62.8268H94.7786V63.7544L94.6849 63.6232C94.8036 63.3359 94.9848 63.1235 95.2284 62.9861C95.472 62.8424 95.7687 62.7706 96.1185 62.7706H96.4278V63.5951H95.9874C95.6313 63.5951 95.344 63.7076 95.1253 63.9324C94.9067 64.1511 94.7974 64.4634 94.7974 64.8694V67.8772H93.926ZM99.6005 67.9896C99.1133 67.9896 98.6729 67.8772 98.2793 67.6523C97.8858 67.4212 97.5735 67.1057 97.3424 66.706C97.1112 66.3062 96.9957 65.8533 96.9957 65.3473C96.9957 64.8413 97.1081 64.3916 97.333 63.998C97.5641 63.6045 97.8764 63.2922 98.27 63.061C98.6635 62.8299 99.107 62.7143 99.6005 62.7143C100.088 62.7143 100.528 62.8299 100.922 63.061C101.315 63.2859 101.624 63.5951 101.849 63.9887C102.08 64.3822 102.196 64.8351 102.196 65.3473C102.196 65.8595 102.077 66.3155 101.84 66.7153C101.603 67.1089 101.287 67.4212 100.894 67.6523C100.506 67.8772 100.075 67.9896 99.6005 67.9896ZM99.6005 67.1463C99.9128 67.1463 100.194 67.0683 100.444 66.9121C100.7 66.7559 100.9 66.5404 101.043 66.2656C101.193 65.9907 101.268 65.6846 101.268 65.3473C101.268 65.0037 101.193 64.7008 101.043 64.4384C100.9 64.1698 100.7 63.9574 100.444 63.8013C100.194 63.6388 99.9128 63.5576 99.6005 63.5576C99.2819 63.5576 98.9946 63.6388 98.7385 63.8013C98.4886 63.9574 98.2887 64.1698 98.1388 64.4384C97.9889 64.7008 97.9139 65.0037 97.9139 65.3473C97.9139 65.6846 97.9889 65.9907 98.1388 66.2656C98.2887 66.5404 98.4886 66.7559 98.7385 66.9121C98.9946 67.0683 99.2819 67.1463 99.6005 67.1463ZM105.675 67.9896C105.182 67.9896 104.741 67.8741 104.354 67.6429C103.973 67.4118 103.673 67.0964 103.454 66.6966C103.236 66.2968 103.126 65.847 103.126 65.3473C103.126 64.8413 103.236 64.3916 103.454 63.998C103.673 63.6045 103.973 63.2922 104.354 63.061C104.741 62.8299 105.182 62.7143 105.675 62.7143C106.006 62.7143 106.315 62.7737 106.603 62.8924C106.89 63.0111 107.143 63.1703 107.362 63.3702C107.58 63.5701 107.74 63.8044 107.84 64.073L107.062 64.4478C106.943 64.1854 106.762 63.973 106.518 63.8106C106.275 63.642 105.994 63.5576 105.675 63.5576C105.369 63.5576 105.091 63.6357 104.841 63.7919C104.597 63.9481 104.404 64.1604 104.26 64.429C104.117 64.6977 104.045 65.0069 104.045 65.3567C104.045 65.694 104.117 66.0001 104.26 66.2749C104.404 66.5435 104.597 66.7559 104.841 66.9121C105.091 67.0683 105.369 67.1463 105.675 67.1463C105.994 67.1463 106.275 67.0651 106.518 66.9027C106.762 66.7341 106.943 66.5123 107.062 66.2375L107.84 66.631C107.74 66.8934 107.58 67.1276 107.362 67.3337C107.143 67.5336 106.89 67.6929 106.603 67.8116C106.315 67.9303 106.006 67.9896 105.675 67.9896ZM111.302 67.9896C110.815 67.9896 110.381 67.8741 110 67.6429C109.619 67.4118 109.319 67.0964 109.1 66.6966C108.881 66.2905 108.772 65.8377 108.772 65.3379C108.772 64.832 108.878 64.3822 109.091 63.9887C109.309 63.5951 109.603 63.2859 109.972 63.061C110.346 62.8299 110.765 62.7143 111.227 62.7143C111.602 62.7143 111.933 62.7831 112.22 62.9205C112.514 63.0517 112.761 63.2328 112.961 63.4639C113.167 63.6888 113.323 63.9481 113.429 64.2416C113.541 64.529 113.598 64.8288 113.598 65.1412C113.598 65.2099 113.591 65.288 113.579 65.3754C113.573 65.4566 113.563 65.5347 113.551 65.6097H109.409V64.8601H113.045L112.633 65.1974C112.689 64.8726 112.658 64.5821 112.539 64.326C112.42 64.0699 112.245 63.8668 112.014 63.7169C111.783 63.567 111.521 63.492 111.227 63.492C110.934 63.492 110.665 63.567 110.421 63.7169C110.178 63.8668 109.987 64.0824 109.85 64.3635C109.719 64.6383 109.665 64.9663 109.69 65.3473C109.665 65.7159 109.722 66.0407 109.859 66.3218C110.003 66.5966 110.203 66.8121 110.459 66.9683C110.721 67.1182 111.005 67.1932 111.311 67.1932C111.649 67.1932 111.933 67.1151 112.164 66.9589C112.395 66.8028 112.583 66.6029 112.726 66.3593L113.457 66.7341C113.357 66.9652 113.201 67.1776 112.989 67.3712C112.783 67.5586 112.536 67.7085 112.248 67.821C111.967 67.9334 111.652 67.9896 111.302 67.9896ZM116.542 67.9896C116.036 67.9896 115.596 67.8647 115.221 67.6148C114.846 67.365 114.581 67.0277 114.425 66.6029L115.118 66.2656C115.262 66.5654 115.459 66.8028 115.708 66.9777C115.958 67.1526 116.236 67.24 116.542 67.24C116.817 67.24 117.045 67.1744 117.226 67.0433C117.407 66.9121 117.498 66.7403 117.498 66.5279C117.498 66.378 117.454 66.2593 117.367 66.1719C117.286 66.0782 117.186 66.0063 117.067 65.9564C116.948 65.9001 116.839 65.8595 116.739 65.8345L115.98 65.619C115.524 65.4879 115.19 65.3005 114.978 65.0568C114.771 64.8132 114.668 64.529 114.668 64.2042C114.668 63.9043 114.743 63.6451 114.893 63.4265C115.049 63.2016 115.259 63.0267 115.521 62.9017C115.79 62.7768 116.089 62.7143 116.42 62.7143C116.864 62.7143 117.261 62.8268 117.61 63.0517C117.967 63.2765 118.22 63.592 118.369 63.998L117.657 64.326C117.545 64.0636 117.376 63.8575 117.151 63.7076C116.926 63.5514 116.673 63.4733 116.392 63.4733C116.136 63.4733 115.933 63.5389 115.783 63.6701C115.633 63.795 115.558 63.9543 115.558 64.1479C115.558 64.2916 115.596 64.4103 115.671 64.504C115.746 64.5915 115.836 64.6602 115.943 64.7101C116.049 64.7539 116.152 64.7914 116.252 64.8226L117.076 65.0662C117.489 65.1849 117.807 65.3692 118.032 65.619C118.263 65.8689 118.379 66.1687 118.379 66.5186C118.379 66.7997 118.301 67.0526 118.145 67.2775C117.988 67.5024 117.773 67.6773 117.498 67.8022C117.223 67.9272 116.905 67.9896 116.542 67.9896ZM121.328 67.9896C120.822 67.9896 120.382 67.8647 120.007 67.6148C119.632 67.365 119.366 67.0277 119.21 66.6029L119.904 66.2656C120.047 66.5654 120.244 66.8028 120.494 66.9777C120.744 67.1526 121.022 67.24 121.328 67.24C121.603 67.24 121.831 67.1744 122.012 67.0433C122.193 66.9121 122.284 66.7403 122.284 66.5279C122.284 66.378 122.24 66.2593 122.153 66.1719C122.071 66.0782 121.971 66.0063 121.853 65.9564C121.734 65.9001 121.625 65.8595 121.525 65.8345L120.766 65.619C120.31 65.4879 119.976 65.3005 119.763 65.0568C119.557 64.8132 119.454 64.529 119.454 64.2042C119.454 63.9043 119.529 63.6451 119.679 63.4265C119.835 63.2016 120.044 63.0267 120.307 62.9017C120.575 62.7768 120.875 62.7143 121.206 62.7143C121.65 62.7143 122.046 62.8268 122.396 63.0517C122.752 63.2765 123.005 63.592 123.155 63.998L122.443 64.326C122.331 64.0636 122.162 63.8575 121.937 63.7076C121.712 63.5514 121.459 63.4733 121.178 63.4733C120.922 63.4733 120.719 63.5389 120.569 63.6701C120.419 63.795 120.344 63.9543 120.344 64.1479C120.344 64.2916 120.382 64.4103 120.457 64.504C120.531 64.5915 120.622 64.6602 120.728 64.7101C120.834 64.7539 120.938 64.7914 121.037 64.8226L121.862 65.0662C122.274 65.1849 122.593 65.3692 122.818 65.619C123.049 65.8689 123.164 66.1687 123.164 66.5186C123.164 66.7997 123.086 67.0526 122.93 67.2775C122.774 67.5024 122.559 67.6773 122.284 67.8022C122.009 67.9272 121.69 67.9896 121.328 67.9896ZM125.353 67.8772L127.855 60.8966H128.942L131.444 67.8772H130.46L129.888 66.2375H126.909L126.337 67.8772H125.353ZM127.199 65.3942H129.598L128.267 61.5618H128.53L127.199 65.3942ZM133.918 67.9896C133.556 67.9896 133.228 67.9053 132.935 67.7366C132.647 67.568 132.422 67.3337 132.26 67.0339C132.104 66.7278 132.026 66.378 132.026 65.9845V62.8268H132.897V65.8908C132.897 66.1406 132.947 66.3593 133.047 66.5467C133.153 66.7341 133.297 66.8809 133.478 66.987C133.665 67.0932 133.878 67.1463 134.115 67.1463C134.353 67.1463 134.562 67.0932 134.743 66.987C134.93 66.8809 135.074 66.7278 135.174 66.5279C135.28 66.328 135.333 66.0907 135.333 65.8158V62.8268H136.214V67.8772H135.361V66.8934L135.502 66.9777C135.383 67.2963 135.18 67.5461 134.893 67.7273C134.612 67.9022 134.287 67.9896 133.918 67.9896ZM139.616 67.9334C139.123 67.9334 138.742 67.7929 138.473 67.5118C138.211 67.2307 138.079 66.834 138.079 66.3218V63.6607H137.161V62.8268H137.349C137.573 62.8268 137.751 62.7581 137.883 62.6206C138.014 62.4832 138.079 62.3021 138.079 62.0772V61.6649H138.951V62.8268H140.085V63.6607H138.951V66.2937C138.951 66.4623 138.976 66.6091 139.026 66.7341C139.082 66.859 139.173 66.9589 139.298 67.0339C139.422 67.1026 139.588 67.137 139.794 67.137C139.838 67.137 139.891 67.1338 139.953 67.1276C140.022 67.1214 140.085 67.1151 140.141 67.1089V67.8772C140.06 67.8959 139.969 67.9084 139.869 67.9147C139.769 67.9272 139.685 67.9334 139.616 67.9334ZM143.541 67.9896C143.053 67.9896 142.613 67.8772 142.219 67.6523C141.826 67.4212 141.514 67.1057 141.282 66.706C141.051 66.3062 140.936 65.8533 140.936 65.3473C140.936 64.8413 141.048 64.3916 141.273 63.998C141.504 63.6045 141.816 63.2922 142.21 63.061C142.604 62.8299 143.047 62.7143 143.541 62.7143C144.028 62.7143 144.468 62.8299 144.862 63.061C145.255 63.2859 145.564 63.5951 145.789 63.9887C146.02 64.3822 146.136 64.8351 146.136 65.3473C146.136 65.8595 146.017 66.3155 145.78 66.7153C145.543 67.1089 145.227 67.4212 144.834 67.6523C144.446 67.8772 144.015 67.9896 143.541 67.9896ZM143.541 67.1463C143.853 67.1463 144.134 67.0683 144.384 66.9121C144.64 66.7559 144.84 66.5404 144.984 66.2656C145.133 65.9907 145.208 65.6846 145.208 65.3473C145.208 65.0037 145.133 64.7008 144.984 64.4384C144.84 64.1698 144.64 63.9574 144.384 63.8013C144.134 63.6388 143.853 63.5576 143.541 63.5576C143.222 63.5576 142.935 63.6388 142.679 63.8013C142.429 63.9574 142.229 64.1698 142.079 64.4384C141.929 64.7008 141.854 65.0037 141.854 65.3473C141.854 65.6846 141.929 65.9907 142.079 66.2656C142.229 66.5404 142.429 66.7559 142.679 66.9121C142.935 67.0683 143.222 67.1463 143.541 67.1463ZM147.273 67.8772V62.8268H148.125V63.8575L148.003 63.6982C148.128 63.3796 148.328 63.136 148.603 62.9673C148.878 62.7987 149.187 62.7143 149.531 62.7143C149.924 62.7143 150.277 62.8237 150.59 63.0423C150.908 63.2609 151.127 63.5483 151.245 63.9043L151.002 63.9137C151.133 63.5202 151.355 63.2234 151.667 63.0236C151.979 62.8174 152.326 62.7143 152.707 62.7143C153.057 62.7143 153.372 62.7955 153.654 62.958C153.941 63.1204 154.169 63.3453 154.338 63.6326C154.506 63.9199 154.591 64.2448 154.591 64.6071V67.8772H153.71V64.8882C153.71 64.6071 153.66 64.3697 153.56 64.1761C153.46 63.9824 153.322 63.8325 153.148 63.7263C152.979 63.6139 152.779 63.5576 152.548 63.5576C152.323 63.5576 152.12 63.6139 151.939 63.7263C151.764 63.8325 151.623 63.9855 151.517 64.1854C151.417 64.3791 151.367 64.6133 151.367 64.8882V67.8772H150.487V64.8882C150.487 64.6071 150.437 64.3697 150.337 64.1761C150.237 63.9824 150.099 63.8325 149.924 63.7263C149.756 63.6139 149.556 63.5576 149.325 63.5576C149.1 63.5576 148.897 63.6139 148.716 63.7263C148.541 63.8325 148.4 63.9855 148.294 64.1854C148.194 64.3791 148.144 64.6133 148.144 64.8882V67.8772H147.273ZM157.309 67.9896C156.978 67.9896 156.684 67.9303 156.428 67.8116C156.178 67.6867 155.981 67.518 155.838 67.3056C155.694 67.087 155.622 66.8371 155.622 66.556C155.622 66.2874 155.678 66.0469 155.791 65.8345C155.909 65.6159 156.091 65.4316 156.334 65.2817C156.584 65.1318 156.896 65.0256 157.271 64.9631L159.145 64.6539V65.3848L157.468 65.6659C157.143 65.7221 156.906 65.8252 156.756 65.9751C156.612 66.125 156.54 66.3093 156.54 66.5279C156.54 66.7341 156.622 66.9058 156.784 67.0433C156.953 67.1807 157.162 67.2494 157.412 67.2494C157.73 67.2494 158.005 67.1838 158.236 67.0526C158.474 66.9152 158.658 66.7309 158.789 66.4998C158.927 66.2687 158.995 66.0126 158.995 65.7315V64.4478C158.995 64.1729 158.892 63.9512 158.686 63.7825C158.486 63.6076 158.221 63.5202 157.89 63.5202C157.602 63.5202 157.346 63.5951 157.121 63.745C156.903 63.8887 156.74 64.0824 156.634 64.326L155.875 63.9324C155.969 63.7013 156.119 63.4952 156.325 63.314C156.531 63.1266 156.771 62.9798 157.046 62.8736C157.321 62.7674 157.608 62.7143 157.908 62.7143C158.296 62.7143 158.636 62.7893 158.93 62.9392C159.223 63.0829 159.451 63.2859 159.614 63.5483C159.782 63.8044 159.867 64.1042 159.867 64.4478V67.8772H159.014V66.9215L159.173 66.9777C159.067 67.1776 158.923 67.3525 158.742 67.5024C158.561 67.6523 158.349 67.771 158.105 67.8585C157.861 67.9459 157.596 67.9896 157.309 67.9896ZM163.178 67.9334C162.685 67.9334 162.304 67.7929 162.035 67.5118C161.773 67.2307 161.642 66.834 161.642 66.3218V63.6607H160.723V62.8268H160.911C161.136 62.8268 161.314 62.7581 161.445 62.6206C161.576 62.4832 161.642 62.3021 161.642 62.0772V61.6649H162.513V62.8268H163.647V63.6607H162.513V66.2937C162.513 66.4623 162.538 66.6091 162.588 66.7341C162.644 66.859 162.735 66.9589 162.86 67.0339C162.985 67.1026 163.15 67.137 163.356 67.137C163.4 67.137 163.453 67.1338 163.516 67.1276C163.584 67.1214 163.647 67.1151 163.703 67.1089V67.8772C163.622 67.8959 163.531 67.9084 163.431 67.9147C163.331 67.9272 163.247 67.9334 163.178 67.9334ZM164.841 67.8772V62.8268H165.713V67.8772H164.841ZM164.841 62.021V60.8966H165.713V62.021H164.841ZM169.464 67.9896C168.976 67.9896 168.536 67.8772 168.142 67.6523C167.749 67.4212 167.437 67.1057 167.205 66.706C166.974 66.3062 166.859 65.8533 166.859 65.3473C166.859 64.8413 166.971 64.3916 167.196 63.998C167.427 63.6045 167.739 63.2922 168.133 63.061C168.527 62.8299 168.97 62.7143 169.464 62.7143C169.951 62.7143 170.391 62.8299 170.785 63.061C171.178 63.2859 171.487 63.5951 171.712 63.9887C171.943 64.3822 172.059 64.8351 172.059 65.3473C172.059 65.8595 171.94 66.3155 171.703 66.7153C171.466 67.1089 171.15 67.4212 170.757 67.6523C170.369 67.8772 169.938 67.9896 169.464 67.9896ZM169.464 67.1463C169.776 67.1463 170.057 67.0683 170.307 66.9121C170.563 66.7559 170.763 66.5404 170.907 66.2656C171.056 65.9907 171.131 65.6846 171.131 65.3473C171.131 65.0037 171.056 64.7008 170.907 64.4384C170.763 64.1698 170.563 63.9574 170.307 63.8013C170.057 63.6388 169.776 63.5576 169.464 63.5576C169.145 63.5576 168.858 63.6388 168.602 63.8013C168.352 63.9574 168.152 64.1698 168.002 64.4384C167.852 64.7008 167.777 65.0037 167.777 65.3473C167.777 65.6846 167.852 65.9907 168.002 66.2656C168.152 66.5404 168.352 66.7559 168.602 66.9121C168.858 67.0683 169.145 67.1463 169.464 67.1463ZM173.196 67.8772V62.8268H174.048V63.8106L173.908 63.7263C174.033 63.4077 174.233 63.161 174.507 62.9861C174.788 62.8049 175.116 62.7143 175.491 62.7143C175.854 62.7143 176.175 62.7955 176.456 62.958C176.744 63.1204 176.969 63.3453 177.131 63.6326C177.3 63.9199 177.384 64.2448 177.384 64.6071V67.8772H176.503V64.8882C176.503 64.6071 176.453 64.3697 176.353 64.1761C176.253 63.9824 176.11 63.8325 175.922 63.7263C175.741 63.6139 175.532 63.5576 175.294 63.5576C175.057 63.5576 174.845 63.6139 174.657 63.7263C174.476 63.8325 174.332 63.9855 174.226 64.1854C174.12 64.3791 174.067 64.6133 174.067 64.8882V67.8772H173.196Z" fill="black"/>
<defs>
<linearGradient id="paint0_linear_2085_3049" x1="16.3972" y1="57.6659" x2="201.161" y2="57.6659" gradientUnits="userSpaceOnUse">
<stop stop-color="#AC29D0"/>
<stop offset="1" stop-color="#230FBF"/>
</linearGradient>
</defs>
</svg>
