<svg width="24" height="30" viewBox="0 0 24 30" fill="none" xmlns="http://www.w3.org/2000/svg">
<g clip-path="url(#clip0_2085_3035)">
<path d="M23.7056 20.759C23.7056 21.0603 23.6498 21.4538 23.5382 21.9392C23.4266 22.4247 23.3094 22.807 23.1866 23.086C22.9522 23.644 22.2714 24.2356 21.1442 24.8606C20.0951 25.4298 19.0571 25.7144 18.0304 25.7144C17.729 25.7144 17.4333 25.6948 17.1431 25.6558C16.8529 25.6167 16.532 25.5469 16.1805 25.4465C15.8289 25.3461 15.5666 25.2651 15.3936 25.2038C15.2207 25.1424 14.9109 25.028 14.4645 24.8606C14.0181 24.6932 13.7446 24.5927 13.6442 24.5592C12.5504 24.1686 11.5739 23.7054 10.7145 23.1697C9.2971 22.288 7.82389 21.0827 6.29487 19.5536C4.76585 18.0246 3.56049 16.5514 2.6788 15.134C2.14308 14.2746 1.67991 13.2981 1.28929 12.2043C1.25581 12.1039 1.15536 11.8304 0.98795 11.384C0.820539 10.9376 0.706142 10.6279 0.644758 10.4549C0.583374 10.2819 0.502459 10.0196 0.402012 9.66804C0.301566 9.31648 0.231812 8.99561 0.192749 8.70543C0.153687 8.41525 0.134155 8.11949 0.134155 7.81815C0.134155 6.79136 0.418753 5.75342 0.98795 4.70431C1.61295 3.57708 2.20447 2.89628 2.7625 2.6619C3.04152 2.53913 3.42378 2.42195 3.90927 2.31034C4.39476 2.19873 4.78817 2.14293 5.08951 2.14293C5.24576 2.14293 5.36295 2.15967 5.44107 2.19315C5.64197 2.26011 5.93773 2.68422 6.32835 3.46547C6.45112 3.67753 6.61853 3.97886 6.83058 4.36949C7.04264 4.76011 7.23795 5.11447 7.41652 5.43255C7.59509 5.75063 7.76808 6.04918 7.93549 6.3282C7.96898 6.37284 8.06663 6.51235 8.22846 6.74672C8.39029 6.9811 8.51027 7.1792 8.5884 7.34103C8.66652 7.50286 8.70558 7.6619 8.70558 7.81815C8.70558 8.04136 8.54654 8.32038 8.22846 8.6552C7.91038 8.99003 7.5644 9.29695 7.19052 9.57596C6.81663 9.85498 6.47065 10.1507 6.15257 10.4632C5.83449 10.7757 5.67545 11.0324 5.67545 11.2333C5.67545 11.3338 5.70335 11.4593 5.75916 11.61C5.81496 11.7607 5.86239 11.8751 5.90145 11.9532C5.94052 12.0313 6.01864 12.1652 6.13583 12.355C6.25302 12.5447 6.31719 12.6507 6.32835 12.6731C7.17657 14.2021 8.14755 15.5135 9.2413 16.6072C10.335 17.701 11.6464 18.6719 13.1754 19.5202C13.1978 19.5313 13.3038 19.5955 13.4935 19.7127C13.6833 19.8299 13.8172 19.908 13.8953 19.9471C13.9734 19.9861 14.0878 20.0336 14.2385 20.0894C14.3892 20.1452 14.5147 20.1731 14.6152 20.1731C14.8161 20.1731 15.0728 20.014 15.3853 19.6959C15.6978 19.3779 15.9935 19.0319 16.2725 18.658C16.5516 18.2841 16.8585 17.9381 17.1933 17.62C17.5281 17.302 17.8071 17.1429 18.0304 17.1429C18.1866 17.1429 18.3456 17.182 18.5075 17.2601C18.6693 17.3382 18.8674 17.4582 19.1018 17.62C19.3362 17.7819 19.4757 17.8795 19.5203 17.913C19.7993 18.0804 20.0979 18.2534 20.416 18.432C20.734 18.6106 21.0884 18.8059 21.479 19.0179C21.8696 19.23 22.171 19.3974 22.383 19.5202C23.1643 19.9108 23.5884 20.2065 23.6554 20.4074C23.6888 20.4856 23.7056 20.6027 23.7056 20.759Z" fill="#230FBF"/>
</g>
<defs>
<clipPath id="clip0_2085_3035">
<rect width="23.58" height="30" fill="white" transform="matrix(1 0 0 -1 0.129883 30)"/>
</clipPath>
</defs>
</svg>
