<svg width="100" height="100" viewBox="0 0 100 100" fill="none" xmlns="http://www.w3.org/2000/svg">
<path d="M2.95505 43C3.15505 42.7 3.35505 42.5 3.45505 42.2C7.65505 33.9 11.755 25.5 15.955 17.2C16.155 16.7 16.755 16.3 17.255 16.4C23.355 16.4 29.355 16.4 35.455 16.4H36.555L23.1551 43.3H43.155V83.6H2.95505V43Z" fill="#E4E4E4"/>
<path d="M90.355 16.4L76.955 43.3H97.055V83.6H56.855V82.6C56.855 69.8 56.855 57 56.855 44.2C56.855 43.6 56.955 43.1 57.255 42.5C61.455 34.1 65.655 25.7 69.855 17.2C70.055 16.7 70.555 16.3 71.155 16.4C77.255 16.4 83.355 16.4 89.455 16.4H90.355Z" fill="#E4E4E4"/>
</svg>
