<svg width="36" height="36" viewBox="0 0 36 36" fill="none" xmlns="http://www.w3.org/2000/svg">
<rect x="0.75" y="0.200195" width="35" height="35" rx="17.5" fill="url(#paint0_linear_2085_3210)"/>
<g clip-path="url(#clip0_2085_3210)">
<path d="M19.6641 18.6143C19.6641 18.6143 19.7617 18.5166 19.957 18.3213C20.1523 18.126 20.25 17.7523 20.25 17.2002C20.25 16.6481 20.0547 16.1768 19.6641 15.7861C19.2734 15.3955 18.8021 15.2002 18.25 15.2002C17.6979 15.2002 17.2266 15.3955 16.8359 15.7861C16.4453 16.1768 16.25 16.6481 16.25 17.2002C16.25 17.7523 16.4453 18.2236 16.8359 18.6143C17.2266 19.0049 17.6979 19.2002 18.25 19.2002C18.8021 19.2002 19.2734 19.0049 19.6641 18.6143ZM20.4297 15.0205C20.4297 15.0205 20.5794 15.1702 20.8789 15.4697C21.1784 15.7692 21.3281 16.346 21.3281 17.2002C21.3281 18.0544 21.0286 18.7809 20.4297 19.3799C19.8307 19.9788 19.1042 20.2783 18.25 20.2783C17.3958 20.2783 16.6693 19.9788 16.0703 19.3799C15.4714 18.7809 15.1719 18.0544 15.1719 17.2002C15.1719 16.346 15.4714 15.6195 16.0703 15.0205C16.6693 14.4215 17.3958 14.1221 18.25 14.1221C19.1042 14.1221 19.8307 14.4215 20.4297 15.0205ZM21.9609 13.4893C21.9609 13.4893 21.9961 13.5244 22.0664 13.5947C22.1367 13.665 22.1719 13.7992 22.1719 13.9971C22.1719 14.195 22.1016 14.3643 21.9609 14.5049C21.8203 14.6455 21.651 14.7158 21.4531 14.7158C21.2552 14.7158 21.0859 14.6455 20.9453 14.5049C20.8047 14.3643 20.7344 14.195 20.7344 13.9971C20.7344 13.7992 20.8047 13.6299 20.9453 13.4893C21.0859 13.3486 21.2552 13.2783 21.4531 13.2783C21.651 13.2783 21.8203 13.3486 21.9609 13.4893ZM18.8477 12.2744C18.8477 12.2744 18.7572 12.2751 18.5762 12.2764C18.3952 12.2777 18.2865 12.2783 18.25 12.2783C18.2135 12.2783 18.0143 12.277 17.6523 12.2744C17.2904 12.2718 17.0156 12.2718 16.8281 12.2744C16.6406 12.277 16.3893 12.2848 16.0742 12.2979C15.7591 12.3109 15.4909 12.3369 15.2695 12.376C15.0482 12.415 14.862 12.4632 14.7109 12.5205C14.4505 12.6247 14.2214 12.7757 14.0234 12.9736C13.8255 13.1715 13.6745 13.4007 13.5703 13.6611C13.513 13.8122 13.4648 13.9984 13.4258 14.2197C13.3867 14.4411 13.3607 14.7093 13.3477 15.0244C13.3346 15.3395 13.3268 15.5908 13.3242 15.7783C13.3216 15.9658 13.3216 16.2406 13.3242 16.6025C13.3268 16.9645 13.3281 17.1637 13.3281 17.2002C13.3281 17.2367 13.3268 17.4359 13.3242 17.7979C13.3216 18.1598 13.3216 18.4346 13.3242 18.6221C13.3268 18.8096 13.3346 19.0609 13.3477 19.376C13.3607 19.6911 13.3867 19.9593 13.4258 20.1807C13.4648 20.402 13.513 20.5882 13.5703 20.7393C13.6745 20.9997 13.8255 21.2288 14.0234 21.4268C14.2214 21.6247 14.4505 21.7757 14.7109 21.8799C14.862 21.9372 15.0482 21.9854 15.2695 22.0244C15.4909 22.0635 15.7591 22.0895 16.0742 22.1025C16.3893 22.1156 16.6406 22.1234 16.8281 22.126C17.0156 22.1286 17.2904 22.1286 17.6523 22.126C18.0143 22.1234 18.2135 22.1221 18.25 22.1221C18.2865 22.1221 18.4857 22.1234 18.8477 22.126C19.2096 22.1286 19.4844 22.1286 19.6719 22.126C19.8594 22.1234 20.1107 22.1156 20.4258 22.1025C20.7409 22.0895 21.0091 22.0635 21.2305 22.0244C21.4518 21.9854 21.638 21.9372 21.7891 21.8799C22.0495 21.7757 22.2786 21.6247 22.4766 21.4268C22.6745 21.2288 22.8255 20.9997 22.9297 20.7393C22.987 20.5882 23.0352 20.402 23.0742 20.1807C23.1133 19.9593 23.1393 19.6911 23.1523 19.376C23.1654 19.0609 23.1732 18.8096 23.1758 18.6221C23.1784 18.4346 23.1784 18.1598 23.1758 17.7979C23.1732 17.4359 23.1719 17.2367 23.1719 17.2002C23.1719 17.1637 23.1732 16.9645 23.1758 16.6025C23.1784 16.2406 23.1784 15.9658 23.1758 15.7783C23.1732 15.5908 23.1654 15.3395 23.1523 15.0244C23.1393 14.7093 23.1133 14.4411 23.0742 14.2197C23.0352 13.9984 22.987 13.8122 22.9297 13.6611C22.8255 13.4007 22.6745 13.1715 22.4766 12.9736C22.2786 12.7757 22.0495 12.6247 21.7891 12.5205C21.638 12.4632 21.4518 12.415 21.2305 12.376C21.0091 12.3369 20.7409 12.3109 20.4258 12.2979C20.1107 12.2848 19.8594 12.277 19.6719 12.2744C19.4844 12.2718 19.2096 12.2718 18.8477 12.2744ZM24.2109 14.7236C24.237 15.182 24.25 16.0075 24.25 17.2002C24.25 18.3929 24.237 19.2184 24.2109 19.6768C24.1589 20.7601 23.8359 21.5986 23.2422 22.1924C22.6484 22.7861 21.8099 23.109 20.7266 23.1611C20.2682 23.1872 19.4427 23.2002 18.25 23.2002C17.0573 23.2002 16.2318 23.1872 15.7734 23.1611C14.6901 23.109 13.8516 22.7861 13.2578 22.1924C12.6641 21.5986 12.3411 20.7601 12.2891 19.6768C12.263 19.2184 12.25 18.3929 12.25 17.2002C12.25 16.0075 12.263 15.182 12.2891 14.7236C12.3411 13.6403 12.6641 12.8018 13.2578 12.208C13.8516 11.6143 14.6901 11.2913 15.7734 11.2393C16.2318 11.2132 17.0573 11.2002 18.25 11.2002C19.4427 11.2002 20.2682 11.2132 20.7266 11.2393C21.8099 11.2913 22.6484 11.6143 23.2422 12.208C23.8359 12.8018 24.1589 13.6403 24.2109 14.7236Z" fill="white"/>
</g>
<defs>
<linearGradient id="paint0_linear_2085_3210" x1="0.75" y1="17.7002" x2="35.75" y2="17.7002" gradientUnits="userSpaceOnUse">
<stop stop-color="#230FBF"/>
<stop offset="1" stop-color="#B42BD1"/>
</linearGradient>
<clipPath id="clip0_2085_3210">
<rect width="12" height="14" fill="white" transform="matrix(1 0 0 -1 12.25 24.2002)"/>
</clipPath>
</defs>
</svg>
