<svg width="36" height="36" viewBox="0 0 36 36" fill="none" xmlns="http://www.w3.org/2000/svg">
<rect x="0.810059" y="0.200195" width="35" height="35" rx="17.5" fill="url(#paint0_linear_2085_3207)"/>
<g clip-path="url(#clip0_2085_3207)">
<path d="M15.0366 15.083V22.8252H12.4585V15.083H15.0366ZM15.2007 12.6924C15.2059 13.0726 15.0744 13.3903 14.8062 13.6455C14.5379 13.9007 14.1851 14.0283 13.7476 14.0283H13.7319C13.3049 14.0283 12.9611 13.9007 12.7007 13.6455C12.4403 13.3903 12.3101 13.0726 12.3101 12.6924C12.3101 12.307 12.4442 11.988 12.7124 11.7354C12.9806 11.4827 13.3309 11.3564 13.7632 11.3564C14.1955 11.3564 14.5418 11.4827 14.8022 11.7354C15.0627 11.988 15.1955 12.307 15.2007 12.6924ZM24.3101 18.3877V22.8252H21.7397V18.6846C21.7397 18.1377 21.6343 17.7093 21.4233 17.3994C21.2124 17.0895 20.883 16.9346 20.4351 16.9346C20.1069 16.9346 19.8322 17.0244 19.6108 17.2041C19.3895 17.3838 19.2241 17.6064 19.1147 17.8721C19.0575 18.0283 19.0288 18.2393 19.0288 18.5049V22.8252H16.4585C16.4689 20.7471 16.4741 19.0622 16.4741 17.7705C16.4741 16.4788 16.4715 15.708 16.4663 15.458L16.4585 15.083H19.0288V16.208H19.0132C19.1174 16.0413 19.2241 15.8955 19.3335 15.7705C19.4429 15.6455 19.59 15.5101 19.7749 15.3643C19.9598 15.2184 20.1864 15.1051 20.4546 15.0244C20.7228 14.9437 21.021 14.9033 21.3491 14.9033C22.2397 14.9033 22.9559 15.1989 23.4976 15.79C24.0392 16.3812 24.3101 17.2471 24.3101 18.3877Z" fill="white"/>
</g>
<defs>
<linearGradient id="paint0_linear_2085_3207" x1="0.810059" y1="17.7002" x2="35.8101" y2="17.7002" gradientUnits="userSpaceOnUse">
<stop stop-color="#230FBF"/>
<stop offset="1" stop-color="#B42BD1"/>
</linearGradient>
<clipPath id="clip0_2085_3207">
<rect width="12" height="14" fill="white" transform="matrix(1 0 0 -1 12.3101 24.2002)"/>
</clipPath>
</defs>
</svg>
