<svg width="154" height="65" viewBox="0 0 154 65" fill="none" xmlns="http://www.w3.org/2000/svg">
<path d="M7.32661 26.9448C10.066 26.9448 12.4589 28.4589 13.7164 30.6914H21.9153C22.8327 30.6914 23.6988 31.0507 24.3467 31.6987L31.5577 38.916C32.2056 39.564 32.5649 40.4236 32.5649 41.3475V45.6714C34.8744 46.9032 36.4526 49.3411 36.4526 52.1382C36.4526 56.1799 33.1679 59.4646 29.1262 59.4646C25.0845 59.4646 21.7998 56.1799 21.7998 52.1382C21.7998 49.3347 23.378 46.9032 25.6876 45.665V42.7717L24.6418 41.7195C24.1928 41.2705 24.1928 40.5455 24.6418 40.1029C25.0909 39.6538 25.8159 39.6538 26.2585 40.1029L27.6443 41.4886C27.8624 41.7003 27.9843 41.989 27.9843 42.2969V44.9016C28.3564 44.8439 28.7349 44.8118 29.1262 44.8118C29.5176 44.8118 29.9025 44.8439 30.2746 44.9016V41.3475C30.2746 41.0395 30.1527 40.7508 29.9346 40.5391L22.7236 33.3218C22.5055 33.1036 22.2168 32.9882 21.9153 32.9882H14.5375C14.6145 33.4052 14.653 33.835 14.653 34.2712C14.653 34.6113 14.6274 34.9513 14.5825 35.2785H20.9658C21.2673 35.2785 21.5624 35.4004 21.7741 35.6121L23.0444 36.8823C23.4871 37.325 23.4871 38.0563 23.038 38.499C22.8134 38.7235 22.5248 38.8326 22.2296 38.8326C21.9345 38.8326 21.6458 38.7235 21.4213 38.499L20.4911 37.5688H13.8703C12.6578 39.9553 10.1815 41.5977 7.32661 41.5977C3.28489 41.5977 0.00019455 38.313 0.00019455 34.2712C0.00019455 30.2295 3.28489 26.9448 7.32661 26.9448ZM29.1262 47.1021C26.3483 47.1021 24.0901 49.3603 24.0901 52.1382C24.0901 54.9161 26.3483 57.1743 29.1262 57.1743C31.9041 57.1743 34.1623 54.9161 34.1623 52.1382C34.1623 49.3603 31.9041 47.1021 29.1262 47.1021ZM7.32661 39.3073C10.1045 39.3073 12.3627 37.0491 12.3627 34.2712C12.3627 31.4934 10.1045 29.2351 7.32661 29.2351C4.54873 29.2351 2.2905 31.4934 2.2905 34.2712C2.2905 37.0491 4.54873 39.3073 7.32661 39.3073Z" fill="white"/>
<path fill-rule="evenodd" clip-rule="evenodd" d="M28.562 18.7844C28.562 14.7426 25.2773 11.4579 21.2356 11.4579C17.1939 11.4579 13.9092 14.7426 13.9092 18.7844C13.9092 22.8261 17.1939 26.1108 21.2356 26.1108C22.5745 26.1108 23.9693 26.3806 24.9163 27.3271L35.1057 37.511C35.7409 38.1525 36.6262 38.5182 37.5372 38.5182H40.7452C41.9335 38.5182 42.9199 39.3821 43.1109 40.516V50.0859H50.297V37.5681H55.3967L62.3975 50.0859H70.4646L62.583 36.3163C64.4066 35.4818 65.8593 34.2455 66.941 32.6073C68.0228 30.9383 68.5637 28.9293 68.5637 26.5802C68.5637 24.1694 68.0383 22.1449 66.9874 20.5068C65.9365 18.8687 64.4838 17.6323 62.6294 16.7978C60.8058 15.9633 58.704 15.546 56.3241 15.546H43.1109V20.4949C43.0245 20.6587 42.7903 20.7143 42.6411 20.5651L38.2907 16.2147C37.9438 15.8678 37.7489 15.3973 37.7489 14.9067C37.7489 14.225 38.1359 13.6135 38.6819 13.2054C40.473 11.8667 41.6366 9.73372 41.6366 7.32641C41.6366 3.29111 38.3519 0 34.3102 0C30.2685 0 26.9838 3.29111 26.9838 7.32641C26.9838 8.94808 27.5119 10.4452 28.4053 11.659C29.6087 13.2939 30.878 15.0671 30.878 17.0971C30.878 18.0145 31.2308 18.8742 31.8788 19.5286L42.9676 30.6173C43.0326 30.6824 43.0812 30.7607 43.1109 30.846V31.2424C43.0288 31.4781 42.8046 31.6473 42.5409 31.6473H40.1865C39.4021 31.6473 38.6498 31.3357 38.0951 30.781L29.7791 22.465C28.8335 21.5194 28.562 20.1217 28.562 18.7844ZM43.1109 34.8071C42.9875 34.3078 42.5365 33.9376 41.9991 33.9376H38.4867C38.1787 33.9376 37.89 33.8157 37.6719 33.604L27.9688 23.9009C27.5431 23.4752 26.8393 23.5367 26.4136 23.9624C25.9879 24.3881 25.9265 25.0919 26.3522 25.5176L36.7288 35.8943C36.9406 36.106 37.2357 36.2279 37.5372 36.2279H41.9991C42.5365 36.2279 42.9875 35.8577 43.1109 35.3584V34.8071ZM43.1109 24.5142V25.0713C42.9091 25.8967 41.8404 26.2496 41.1894 25.5981L33.5019 17.9054C33.2838 17.6937 33.1683 17.405 33.1683 17.0971V15.7099C33.1683 15.1107 33.7111 14.6528 34.3102 14.6528C34.9127 14.6528 35.4586 15.1138 35.4586 15.7163V16.1476C35.4586 16.4556 35.5805 16.7443 35.7922 16.9624L42.8089 23.9791C42.9577 24.1278 43.0612 24.3133 43.1109 24.5142ZM34.3102 2.29031C37.0881 2.29031 39.3463 4.54854 39.3463 7.32641C39.3463 10.1043 37.0881 12.3625 34.3102 12.3625C31.5323 12.3625 29.2741 10.1043 29.2741 7.32641C29.2741 4.54854 31.5323 2.29031 34.3102 2.29031ZM26.2717 18.7844C26.2717 21.5622 24.0135 23.8205 21.2356 23.8205C18.4577 23.8205 16.1995 21.5622 16.1995 18.7844C16.1995 16.0065 18.4577 13.7483 21.2356 13.7483C24.0135 13.7483 26.2717 16.0065 26.2717 18.7844ZM56.3705 31.3092H50.297V21.8049H56.3705C57.3904 21.8049 58.2713 22.0058 59.0131 22.4076C59.7549 22.8094 60.3267 23.3658 60.7285 24.0767C61.1612 24.7876 61.3776 25.6221 61.3776 26.5802C61.3776 27.5075 61.1612 28.3265 60.7285 29.0374C60.3267 29.7483 59.7549 30.3047 59.0131 30.7065C58.2713 31.1083 57.3904 31.3092 56.3705 31.3092ZM83.3065 15.546V50.0859H90.4927V37.5681H96.5661C98.9152 37.5681 101.001 37.1508 102.825 36.3163C104.68 35.4509 106.132 34.1991 107.183 32.561C108.265 30.9228 108.806 28.9293 108.806 26.5802C108.806 24.1694 108.28 22.1449 107.229 20.5068C106.179 18.8687 104.726 17.6323 102.871 16.7978C101.048 15.9633 98.9461 15.546 96.5661 15.546H83.3065ZM96.6125 31.3092H90.4927V21.8049H96.6125C97.6325 21.8049 98.5133 22.0058 99.2551 22.4076C99.9969 22.8094 100.569 23.3658 100.971 24.0767C101.403 24.7876 101.62 25.6221 101.62 26.5802C101.62 27.5075 101.403 28.3265 100.971 29.0374C100.569 29.7483 99.9969 30.3047 99.2551 30.7065C98.5133 31.1083 97.6325 31.3092 96.6125 31.3092ZM129.059 15.546L117.376 50.0859H125.164L127.482 43.0388H140.139L142.457 50.0859H150.293L138.609 15.546H129.059ZM138.146 36.7799H129.476L133.83 23.4535L138.146 36.7799Z" fill="white"/>
<path d="M43.5042 58.3623V52.3554H45.6248C46.0225 52.3554 46.3719 52.4306 46.6729 52.5811C46.974 52.7316 47.2078 52.9467 47.3744 53.2262C47.5464 53.5057 47.6324 53.8336 47.6324 54.2099C47.6324 54.6345 47.5249 54.9947 47.3099 55.2903C47.0949 55.5859 46.8046 55.7983 46.4391 55.9273L47.834 58.3623H46.9148L45.4474 55.758L45.9715 56.0644H44.2944V58.3623H43.5042ZM44.2944 55.3387H45.6489C45.8855 55.3387 46.0924 55.293 46.2698 55.2016C46.4472 55.1102 46.5843 54.9785 46.681 54.8065C46.7831 54.6345 46.8342 54.4356 46.8342 54.2099C46.8342 53.9787 46.7831 53.7798 46.681 53.6132C46.5843 53.4412 46.4472 53.3095 46.2698 53.2181C46.0924 53.1267 45.8855 53.081 45.6489 53.081H44.2944V55.3387ZM50.4639 58.4591C50.0446 58.4591 49.6656 58.3623 49.327 58.1688C48.9883 57.9699 48.7196 57.6985 48.5207 57.3544C48.3218 57.0104 48.2224 56.6207 48.2224 56.1853C48.2224 55.7499 48.3191 55.3629 48.5126 55.0242C48.7115 54.6856 48.9803 54.4168 49.3189 54.2179C49.6576 54.019 50.0392 53.9196 50.4639 53.9196C50.8832 53.9196 51.2621 54.019 51.6008 54.2179C51.9394 54.4114 52.2055 54.6775 52.399 55.0162C52.5979 55.3548 52.6973 55.7445 52.6973 56.1853C52.6973 56.6261 52.5952 57.0185 52.3909 57.3625C52.1867 57.7011 51.9152 57.9699 51.5766 58.1688C51.2433 58.3623 50.8724 58.4591 50.4639 58.4591ZM50.4639 57.7334C50.7326 57.7334 50.9745 57.6662 51.1895 57.5318C51.4099 57.3974 51.5819 57.212 51.7056 56.9755C51.8346 56.739 51.8991 56.4756 51.8991 56.1853C51.8991 55.8897 51.8346 55.629 51.7056 55.4032C51.5819 55.172 51.4099 54.9893 51.1895 54.8549C50.9745 54.7151 50.7326 54.6453 50.4639 54.6453C50.1897 54.6453 49.9425 54.7151 49.7221 54.8549C49.5071 54.9893 49.3351 55.172 49.206 55.4032C49.077 55.629 49.0125 55.8897 49.0125 56.1853C49.0125 56.4756 49.077 56.739 49.206 56.9755C49.3351 57.212 49.5071 57.3974 49.7221 57.5318C49.9425 57.6662 50.1897 57.7334 50.4639 57.7334ZM55.9249 58.4591C55.5755 58.4591 55.2557 58.3811 54.9654 58.2252C54.6805 58.0693 54.4601 57.849 54.3043 57.5641L54.4091 57.4351V58.3623H53.6753V52.2586H54.4252V54.9517L54.3123 54.7662C54.4736 54.5082 54.694 54.3039 54.9735 54.1534C55.253 53.9975 55.5728 53.9196 55.933 53.9196C56.3415 53.9196 56.707 54.019 57.0295 54.2179C57.3574 54.4168 57.6155 54.6883 57.8036 55.0323C57.9917 55.3709 58.0858 55.758 58.0858 56.1934C58.0858 56.618 57.9917 57.0023 57.8036 57.3464C57.6155 57.6904 57.3574 57.9618 57.0295 58.1607C56.707 58.3596 56.3388 58.4591 55.9249 58.4591ZM55.8685 57.7334C56.1426 57.7334 56.3872 57.6662 56.6022 57.5318C56.8172 57.3974 56.9839 57.2147 57.1021 56.9835C57.2257 56.747 57.2876 56.4836 57.2876 56.1934C57.2876 55.8923 57.2257 55.629 57.1021 55.4032C56.9839 55.172 56.8172 54.9893 56.6022 54.8549C56.3872 54.7151 56.1426 54.6453 55.8685 54.6453C55.5943 54.6453 55.3471 54.7125 55.1267 54.8468C54.9117 54.9812 54.7397 55.1667 54.6106 55.4032C54.487 55.6343 54.4252 55.8977 54.4252 56.1934C54.4252 56.4836 54.487 56.747 54.6106 56.9835C54.7397 57.2147 54.9117 57.3974 55.1267 57.5318C55.3471 57.6662 55.5943 57.7334 55.8685 57.7334ZM61.1332 58.4591C60.7139 58.4591 60.3349 58.3623 59.9963 58.1688C59.6576 57.9699 59.3889 57.6985 59.19 57.3544C58.9911 57.0104 58.8917 56.6207 58.8917 56.1853C58.8917 55.7499 58.9884 55.3629 59.1819 55.0242C59.3808 54.6856 59.6496 54.4168 59.9882 54.2179C60.3269 54.019 60.7085 53.9196 61.1332 53.9196C61.5524 53.9196 61.9314 54.019 62.27 54.2179C62.6087 54.4114 62.8748 54.6775 63.0683 55.0162C63.2672 55.3548 63.3666 55.7445 63.3666 56.1853C63.3666 56.6261 63.2645 57.0185 63.0602 57.3625C62.856 57.7011 62.5845 57.9699 62.2459 58.1688C61.9126 58.3623 61.5417 58.4591 61.1332 58.4591ZM61.1332 57.7334C61.4019 57.7334 61.6438 57.6662 61.8588 57.5318C62.0792 57.3974 62.2512 57.212 62.3749 56.9755C62.5039 56.739 62.5684 56.4756 62.5684 56.1853C62.5684 55.8897 62.5039 55.629 62.3749 55.4032C62.2512 55.172 62.0792 54.9893 61.8588 54.8549C61.6438 54.7151 61.4019 54.6453 61.1332 54.6453C60.859 54.6453 60.6118 54.7151 60.3914 54.8549C60.1764 54.9893 60.0043 55.172 59.8753 55.4032C59.7463 55.629 59.6818 55.8897 59.6818 56.1853C59.6818 56.4756 59.7463 56.739 59.8753 56.9755C60.0043 57.212 60.1764 57.3974 60.3914 57.5318C60.6118 57.6662 60.859 57.7334 61.1332 57.7334ZM66.0317 58.4107C65.607 58.4107 65.2791 58.2897 65.048 58.0478C64.8222 57.806 64.7094 57.4646 64.7094 57.0238V54.734H63.9192V54.0164H64.0804C64.274 54.0164 64.4271 53.9572 64.54 53.839C64.6529 53.7207 64.7094 53.5648 64.7094 53.3713V53.0165H65.4592V54.0164H66.4348V54.734H65.4592V56.9997C65.4592 57.1448 65.4807 57.2711 65.5237 57.3786C65.5721 57.4861 65.65 57.5721 65.7575 57.6366C65.865 57.6958 66.0075 57.7253 66.1849 57.7253C66.2225 57.7253 66.2682 57.7226 66.322 57.7173C66.3811 57.7119 66.4348 57.7065 66.4832 57.7011V58.3623C66.4133 58.3784 66.3354 58.3892 66.2494 58.3946C66.1634 58.4053 66.0908 58.4107 66.0317 58.4107ZM67.4627 58.3623V54.0164H68.2126V58.3623H67.4627ZM67.4627 53.3229V52.3554H68.2126V53.3229H67.4627ZM71.3919 58.4591C70.9672 58.4591 70.5883 58.3596 70.255 58.1607C69.9271 57.9618 69.6691 57.6904 69.4809 57.3464C69.2928 57.0023 69.1987 56.6153 69.1987 56.1853C69.1987 55.7499 69.2928 55.3629 69.4809 55.0242C69.6691 54.6856 69.9271 54.4168 70.255 54.2179C70.5883 54.019 70.9672 53.9196 71.3919 53.9196C71.6768 53.9196 71.9428 53.9707 72.1901 54.0728C72.4374 54.1749 72.6551 54.312 72.8432 54.484C73.0313 54.656 73.1684 54.8576 73.2544 55.0887L72.5852 55.4112C72.4831 55.1855 72.3272 55.0027 72.1175 54.863C71.9079 54.7178 71.666 54.6453 71.3919 54.6453C71.1285 54.6453 70.8893 54.7125 70.6743 54.8468C70.4646 54.9812 70.298 55.164 70.1744 55.3951C70.0507 55.6263 69.9889 55.8923 69.9889 56.1934C69.9889 56.4836 70.0507 56.747 70.1744 56.9835C70.298 57.2147 70.4646 57.3974 70.6743 57.5318C70.8893 57.6662 71.1285 57.7334 71.3919 57.7334C71.666 57.7334 71.9079 57.6635 72.1175 57.5238C72.3272 57.3786 72.4831 57.1878 72.5852 56.9513L73.2544 57.2899C73.1684 57.5157 73.0313 57.7173 72.8432 57.8947C72.6551 58.0667 72.4374 58.2037 72.1901 58.3059C71.9428 58.408 71.6768 58.4591 71.3919 58.4591ZM75.7168 58.3623V52.3554H77.8374C78.2351 52.3554 78.5845 52.4306 78.8855 52.5811C79.1866 52.7316 79.4204 52.9467 79.587 53.2262C79.759 53.5057 79.845 53.8336 79.845 54.2099C79.845 54.5861 79.759 54.914 79.587 55.1935C79.4204 55.4677 79.1866 55.6827 78.8855 55.8386C78.5899 55.9891 78.2405 56.0644 77.8374 56.0644H76.507V58.3623H75.7168ZM76.507 55.3387H77.8615C78.1034 55.3387 78.3131 55.293 78.4905 55.2016C78.6678 55.1102 78.8049 54.9785 78.9017 54.8065C78.9984 54.6345 79.0468 54.4356 79.0468 54.2099C79.0468 53.9787 78.9984 53.7798 78.9017 53.6132C78.8049 53.4412 78.6678 53.3095 78.4905 53.2181C78.3131 53.1267 78.1034 53.081 77.8615 53.081H76.507V55.3387ZM80.8249 58.3623V54.0164H81.5587V54.8146L81.478 54.7017C81.5802 54.4544 81.7361 54.2717 81.9457 54.1534C82.1553 54.0298 82.4107 53.968 82.7117 53.968H82.9778V54.6775H82.5988C82.2924 54.6775 82.0451 54.7743 81.857 54.9678C81.6689 55.1559 81.5748 55.4247 81.5748 55.7741V58.3623H80.8249ZM85.708 58.4591C85.2887 58.4591 84.9097 58.3623 84.5711 58.1688C84.2324 57.9699 83.9637 57.6985 83.7648 57.3544C83.5659 57.0104 83.4665 56.6207 83.4665 56.1853C83.4665 55.7499 83.5632 55.3629 83.7567 55.0242C83.9556 54.6856 84.2244 54.4168 84.563 54.2179C84.9017 54.019 85.2833 53.9196 85.708 53.9196C86.1272 53.9196 86.5062 54.019 86.8449 54.2179C87.1835 54.4114 87.4496 54.6775 87.6431 55.0162C87.842 55.3548 87.9414 55.7445 87.9414 56.1853C87.9414 56.6261 87.8393 57.0185 87.635 57.3625C87.4308 57.7011 87.1593 57.9699 86.8207 58.1688C86.4874 58.3623 86.1165 58.4591 85.708 58.4591ZM85.708 57.7334C85.9767 57.7334 86.2186 57.6662 86.4336 57.5318C86.654 57.3974 86.826 57.212 86.9497 56.9755C87.0787 56.739 87.1432 56.4756 87.1432 56.1853C87.1432 55.8897 87.0787 55.629 86.9497 55.4032C86.826 55.172 86.654 54.9893 86.4336 54.8549C86.2186 54.7151 85.9767 54.6453 85.708 54.6453C85.4338 54.6453 85.1866 54.7151 84.9662 54.8549C84.7512 54.9893 84.5792 55.172 84.4501 55.4032C84.3211 55.629 84.2566 55.8897 84.2566 56.1853C84.2566 56.4756 84.3211 56.739 84.4501 56.9755C84.5792 57.212 84.7512 57.3974 84.9662 57.5318C85.1866 57.6662 85.4338 57.7334 85.708 57.7334ZM90.9352 58.4591C90.5105 58.4591 90.1316 58.3596 89.7983 58.1607C89.4704 57.9618 89.2124 57.6904 89.0243 57.3464C88.8361 57.0023 88.742 56.6153 88.742 56.1853C88.742 55.7499 88.8361 55.3629 89.0243 55.0242C89.2124 54.6856 89.4704 54.4168 89.7983 54.2179C90.1316 54.019 90.5105 53.9196 90.9352 53.9196C91.2201 53.9196 91.4862 53.9707 91.7334 54.0728C91.9807 54.1749 92.1984 54.312 92.3865 54.484C92.5747 54.656 92.7117 54.8576 92.7977 55.0887L92.1285 55.4112C92.0264 55.1855 91.8705 55.0027 91.6609 54.863C91.4512 54.7178 91.2093 54.6453 90.9352 54.6453C90.6718 54.6453 90.4326 54.7125 90.2176 54.8468C90.0079 54.9812 89.8413 55.164 89.7177 55.3951C89.594 55.6263 89.5322 55.8923 89.5322 56.1934C89.5322 56.4836 89.594 56.747 89.7177 56.9835C89.8413 57.2147 90.0079 57.3974 90.2176 57.5318C90.4326 57.6662 90.6718 57.7334 90.9352 57.7334C91.2093 57.7334 91.4512 57.6635 91.6609 57.5238C91.8705 57.3786 92.0264 57.1878 92.1285 56.9513L92.7977 57.2899C92.7117 57.5157 92.5747 57.7173 92.3865 57.8947C92.1984 58.0667 91.9807 58.2037 91.7334 58.3059C91.4862 58.408 91.2201 58.4591 90.9352 58.4591ZM95.7773 58.4591C95.358 58.4591 94.9845 58.3596 94.6566 58.1607C94.3287 57.9618 94.0707 57.6904 93.8825 57.3464C93.6944 56.997 93.6003 56.6073 93.6003 56.1772C93.6003 55.7418 93.6917 55.3548 93.8745 55.0162C94.0626 54.6775 94.3152 54.4114 94.6324 54.2179C94.9549 54.019 95.315 53.9196 95.7128 53.9196C96.0353 53.9196 96.3202 53.9787 96.5675 54.097C96.8201 54.2099 97.0325 54.3657 97.2045 54.5646C97.3819 54.7581 97.5162 54.9812 97.6076 55.2339C97.7044 55.4811 97.7528 55.7391 97.7528 56.0079C97.7528 56.067 97.7474 56.1342 97.7366 56.2095C97.7313 56.2794 97.7232 56.3466 97.7124 56.4111H94.1486V55.766H97.277L96.9223 56.0563C96.9706 55.7768 96.9438 55.5268 96.8416 55.3064C96.7395 55.086 96.589 54.9113 96.3901 54.7823C96.1912 54.6533 95.9655 54.5888 95.7128 54.5888C95.4602 54.5888 95.229 54.6533 95.0194 54.7823C94.8098 54.9113 94.6458 55.0968 94.5276 55.3387C94.4147 55.5752 94.369 55.8574 94.3905 56.1853C94.369 56.5024 94.4174 56.782 94.5356 57.0238C94.6593 57.2604 94.8313 57.4458 95.0517 57.5802C95.2774 57.7092 95.522 57.7737 95.7854 57.7737C96.0757 57.7737 96.3202 57.7065 96.5191 57.5721C96.718 57.4377 96.8793 57.2657 97.0029 57.0561L97.6318 57.3786C97.5458 57.5775 97.4114 57.7603 97.2287 57.9269C97.0513 58.0882 96.839 58.2172 96.5917 58.3139C96.3498 58.4107 96.0783 58.4591 95.7773 58.4591ZM100.287 58.4591C99.8512 58.4591 99.4723 58.3516 99.1497 58.1365C98.8272 57.9215 98.5988 57.6313 98.4644 57.2657L99.061 56.9755C99.1847 57.2335 99.354 57.4377 99.569 57.5883C99.784 57.7388 100.023 57.814 100.287 57.814C100.523 57.814 100.719 57.7576 100.875 57.6447C101.031 57.5318 101.109 57.384 101.109 57.2012C101.109 57.0722 101.071 56.9701 100.996 56.8948C100.926 56.8142 100.84 56.7524 100.738 56.7094C100.636 56.661 100.542 56.6261 100.456 56.6046L99.8028 56.4191C99.4104 56.3062 99.1229 56.145 98.9401 55.9353C98.7627 55.7257 98.674 55.4811 98.674 55.2016C98.674 54.9436 98.7385 54.7205 98.8675 54.5324C99.0019 54.3389 99.182 54.1884 99.4077 54.0809C99.6389 53.9733 99.8969 53.9196 100.182 53.9196C100.563 53.9196 100.905 54.0164 101.206 54.2099C101.512 54.4034 101.73 54.6748 101.859 55.0242L101.246 55.3064C101.149 55.0807 101.004 54.9033 100.811 54.7743C100.617 54.6399 100.399 54.5727 100.158 54.5727C99.9372 54.5727 99.7625 54.6291 99.6335 54.742C99.5045 54.8495 99.44 54.9866 99.44 55.1532C99.44 55.2769 99.4723 55.379 99.5368 55.4596C99.6013 55.5349 99.6792 55.594 99.7706 55.637C99.862 55.6746 99.9507 55.7069 100.037 55.7338L100.746 55.9434C101.101 56.0455 101.375 56.2041 101.569 56.4191C101.768 56.6341 101.867 56.8922 101.867 57.1932C101.867 57.4351 101.8 57.6528 101.665 57.8463C101.531 58.0398 101.346 58.1903 101.109 58.2978C100.873 58.4053 100.598 58.4591 100.287 58.4591ZM104.405 58.4591C103.969 58.4591 103.59 58.3516 103.268 58.1365C102.945 57.9215 102.717 57.6313 102.582 57.2657L103.179 56.9755C103.303 57.2335 103.472 57.4377 103.687 57.5883C103.902 57.7388 104.141 57.814 104.405 57.814C104.641 57.814 104.837 57.7576 104.993 57.6447C105.149 57.5318 105.227 57.384 105.227 57.2012C105.227 57.0722 105.19 56.9701 105.114 56.8948C105.044 56.8142 104.958 56.7524 104.856 56.7094C104.754 56.661 104.66 56.6261 104.574 56.6046L103.921 56.4191C103.529 56.3062 103.241 56.145 103.058 55.9353C102.881 55.7257 102.792 55.4811 102.792 55.2016C102.792 54.9436 102.857 54.7205 102.986 54.5324C103.12 54.3389 103.3 54.1884 103.526 54.0809C103.757 53.9733 104.015 53.9196 104.3 53.9196C104.682 53.9196 105.023 54.0164 105.324 54.2099C105.63 54.4034 105.848 54.6748 105.977 55.0242L105.364 55.3064C105.267 55.0807 105.122 54.9033 104.929 54.7743C104.735 54.6399 104.518 54.5727 104.276 54.5727C104.055 54.5727 103.881 54.6291 103.752 54.742C103.623 54.8495 103.558 54.9866 103.558 55.1532C103.558 55.2769 103.59 55.379 103.655 55.4596C103.719 55.5349 103.797 55.594 103.889 55.637C103.98 55.6746 104.069 55.7069 104.155 55.7338L104.864 55.9434C105.219 56.0455 105.493 56.2041 105.687 56.4191C105.886 56.6341 105.985 56.8922 105.985 57.1932C105.985 57.4351 105.918 57.6528 105.783 57.8463C105.649 58.0398 105.464 58.1903 105.227 58.2978C104.991 58.4053 104.716 58.4591 104.405 58.4591ZM107.869 58.3623L110.021 52.3554H110.957L113.109 58.3623H112.263L111.771 56.9513H109.207L108.715 58.3623H107.869ZM109.457 56.2256H111.521L110.376 52.9278H110.602L109.457 56.2256ZM115.239 58.4591C114.927 58.4591 114.645 58.3865 114.392 58.2414C114.145 58.0962 113.952 57.8947 113.812 57.6366C113.677 57.3732 113.61 57.0722 113.61 56.7336V54.0164H114.36V56.653C114.36 56.868 114.403 57.0561 114.489 57.2174C114.581 57.3786 114.704 57.5049 114.86 57.5963C115.021 57.6877 115.204 57.7334 115.408 57.7334C115.613 57.7334 115.793 57.6877 115.949 57.5963C116.11 57.5049 116.233 57.3732 116.319 57.2012C116.411 57.0292 116.457 56.825 116.457 56.5884V54.0164H117.214V58.3623H116.481V57.5157L116.602 57.5883C116.5 57.8624 116.325 58.0774 116.078 58.2333C115.836 58.3838 115.556 58.4591 115.239 58.4591ZM120.142 58.4107C119.717 58.4107 119.389 58.2897 119.158 58.0478C118.932 57.806 118.82 57.4646 118.82 57.0238V54.734H118.029V54.0164H118.191C118.384 54.0164 118.537 53.9572 118.65 53.839C118.763 53.7207 118.82 53.5648 118.82 53.3713V53.0165H119.569V54.0164H120.545V54.734H119.569V56.9997C119.569 57.1448 119.591 57.2711 119.634 57.3786C119.682 57.4861 119.76 57.5721 119.868 57.6366C119.975 57.6958 120.118 57.7253 120.295 57.7253C120.333 57.7253 120.378 57.7226 120.432 57.7173C120.491 57.7119 120.545 57.7065 120.593 57.7011V58.3623C120.524 58.3784 120.446 58.3892 120.36 58.3946C120.274 58.4053 120.201 58.4107 120.142 58.4107ZM123.519 58.4591C123.1 58.4591 122.721 58.3623 122.382 58.1688C122.043 57.9699 121.775 57.6985 121.576 57.3544C121.377 57.0104 121.277 56.6207 121.277 56.1853C121.277 55.7499 121.374 55.3629 121.568 55.0242C121.767 54.6856 122.035 54.4168 122.374 54.2179C122.713 54.019 123.094 53.9196 123.519 53.9196C123.938 53.9196 124.317 54.019 124.656 54.2179C124.995 54.4114 125.261 54.6775 125.454 55.0162C125.653 55.3548 125.752 55.7445 125.752 56.1853C125.752 56.6261 125.65 57.0185 125.446 57.3625C125.242 57.7011 124.97 57.9699 124.632 58.1688C124.298 58.3623 123.928 58.4591 123.519 58.4591ZM123.519 57.7334C123.788 57.7334 124.03 57.6662 124.245 57.5318C124.465 57.3974 124.637 57.212 124.761 56.9755C124.89 56.739 124.954 56.4756 124.954 56.1853C124.954 55.8897 124.89 55.629 124.761 55.4032C124.637 55.172 124.465 54.9893 124.245 54.8549C124.03 54.7151 123.788 54.6453 123.519 54.6453C123.245 54.6453 122.998 54.7151 122.777 54.8549C122.562 54.9893 122.39 55.172 122.261 55.4032C122.132 55.629 122.068 55.8897 122.068 56.1853C122.068 56.4756 122.132 56.739 122.261 56.9755C122.39 57.212 122.562 57.3974 122.777 57.5318C122.998 57.6662 123.245 57.7334 123.519 57.7334ZM126.73 58.3623V54.0164H127.464V54.9033L127.359 54.7662C127.467 54.4921 127.639 54.2824 127.875 54.1373C128.112 53.9922 128.378 53.9196 128.674 53.9196C129.012 53.9196 129.316 54.0137 129.585 54.2018C129.859 54.3899 130.047 54.6372 130.149 54.9436L129.94 54.9517C130.052 54.613 130.243 54.3577 130.512 54.1857C130.781 54.0083 131.079 53.9196 131.407 53.9196C131.708 53.9196 131.979 53.9895 132.221 54.1292C132.469 54.269 132.665 54.4625 132.81 54.7098C132.955 54.957 133.028 55.2366 133.028 55.5483V58.3623H132.27V55.7902C132.27 55.5483 132.227 55.3441 132.141 55.1774C132.055 55.0108 131.936 54.8818 131.786 54.7904C131.641 54.6936 131.469 54.6453 131.27 54.6453C131.076 54.6453 130.902 54.6936 130.746 54.7904C130.595 54.8818 130.474 55.0135 130.383 55.1855C130.297 55.3521 130.254 55.5537 130.254 55.7902V58.3623H129.496V55.7902C129.496 55.5483 129.453 55.3441 129.367 55.1774C129.281 55.0108 129.163 54.8818 129.012 54.7904C128.867 54.6936 128.695 54.6453 128.496 54.6453C128.303 54.6453 128.128 54.6936 127.972 54.7904C127.822 54.8818 127.701 55.0135 127.609 55.1855C127.523 55.3521 127.48 55.5537 127.48 55.7902V58.3623H126.73ZM135.367 58.4591C135.082 58.4591 134.829 58.408 134.609 58.3059C134.394 58.1984 134.224 58.0532 134.101 57.8705C133.977 57.6823 133.915 57.4673 133.915 57.2254C133.915 56.9943 133.964 56.7873 134.06 56.6046C134.163 56.4164 134.318 56.2579 134.528 56.1289C134.743 55.9998 135.012 55.9085 135.334 55.8547L136.947 55.5886V56.2175L135.504 56.4594C135.224 56.5078 135.02 56.5965 134.891 56.7255C134.767 56.8545 134.705 57.0131 134.705 57.2012C134.705 57.3786 134.775 57.5264 134.915 57.6447C135.06 57.763 135.24 57.8221 135.455 57.8221C135.729 57.8221 135.966 57.7656 136.165 57.6528C136.369 57.5345 136.528 57.3759 136.641 57.177C136.759 56.9782 136.818 56.7578 136.818 56.5159V55.4112C136.818 55.1747 136.729 54.9839 136.552 54.8388C136.38 54.6883 136.151 54.613 135.867 54.613C135.619 54.613 135.399 54.6775 135.205 54.8065C135.017 54.9302 134.877 55.0968 134.786 55.3064L134.133 54.9678C134.214 54.7689 134.343 54.5915 134.52 54.4356C134.697 54.2744 134.904 54.148 135.141 54.0567C135.377 53.9653 135.625 53.9196 135.883 53.9196C136.216 53.9196 136.509 53.9841 136.762 54.1131C137.014 54.2367 137.21 54.4114 137.35 54.6372C137.495 54.8576 137.568 55.1156 137.568 55.4112V58.3623H136.834V57.5399L136.971 57.5883C136.88 57.7603 136.756 57.9108 136.6 58.0398C136.444 58.1688 136.262 58.2709 136.052 58.3462C135.842 58.4214 135.614 58.4591 135.367 58.4591ZM140.418 58.4107C139.993 58.4107 139.665 58.2897 139.434 58.0478C139.208 57.806 139.095 57.4646 139.095 57.0238V54.734H138.305V54.0164H138.466C138.66 54.0164 138.813 53.9572 138.926 53.839C139.039 53.7207 139.095 53.5648 139.095 53.3713V53.0165H139.845V54.0164H140.821V54.734H139.845V56.9997C139.845 57.1448 139.867 57.2711 139.91 57.3786C139.958 57.4861 140.036 57.5721 140.143 57.6366C140.251 57.6958 140.393 57.7253 140.571 57.7253C140.608 57.7253 140.654 57.7226 140.708 57.7173C140.767 57.7119 140.821 57.7065 140.869 57.7011V58.3623C140.799 58.3784 140.721 58.3892 140.635 58.3946C140.549 58.4053 140.477 58.4107 140.418 58.4107ZM141.849 58.3623V54.0164H142.598V58.3623H141.849ZM141.849 53.3229V52.3554H142.598V53.3229H141.849ZM145.826 58.4591C145.407 58.4591 145.028 58.3623 144.689 58.1688C144.351 57.9699 144.082 57.6985 143.883 57.3544C143.684 57.0104 143.585 56.6207 143.585 56.1853C143.585 55.7499 143.681 55.3629 143.875 55.0242C144.074 54.6856 144.342 54.4168 144.681 54.2179C145.02 54.019 145.401 53.9196 145.826 53.9196C146.245 53.9196 146.624 54.019 146.963 54.2179C147.302 54.4114 147.568 54.6775 147.761 55.0162C147.96 55.3548 148.06 55.7445 148.06 56.1853C148.06 56.6261 147.957 57.0185 147.753 57.3625C147.549 57.7011 147.277 57.9699 146.939 58.1688C146.606 58.3623 146.235 58.4591 145.826 58.4591ZM145.826 57.7334C146.095 57.7334 146.337 57.6662 146.552 57.5318C146.772 57.3974 146.944 57.212 147.068 56.9755C147.197 56.739 147.261 56.4756 147.261 56.1853C147.261 55.8897 147.197 55.629 147.068 55.4032C146.944 55.172 146.772 54.9893 146.552 54.8549C146.337 54.7151 146.095 54.6453 145.826 54.6453C145.552 54.6453 145.305 54.7151 145.084 54.8549C144.869 54.9893 144.697 55.172 144.568 55.4032C144.439 55.629 144.375 55.8897 144.375 56.1853C144.375 56.4756 144.439 56.739 144.568 56.9755C144.697 57.212 144.869 57.3974 145.084 57.5318C145.305 57.6662 145.552 57.7334 145.826 57.7334ZM149.038 58.3623V54.0164H149.771V54.863L149.65 54.7904C149.758 54.5163 149.93 54.3039 150.166 54.1534C150.408 53.9975 150.69 53.9196 151.013 53.9196C151.325 53.9196 151.602 53.9895 151.843 54.1292C152.091 54.269 152.284 54.4625 152.424 54.7098C152.569 54.957 152.642 55.2366 152.642 55.5483V58.3623H151.884V55.7902C151.884 55.5483 151.841 55.3441 151.755 55.1774C151.669 55.0108 151.545 54.8818 151.384 54.7904C151.228 54.6936 151.048 54.6453 150.844 54.6453C150.639 54.6453 150.457 54.6936 150.295 54.7904C150.139 54.8818 150.016 55.0135 149.924 55.1855C149.833 55.3521 149.787 55.5537 149.787 55.7902V58.3623H149.038Z" fill="white"/>
</svg>
