<svg width="36" height="36" viewBox="0 0 36 36" fill="none" xmlns="http://www.w3.org/2000/svg">
<rect x="0.939941" y="0.200195" width="35" height="35" rx="17.5" fill="url(#paint0_linear_2085_3201)"/>
<g clip-path="url(#clip0_2085_3201)">
<path d="M24.2524 13.3877C23.9035 13.8981 23.4816 14.333 22.9868 14.6924C22.992 14.7653 22.9946 14.8747 22.9946 15.0205C22.9946 15.6976 22.8957 16.3734 22.6978 17.0479C22.4998 17.7223 22.1991 18.3695 21.7954 18.9893C21.3918 19.609 20.9113 20.1572 20.354 20.6338C19.7967 21.1104 19.1248 21.4906 18.3384 21.7744C17.5519 22.0583 16.7108 22.2002 15.8149 22.2002C14.4035 22.2002 13.1118 21.8226 11.9399 21.0674C12.1222 21.0882 12.3254 21.0986 12.5493 21.0986C13.7212 21.0986 14.7655 20.7393 15.6821 20.0205C15.1353 20.0101 14.6457 19.8421 14.2134 19.5166C13.7811 19.1911 13.4842 18.7757 13.3228 18.2705C13.4946 18.2965 13.6535 18.3096 13.7993 18.3096C14.0233 18.3096 14.2446 18.2809 14.4634 18.2236C13.88 18.1038 13.397 17.8135 13.0142 17.3525C12.6313 16.8916 12.4399 16.3564 12.4399 15.7471V15.7158C12.7941 15.9137 13.1743 16.0205 13.5806 16.0361C13.2368 15.807 12.9634 15.5075 12.7603 15.1377C12.5571 14.7679 12.4556 14.3669 12.4556 13.9346C12.4556 13.4762 12.5701 13.0518 12.7993 12.6611C13.4295 13.4372 14.1965 14.0583 15.1001 14.5244C16.0037 14.9906 16.9712 15.2497 18.0024 15.3018C17.9608 15.1038 17.9399 14.9111 17.9399 14.7236C17.9399 14.0257 18.186 13.4307 18.6782 12.9385C19.1704 12.4463 19.7655 12.2002 20.4634 12.2002C21.1925 12.2002 21.8071 12.4658 22.3071 12.9971C22.8748 12.8877 23.4087 12.6846 23.9087 12.3877C23.716 12.9867 23.3462 13.4502 22.7993 13.7783C23.2837 13.7262 23.7681 13.596 24.2524 13.3877Z" fill="white"/>
</g>
<defs>
<linearGradient id="paint0_linear_2085_3201" x1="0.939941" y1="17.7002" x2="35.9399" y2="17.7002" gradientUnits="userSpaceOnUse">
<stop stop-color="#230FBF"/>
<stop offset="1" stop-color="#B42BD1"/>
</linearGradient>
<clipPath id="clip0_2085_3201">
<rect width="13" height="14" fill="white" transform="matrix(1 0 0 -1 11.9399 24.2002)"/>
</clipPath>
</defs>
</svg>
