<svg width="36" height="36" viewBox="0 0 36 36" fill="none" xmlns="http://www.w3.org/2000/svg">
<rect x="0.879883" y="0.200195" width="35" height="35" rx="17.5" fill="url(#paint0_linear_2085_3204)"/>
<g clip-path="url(#clip0_2085_3204)">
<path d="M19.7549 19.9189V21.5674C19.7549 21.9163 19.6533 22.0908 19.4502 22.0908C19.3304 22.0908 19.2132 22.0335 19.0986 21.9189V19.5674C19.2132 19.4528 19.3304 19.3955 19.4502 19.3955C19.6533 19.3955 19.7549 19.57 19.7549 19.9189ZM22.3955 19.9268V20.2861H21.6924V19.9268C21.6924 19.5726 21.8096 19.3955 22.0439 19.3955C22.2783 19.3955 22.3955 19.5726 22.3955 19.9268ZM14.8486 18.2236H15.6846V17.4893H13.2471V18.2236H14.0674V22.6689H14.8486V18.2236ZM17.0986 22.6689H17.7939V18.8096H17.0986V21.7627C16.9424 21.9814 16.7939 22.0908 16.6533 22.0908C16.5596 22.0908 16.5049 22.0361 16.4893 21.9268C16.484 21.9111 16.4814 21.82 16.4814 21.6533V18.8096H15.7861V21.8643C15.7861 22.1195 15.807 22.3096 15.8486 22.4346C15.9111 22.6273 16.0622 22.7236 16.3018 22.7236C16.5518 22.7236 16.8174 22.5648 17.0986 22.2471V22.6689ZM20.4502 21.5127V19.9736C20.4502 19.5934 20.4268 19.3356 20.3799 19.2002C20.2913 18.9085 20.1064 18.7627 19.8252 18.7627C19.5648 18.7627 19.3226 18.9033 19.0986 19.1846V17.4893H18.4033V22.6689H19.0986V22.2939C19.333 22.5804 19.5752 22.7236 19.8252 22.7236C20.1064 22.7236 20.2913 22.5804 20.3799 22.2939C20.4268 22.1533 20.4502 21.8929 20.4502 21.5127ZM23.0908 21.4346V21.333H22.3799C22.3799 21.5986 22.3747 21.7575 22.3643 21.8096C22.3278 21.9971 22.2236 22.0908 22.0518 22.0908C21.8122 22.0908 21.6924 21.9111 21.6924 21.5518V20.8721H23.0908V20.0674C23.0908 19.6559 23.0205 19.3538 22.8799 19.1611C22.6768 18.8955 22.4007 18.7627 22.0518 18.7627C21.6976 18.7627 21.4189 18.8955 21.2158 19.1611C21.07 19.3538 20.9971 19.6559 20.9971 20.0674V21.4189C20.9971 21.8304 21.0726 22.1325 21.2236 22.3252C21.4268 22.5908 21.708 22.7236 22.0674 22.7236C22.4424 22.7236 22.7236 22.5856 22.9111 22.3096C23.0049 22.1689 23.0596 22.0283 23.0752 21.8877C23.0856 21.8408 23.0908 21.6898 23.0908 21.4346ZM18.3408 14.3018V12.6611C18.3408 12.3018 18.2288 12.1221 18.0049 12.1221C17.7809 12.1221 17.6689 12.3018 17.6689 12.6611V14.3018C17.6689 14.6663 17.7809 14.8486 18.0049 14.8486C18.2288 14.8486 18.3408 14.6663 18.3408 14.3018ZM23.958 20.1689C23.958 21.3877 23.8903 22.2992 23.7549 22.9033C23.682 23.2106 23.5309 23.4684 23.3018 23.6768C23.0726 23.8851 22.807 24.0049 22.5049 24.0361C21.5465 24.1455 20.1012 24.2002 18.1689 24.2002C16.2367 24.2002 14.7913 24.1455 13.833 24.0361C13.5309 24.0049 13.264 23.8851 13.0322 23.6768C12.8005 23.4684 12.6507 23.2106 12.583 22.9033C12.4476 22.32 12.3799 21.4085 12.3799 20.1689C12.3799 18.9502 12.4476 18.0387 12.583 17.4346C12.6559 17.1273 12.807 16.8695 13.0361 16.6611C13.2653 16.4528 13.5335 16.3304 13.8408 16.2939C14.7939 16.1898 16.2367 16.1377 18.1689 16.1377C20.1012 16.1377 21.5465 16.1898 22.5049 16.2939C22.807 16.3304 23.0739 16.4528 23.3057 16.6611C23.5374 16.8695 23.6872 17.1273 23.7549 17.4346C23.8903 18.0179 23.958 18.9294 23.958 20.1689ZM16.1611 10.2002H16.958L16.0127 13.3174V15.4346H15.2314V13.3174C15.1585 12.932 14.9997 12.3799 14.7549 11.6611C14.5622 11.1247 14.3929 10.6377 14.2471 10.2002H15.0752L15.6299 12.2549L16.1611 10.2002ZM19.0518 12.8018V14.1689C19.0518 14.5908 18.9788 14.8981 18.833 15.0908C18.6351 15.3564 18.359 15.4893 18.0049 15.4893C17.6559 15.4893 17.3825 15.3564 17.1846 15.0908C17.0387 14.8929 16.9658 14.5856 16.9658 14.1689V12.8018C16.9658 12.3851 17.0387 12.0804 17.1846 11.8877C17.3825 11.6221 17.6559 11.4893 18.0049 11.4893C18.359 11.4893 18.6351 11.6221 18.833 11.8877C18.9788 12.0804 19.0518 12.3851 19.0518 12.8018ZM21.6689 11.5361V15.4346H20.958V15.0049C20.682 15.3278 20.4137 15.4893 20.1533 15.4893C19.9137 15.4893 19.7601 15.3929 19.6924 15.2002C19.6507 15.0752 19.6299 14.8799 19.6299 14.6143V11.5361H20.3408V14.4033C20.3408 14.5752 20.3434 14.6663 20.3486 14.6768C20.3643 14.7913 20.4189 14.8486 20.5127 14.8486C20.6533 14.8486 20.8018 14.7367 20.958 14.5127V11.5361H21.6689Z" fill="white"/>
</g>
<defs>
<linearGradient id="paint0_linear_2085_3204" x1="0.879883" y1="17.7002" x2="35.8799" y2="17.7002" gradientUnits="userSpaceOnUse">
<stop stop-color="#230FBF"/>
<stop offset="1" stop-color="#B42BD1"/>
</linearGradient>
<clipPath id="clip0_2085_3204">
<rect width="12" height="14" fill="white" transform="matrix(1 0 0 -1 12.3799 24.2002)"/>
</clipPath>
</defs>
</svg>
