<svg width="55" height="55" viewBox="0 0 55 55" fill="none" xmlns="http://www.w3.org/2000/svg">
<path fill-rule="evenodd" clip-rule="evenodd" d="M3.92046 10.268C3.92046 9.86119 4.12676 9.25504 4.97471 8.48229C5.82344 7.70882 7.16066 6.9223 8.97904 6.2214C12.6028 4.82458 17.7419 3.91899 23.5161 3.91899C29.2904 3.91899 34.4294 4.82458 38.0532 6.2214C39.8716 6.9223 41.2088 7.70882 42.0575 8.48229C42.9055 9.25504 43.1118 9.86119 43.1118 10.268C43.1118 10.6748 42.9055 11.2809 42.0575 12.0537C41.2088 12.8271 39.8716 13.6137 38.0532 14.3146C34.4294 15.7114 29.2904 16.617 23.5161 16.617C17.7419 16.617 12.6028 15.7114 8.97904 14.3146C7.16066 13.6137 5.82344 12.8271 4.97471 12.0537C4.12676 11.2809 3.92046 10.6748 3.92046 10.268ZM23.5161 -0.000244141C17.3857 -0.000244141 11.7471 0.954112 7.56943 2.56442C5.48707 3.36708 3.66759 4.37092 2.33481 5.5855C1.00124 6.80081 0.0012207 8.38042 0.0012207 10.268L0.0012207 10.2681L0.0012207 10.2682V23.5144V36.7617C0.0012207 38.566 0.913521 40.0843 2.15658 41.2655C3.39222 42.4397 5.07757 43.4094 7.00056 44.1949C10.8573 45.7703 16.0746 46.7677 21.7942 46.9893C22.8757 47.0311 23.7863 46.1884 23.8282 45.1069C23.8701 44.0255 23.0274 43.1148 21.9459 43.0729C16.5352 42.8634 11.7979 41.9209 8.48259 40.5667C6.81956 39.8874 5.61454 39.1449 4.85632 38.4244C4.10552 37.711 3.92046 37.1521 3.92046 36.7617V29.3772C5.00458 30.0747 6.2644 30.682 7.63535 31.2012C11.8329 32.791 17.4753 33.7066 23.5422 33.6257C24.6244 33.6113 25.49 32.7223 25.4756 31.6401C25.4611 30.5579 24.5722 29.6924 23.49 29.7068C17.7995 29.7827 12.6643 28.915 9.02354 27.5361C7.19644 26.844 5.84542 26.0607 4.98593 25.2877C4.12487 24.5132 3.92046 23.9095 3.92046 23.5144V16.1597C4.98655 16.8495 6.22304 17.4526 7.56943 17.9715C11.7471 19.5819 17.3857 20.5362 23.5161 20.5362C29.6465 20.5362 35.2851 19.5819 39.4628 17.9715C40.8094 17.4525 42.046 16.8493 43.1122 16.1595V17.6362C43.1122 18.7184 43.9895 19.5958 45.0718 19.5958C46.154 19.5958 47.0314 18.7184 47.0314 17.6362V10.2681C47.0314 10.2517 47.0312 10.2354 47.0308 10.2191C47.0137 8.35313 46.0195 6.7903 44.6974 5.5855C43.3647 4.37092 41.5452 3.36708 39.4628 2.56442C35.2851 0.954112 29.6465 -0.000244141 23.5161 -0.000244141ZM31.3549 39.1911V50.9485H50.9505V39.1911H31.3549ZM31.3542 35.2719C30.3212 35.272 29.3082 35.625 28.5485 36.3847C27.7886 37.1446 27.4357 38.1579 27.4357 39.1911V50.9485C27.4357 51.9817 27.7886 52.995 28.5485 53.7549C29.3084 54.5148 30.3217 54.8677 31.3549 54.8677H50.9506C51.9838 54.8677 52.997 54.5148 53.7569 53.7549C54.5168 52.995 54.8698 51.9817 54.8698 50.9485V39.1911C54.8698 38.1579 54.5168 37.1446 53.7569 36.3847C52.997 35.6248 51.9838 35.2719 50.9506 35.2719H50.95V33.3123C50.95 27.9189 46.5454 23.5143 41.1521 23.5143C35.7588 23.5143 31.3542 27.9189 31.3542 33.3123V35.2719ZM47.0308 35.2719H35.2734V33.3123C35.2734 30.0835 37.9233 27.4336 41.1521 27.4336C44.3809 27.4336 47.0308 30.0835 47.0308 33.3123V35.2719Z" fill="url(#paint0_linear_2379_5320)"/>
<defs>
<linearGradient id="paint0_linear_2379_5320" x1="27.4355" y1="-0.000244141" x2="27.4355" y2="54.8678" gradientUnits="userSpaceOnUse">
<stop stop-color="#230FBF"/>
<stop offset="0.61" stop-color="#B42BD1"/>
<stop offset="1" stop-color="#B42BD1"/>
</linearGradient>
</defs>
</svg>
