<svg width="55" height="55" viewBox="0 0 55 55" fill="none" xmlns="http://www.w3.org/2000/svg">
<path fill-rule="evenodd" clip-rule="evenodd" d="M5.27995 9.39347C4.23356 10.345 3.91927 11.1467 3.91927 11.7574C3.91927 12.3682 4.23356 13.1699 5.27995 14.1214C6.32691 15.0735 7.95118 16.0208 10.1244 16.8566C14.4579 18.5233 20.5772 19.5957 27.4342 19.5957C34.2911 19.5957 40.4104 18.5233 44.7439 16.8566C46.9171 16.0208 48.5414 15.0735 49.5884 14.1214C50.6348 13.1699 50.9491 12.3682 50.9491 11.7574C50.9491 11.1467 50.6348 10.345 49.5884 9.39347C48.5414 8.44143 46.9171 7.49413 44.7439 6.65826C40.4104 4.99155 34.2911 3.91915 27.4342 3.91915C20.5772 3.91915 14.4579 4.99155 10.1244 6.65826C7.95118 7.49413 6.32691 8.44143 5.27995 9.39347ZM8.71755 3.00034C13.604 1.12093 20.222 0 27.4342 0C34.6464 0 41.2643 1.12093 46.1508 3.00034C48.5875 3.93754 50.6939 5.10151 52.2251 6.49388C53.7568 7.88676 54.8682 9.6626 54.8682 11.7574V11.7576V27.4342V43.1108C54.8682 45.2052 53.7566 46.9807 52.2251 48.3732C50.694 49.7654 48.5878 50.9294 46.1511 51.8668C41.2647 53.7466 34.6468 54.8683 27.4342 54.8683C20.2215 54.8683 13.6036 53.7466 8.7172 51.8668C6.28055 50.9294 4.17431 49.7654 2.64323 48.3732C1.1117 46.9807 0.00012207 45.2052 0.00012207 43.1108V27.4342V11.7576V11.7574C0.00012207 9.6626 1.1115 7.88676 2.64326 6.49388C4.17446 5.10151 6.28084 3.93754 8.71755 3.00034ZM3.91927 33.7147V43.1108C3.91927 43.7206 4.23328 44.522 5.27981 45.4736C6.3268 46.4255 7.9511 47.3729 10.1244 48.209C14.4578 49.876 20.5771 50.9491 27.4342 50.9491C34.2913 50.9491 40.4105 49.876 44.744 48.209C46.9172 47.3729 48.5415 46.4255 49.5885 45.4736C50.635 44.522 50.9491 43.7206 50.9491 43.1108V33.7147C49.6011 34.6663 47.9679 35.4912 46.1511 36.1902C41.2647 38.0699 34.6468 39.1916 27.4342 39.1916C20.2215 39.1916 13.6036 38.0699 8.7172 36.1902C6.90038 35.4912 5.26725 34.6663 3.91927 33.7147ZM50.9491 27.4342C50.9491 28.044 50.635 28.8453 49.5885 29.7969C48.5415 30.7489 46.9172 31.6963 44.744 32.5324C40.4105 34.1994 34.2913 35.2725 27.4342 35.2725C20.5771 35.2725 14.4578 34.1994 10.1244 32.5324C7.9511 31.6963 6.3268 30.7489 5.27981 29.7969C4.23328 28.8453 3.91927 28.044 3.91927 27.4342V18.0392C5.26737 18.9908 6.90063 19.8157 8.71755 20.5145C13.604 22.394 20.222 23.5149 27.4342 23.5149C34.6464 23.5149 41.2643 22.394 46.1508 20.5145C47.9677 19.8157 49.601 18.9908 50.9491 18.0392V27.4342Z" fill="url(#paint0_linear_2379_5284)"/>
<defs>
<linearGradient id="paint0_linear_2379_5284" x1="27.4342" y1="0" x2="27.4342" y2="54.8682" gradientUnits="userSpaceOnUse">
<stop stop-color="#230FBF"/>
<stop offset="0.61" stop-color="#B42BD1"/>
<stop offset="1" stop-color="#B42BD1"/>
</linearGradient>
</defs>
</svg>
