<svg width="55" height="55" viewBox="0 0 55 55" fill="none" xmlns="http://www.w3.org/2000/svg">
<path fill-rule="evenodd" clip-rule="evenodd" d="M4.97392 8.48232C4.12599 9.25507 3.91967 9.86123 3.91967 10.2681C3.91967 10.6749 4.12599 11.2811 4.97392 12.0538C5.82263 12.8273 7.15981 13.6138 8.97813 14.3147C12.6018 15.7115 17.7407 16.6171 23.5148 16.6171C29.2889 16.6171 34.4277 15.7115 38.0514 14.3147C39.8697 13.6138 41.2069 12.8273 42.0556 12.0538C42.8762 11.306 43.0959 10.7142 43.1092 10.3081V10.2683L43.1095 10.2366C43.0989 9.83024 42.882 9.23538 42.0556 8.48232C41.2069 7.70885 39.8697 6.92233 38.0514 6.22144C34.4277 4.82464 29.2889 3.91905 23.5148 3.91905C17.7407 3.91905 12.6018 4.82464 8.97813 6.22144C7.15981 6.92233 5.82263 7.70885 4.97392 8.48232ZM39.461 17.9715C40.8071 17.4526 42.0433 16.8497 43.1092 16.1601V19.5958C43.1092 20.678 43.9865 21.5553 45.0687 21.5553C46.151 21.5553 47.0283 20.678 47.0283 19.5958V10.352C47.0287 10.3241 47.0289 10.2961 47.0289 10.2681C47.0289 8.38056 46.029 6.80099 44.6954 5.5857C43.3627 4.37113 41.5433 3.3673 39.461 2.56465C35.2834 0.954349 29.645 0 23.5148 0C17.3846 0 11.7461 0.954349 7.56857 2.56465C5.48626 3.3673 3.66684 4.37113 2.33411 5.5857C1.0149 6.78795 0.022123 8.3467 0.000963354 10.2074C0.000343367 10.2277 3.11136e-05 10.248 3.11136e-05 10.2684V23.5131L3.05176e-05 23.5146L3.11136e-05 23.5171V36.7617C3.11136e-05 38.4854 0.834311 39.9515 1.99292 41.1073C3.14153 42.2533 4.70856 43.2044 6.4954 43.9823C10.0772 45.5418 14.9326 46.5731 20.2978 46.9129C21.3779 46.9813 22.3089 46.1613 22.3773 45.0812C22.4457 44.0011 21.6256 43.0701 20.5456 43.0017C15.4761 42.6806 11.1004 41.7129 8.05982 40.3891C6.53546 39.7254 5.44346 39.0139 4.76085 38.3329C4.08823 37.6619 3.91909 37.1367 3.91909 36.7617V29.3773C4.76907 29.9241 5.72331 30.413 6.74723 30.8463C10.4631 32.4184 15.4796 33.4168 20.9614 33.6001C22.043 33.6362 22.9491 32.7887 22.9853 31.7071C23.0215 30.6255 22.174 29.7194 21.0923 29.6832C15.9543 29.5114 11.4371 28.5751 8.2743 27.237C6.68803 26.5658 5.53727 25.8334 4.81321 25.1276C4.09497 24.4274 3.91949 23.8845 3.91909 23.5159V16.1593C4.98529 16.8492 6.22196 17.4524 7.56857 17.9715C11.7461 19.5818 17.3846 20.5361 23.5148 20.5361C29.645 20.5361 35.2834 19.5818 39.461 17.9715ZM42.9905 25.4742C42.9905 24.392 42.1132 23.5147 41.0309 23.5147C39.9487 23.5147 39.0714 24.392 39.0714 25.4742V29.5888C36.9516 30.0191 35.0803 31.1337 33.6982 32.692L30.1336 30.6355C29.1962 30.0947 27.9978 30.4162 27.457 31.3536C26.9162 32.291 27.2377 33.4893 28.1751 34.0301L31.7355 36.0842C31.4094 37.0605 31.2327 38.1053 31.2327 39.1913C31.2327 40.2772 31.4094 41.322 31.7355 42.2983L28.1751 44.3524C27.2377 44.8932 26.9162 46.0915 27.457 47.0289C27.9978 47.9663 29.1962 48.2878 30.1336 47.747L33.6982 45.6905C35.0803 47.2488 36.9516 48.3634 39.0714 48.7937V52.9084C39.0714 53.9906 39.9487 54.8679 41.0309 54.8679C42.1132 54.8679 42.9905 53.9906 42.9905 52.9084V48.7937C45.1103 48.3634 46.9815 47.2487 48.3637 45.6904L51.9286 47.7471C52.866 48.2879 54.0644 47.9664 54.6052 47.029C55.146 46.0916 54.8245 44.8933 53.8871 44.3525L50.3263 42.2982C50.6524 41.3219 50.8291 40.2772 50.8291 39.1913C50.8291 38.1053 50.6524 37.0606 50.3262 36.0843L53.8871 34.03C54.8245 33.4892 55.146 32.2908 54.6052 31.3534C54.0644 30.416 52.866 30.0945 51.9286 30.6354L48.3636 32.6921C46.9815 31.1338 45.1102 30.0192 42.9905 29.5889V25.4742ZM46.0562 36.14C45.0248 34.4449 43.16 33.3129 41.0309 33.3129C38.9036 33.3129 37.0402 34.4429 36.0083 36.1355C35.9891 36.1745 35.9685 36.2132 35.9465 36.2514C35.9235 36.2912 35.8993 36.3299 35.874 36.3675C35.4142 37.2056 35.1527 38.1679 35.1527 39.1913C35.1527 40.2146 35.4142 41.1768 35.8739 42.0148C35.8993 42.0525 35.9235 42.0912 35.9465 42.1311C35.9685 42.1694 35.9892 42.2081 36.0084 42.2472C37.0403 43.9397 38.9037 45.0696 41.0309 45.0696C43.16 45.0696 45.0247 43.9377 46.0561 42.2426C46.0747 42.2052 46.0945 42.168 46.1157 42.1313C46.1379 42.0929 46.1611 42.0556 46.1854 42.0193C46.6467 41.1803 46.9091 40.2164 46.9091 39.1913C46.9091 38.166 46.6466 37.2021 46.1853 36.3631C46.161 36.3268 46.1378 36.2895 46.1157 36.2512C46.0946 36.2145 46.0747 36.1774 46.0562 36.14Z" fill="url(#paint0_linear_2379_5358)"/>
<defs>
<linearGradient id="paint0_linear_2379_5358" x1="27.434" y1="0" x2="27.434" y2="54.868" gradientUnits="userSpaceOnUse">
<stop stop-color="#230FBF"/>
<stop offset="1" stop-color="#B42BD1"/>
</linearGradient>
</defs>
</svg>
