<svg width="55" height="57" viewBox="0 0 55 57" fill="none" xmlns="http://www.w3.org/2000/svg">
<path fill-rule="evenodd" clip-rule="evenodd" d="M5.00188 5.70984C5.44745 5.32792 6.11256 5.06999 6.86164 5.06999H35.8012L50.4747 17.6473V49.9895C50.4747 50.355 50.308 50.7852 49.8725 51.1585C49.4269 51.5404 48.7618 51.7983 48.0127 51.7983H6.86164C6.11257 51.7983 5.44745 51.5404 5.00188 51.1585C4.56636 50.7852 4.39961 50.355 4.39961 49.9895V6.87883C4.39961 6.5133 4.56636 6.08313 5.00188 5.70984ZM6.86164 0.849365C5.18539 0.849365 3.52452 1.41725 2.25513 2.5053C0.975684 3.60197 0.178986 5.16551 0.178986 6.87883V49.9895C0.178986 51.7028 0.975685 53.2664 2.25513 54.363C3.52452 55.4511 5.18539 56.019 6.86164 56.019H48.0127C49.6889 56.019 51.3498 55.4511 52.6192 54.363C53.8986 53.2664 54.6954 51.7028 54.6954 49.9895V16.6767C54.6954 16.0607 54.4262 15.4754 53.9584 15.0744L37.9552 1.35741C37.5727 1.02957 37.0856 0.849365 36.5818 0.849365H6.86164ZM19.426 12.9092C17.3696 12.9092 16.2764 14.2764 16.2764 15.3074C16.2764 16.3384 17.3696 17.7055 19.426 17.7055C19.9131 17.7055 20.3662 17.62 20.7675 17.4727C21.9996 17.0205 22.5755 16.0993 22.5755 15.3074C22.5755 14.2764 21.4823 12.9092 19.426 12.9092ZM12.0558 15.3074C12.0558 11.3584 15.6724 8.68859 19.426 8.68859C23.1795 8.68859 26.7962 11.3584 26.7962 15.3074C26.7962 16.8614 26.2181 18.2308 25.2989 19.3122C26.9032 20.2615 28.2527 21.5872 29.2275 23.1765C29.8369 24.17 29.5255 25.4693 28.5321 26.0787C27.5386 26.6881 26.2392 26.3767 25.6298 25.3832C24.9839 24.3302 24.0751 23.4583 22.9894 22.8526C21.9037 22.2468 20.6783 21.9281 19.4311 21.9281C18.184 21.9281 16.9586 22.2468 15.8729 22.8526C14.7872 23.4583 13.8784 24.3302 13.2325 25.3832C12.6231 26.3767 11.3237 26.6881 10.3302 26.0787C9.33674 25.4693 9.02536 24.17 9.63475 23.1765C10.6068 21.5917 11.9514 20.2691 13.5496 19.3204C12.6264 18.2427 12.0558 16.8759 12.0558 15.3074ZM9.32331 34.3128C9.32331 33.1473 10.2681 32.2025 11.4336 32.2025H43.44C44.6055 32.2025 45.5503 33.1473 45.5503 34.3128C45.5503 35.4783 44.6055 36.4231 43.44 36.4231H11.4336C10.2681 36.4231 9.32331 35.4783 9.32331 34.3128ZM11.4336 42.0005C10.2681 42.0005 9.32331 42.9453 9.32331 44.1108C9.32331 45.2763 10.2681 46.2211 11.4336 46.2211H29.723C30.8885 46.2211 31.8333 45.2763 31.8333 44.1108C31.8333 42.9453 30.8885 42.0005 29.723 42.0005H11.4336Z" fill="url(#paint0_linear_2379_5332)"/>
<defs>
<linearGradient id="paint0_linear_2379_5332" x1="27.4372" y1="0.849365" x2="27.4372" y2="56.019" gradientUnits="userSpaceOnUse">
<stop stop-color="#230FBF"/>
<stop offset="0.61" stop-color="#B42BD1"/>
<stop offset="1" stop-color="#B42BD1"/>
</linearGradient>
</defs>
</svg>
