<svg width="55" height="55" viewBox="0 0 55 55" fill="none" xmlns="http://www.w3.org/2000/svg">
<path fill-rule="evenodd" clip-rule="evenodd" d="M13.4784 1.76504C13.3787 0.77418 12.5447 0.0198975 11.5489 0.0198975H1.97248C0.901421 0.0198975 0.0331573 0.88816 0.0331573 1.95921C0.0331573 3.03027 0.901421 3.89853 1.97248 3.89853H9.79491L10.9821 15.6957C10.9833 15.8159 10.9954 15.9335 11.0175 16.0475L13.0308 36.054C13.034 36.0863 13.0381 36.1186 13.043 36.1507C13.255 37.548 13.9651 38.8214 15.0421 39.7363C16.1161 40.6487 17.4828 41.1435 18.8917 41.1304H43.54C44.7988 41.1841 46.0421 40.8309 47.085 40.1221C48.1432 39.4029 48.937 38.3571 49.3449 37.1443L49.3469 37.1383L54.5622 21.4617L54.5637 21.4571C54.8544 20.576 54.9316 19.6384 54.7889 18.7215C54.6467 17.8078 54.2902 16.9408 53.7485 16.1914C53.1817 15.3963 52.425 14.7554 51.5474 14.3271C50.6813 13.9043 49.7245 13.7017 48.7618 13.7369H14.6832L13.4784 1.76504ZM15.0735 17.6155H48.8008C48.8297 17.6155 48.8585 17.6149 48.8874 17.6136C49.2186 17.5988 49.5482 17.6672 49.8461 17.8126C50.1439 17.958 50.4004 18.1756 50.5922 18.4455L50.6031 18.4607C50.7872 18.7146 50.9082 19.0084 50.9564 19.318C51.0045 19.627 50.9787 19.9429 50.881 20.24L50.8804 20.2419L45.6686 35.9078L45.6678 35.9104C45.5297 36.3189 45.2619 36.6715 44.9048 36.9142C44.5469 37.1574 44.119 37.277 43.6866 37.2544C43.6529 37.2527 43.6192 37.2518 43.5855 37.2518H18.8816L18.8597 37.2519C18.3814 37.2573 17.9175 37.0898 17.5533 36.7804C17.1995 36.4798 16.963 36.065 16.8842 35.6089L15.0735 17.6155ZM42.9382 50.9422C42.9382 50.9425 42.9386 50.9443 42.9386 50.9482C42.9386 50.952 42.9382 50.9538 42.9382 50.9541L42.9379 50.9551C42.9376 50.9557 42.937 50.9569 42.9358 50.9586C42.935 50.9596 42.934 50.9608 42.9327 50.9621C42.9311 50.9637 42.9296 50.9649 42.9283 50.9658C42.927 50.9667 42.9259 50.9672 42.9253 50.9675L42.9238 50.9679C42.9233 50.968 42.9214 50.9684 42.9173 50.9684C42.9132 50.9684 42.9112 50.968 42.9107 50.9679L42.9092 50.9675C42.908 50.967 42.9051 50.9654 42.9018 50.9621C42.8986 50.9588 42.8971 50.9561 42.8967 50.9551L42.8964 50.9541C42.8963 50.9538 42.896 50.952 42.896 50.9482L42.8961 50.944L42.8964 50.9422L42.8967 50.9412C42.8969 50.9407 42.8975 50.9396 42.8985 50.9382C42.8993 50.937 42.9004 50.9357 42.9018 50.9342C42.9051 50.9309 42.908 50.9294 42.9092 50.9288L42.9107 50.9284L42.912 50.9282C42.9131 50.928 42.9148 50.9279 42.9173 50.9279C42.9214 50.9279 42.9233 50.9283 42.9238 50.9284L42.9253 50.9288C42.9265 50.9294 42.9294 50.9309 42.9327 50.9342C42.936 50.9375 42.9375 50.9403 42.9379 50.9412L42.9382 50.9422ZM46.8172 50.9482C46.8172 48.7939 45.0702 47.0493 42.9173 47.0493C40.7644 47.0493 39.0173 48.7939 39.0173 50.9482C39.0173 53.1024 40.7644 54.847 42.9173 54.847C45.0702 54.847 46.8172 53.1024 46.8172 50.9482ZM17.4504 50.9485C17.4504 50.9446 17.4501 50.9428 17.45 50.9425L17.4497 50.9415C17.4493 50.9406 17.4478 50.9378 17.4445 50.9345C17.4412 50.9312 17.4384 50.9297 17.4371 50.9291L17.4357 50.9287C17.4352 50.9286 17.4332 50.9282 17.4291 50.9282C17.4261 50.9282 17.4243 50.9284 17.4233 50.9286L17.4226 50.9287L17.4211 50.9291C17.4198 50.9297 17.417 50.9312 17.4137 50.9345L17.4119 50.9364L17.41 50.9388C17.4092 50.9401 17.4087 50.941 17.4085 50.9415L17.4082 50.9425C17.4082 50.9428 17.4078 50.9446 17.4078 50.9485C17.4078 50.9523 17.4082 50.9541 17.4082 50.9544L17.4085 50.9554C17.4089 50.9564 17.4104 50.9591 17.4137 50.9624C17.417 50.9657 17.4198 50.9673 17.4211 50.9678L17.4226 50.9682C17.423 50.9683 17.425 50.9687 17.4291 50.9687L17.4338 50.9685L17.4357 50.9682L17.4371 50.9678C17.4384 50.9673 17.4412 50.9657 17.4445 50.9624C17.4478 50.9591 17.4493 50.9564 17.4497 50.9554L17.45 50.9544C17.4501 50.9541 17.4504 50.9523 17.4504 50.9485ZM17.4291 47.0496C19.582 47.0496 21.329 48.7942 21.329 50.9485C21.329 53.1027 19.582 54.8473 17.4291 54.8473C15.2762 54.8473 13.5292 53.1027 13.5292 50.9485C13.5292 48.7942 15.2762 47.0496 17.4291 47.0496ZM26.2066 21.5754C27.2776 21.5754 28.1459 22.4437 28.1459 23.5147V31.353C28.1459 32.4241 27.2776 33.2923 26.2066 33.2923C25.1355 33.2923 24.2673 32.4241 24.2673 31.353V23.5147C24.2673 22.4437 25.1355 21.5754 26.2066 21.5754ZM39.9095 23.5144C39.9095 22.4434 39.0413 21.5751 37.9702 21.5751C36.8992 21.5751 36.0309 22.4434 36.0309 23.5144V31.3527C36.0309 32.4238 36.8992 33.292 37.9702 33.292C39.0413 33.292 39.9095 32.4238 39.9095 31.3527V23.5144Z" fill="url(#paint0_linear_2379_5293)"/>
<defs>
<linearGradient id="paint0_linear_2379_5293" x1="27.4459" y1="0.0198975" x2="27.4459" y2="54.8473" gradientUnits="userSpaceOnUse">
<stop stop-color="#230FBF"/>
<stop offset="0.61" stop-color="#B42BD1"/>
<stop offset="1" stop-color="#B42BD1"/>
</linearGradient>
</defs>
</svg>
