<svg width="57" height="57" viewBox="0 0 57 57" fill="none" xmlns="http://www.w3.org/2000/svg">
<path fill-rule="evenodd" clip-rule="evenodd" d="M36.2748 0.849243C37.4403 0.849243 38.3851 1.79406 38.3851 2.95955V10.647H40.1938C43.5237 10.647 46.2232 13.3465 46.2232 16.6765V18.4854H53.9107C55.0762 18.4854 56.021 19.4302 56.021 20.5957C56.021 21.7612 55.0762 22.706 53.9107 22.706H46.2232V34.1618H53.9107C55.0762 34.1618 56.021 35.1066 56.021 36.2721C56.021 37.4376 55.0762 38.3824 53.9107 38.3824H46.2232V40.1913C46.2232 43.5213 43.5237 46.2208 40.1938 46.2208H38.3851V53.9085C38.3851 55.074 37.4403 56.0188 36.2748 56.0188C35.1093 56.0188 34.1645 55.074 34.1645 53.9085V46.2208H22.7075V53.9085C22.7075 55.074 21.7626 56.0188 20.5972 56.0188C19.4317 56.0188 18.4868 55.074 18.4868 53.9085V46.2208H16.6789C13.3489 46.2208 10.6494 43.5213 10.6494 40.1913V38.3824H2.96139C1.79589 38.3824 0.851074 37.4376 0.851074 36.2721C0.851074 35.1066 1.79589 34.1618 2.96139 34.1618H10.6494V22.706H2.96139C1.79589 22.706 0.851074 21.7612 0.851074 20.5957C0.851074 19.4302 1.79589 18.4854 2.96139 18.4854H10.6494V16.6765C10.6494 13.3465 13.3489 10.647 16.6789 10.647H18.4868V2.95969C18.4868 1.7942 19.4317 0.84938 20.5972 0.84938C21.7626 0.84938 22.7075 1.7942 22.7075 2.95969V10.647H34.1645V2.95955C34.1645 1.79406 35.1093 0.849243 36.2748 0.849243ZM42.0026 20.6186V36.2492L42.0025 36.2721L42.0026 36.295V40.1913C42.0026 41.1903 41.1928 42.0002 40.1938 42.0002H16.6789C15.6799 42.0002 14.87 41.1903 14.87 40.1913V16.6765C14.87 15.6775 15.6799 14.8676 16.6789 14.8676H20.5647L20.5972 14.8679L20.6296 14.8676H36.2532L36.2748 14.8677L36.2963 14.8676H40.1938C41.1928 14.8676 42.0026 15.6775 42.0026 16.6765V20.5728L42.0025 20.5957L42.0026 20.6186ZM26.477 28.2833C25.3115 28.2833 24.3667 29.2281 24.3667 30.3936C24.3667 31.5591 25.3115 32.5039 26.477 32.5039H34.3153C35.4808 32.5039 36.4256 31.5591 36.4256 30.3936C36.4256 29.2281 35.4808 28.2833 34.3153 28.2833H26.477Z" fill="url(#paint0_linear_2379_5304)"/>
<defs>
<linearGradient id="paint0_linear_2379_5304" x1="28.436" y1="0.849243" x2="28.436" y2="56.0188" gradientUnits="userSpaceOnUse">
<stop stop-color="#230FBF"/>
<stop offset="0.61" stop-color="#B42BD1"/>
<stop offset="1" stop-color="#B42BD1"/>
</linearGradient>
</defs>
</svg>
